<svg width="21" height="18" viewBox="0 0 21 18" fill="none" xmlns="http://www.w3.org/2000/svg">
<path d="M5.66 4.46C6.548 4.46 7.352 4.664 8.072 5.072C8.792 5.468 9.356 6.032 9.764 6.764C10.172 7.496 10.376 8.33 10.376 9.266C10.376 10.202 10.172 11.036 9.764 11.768C9.356 12.5 8.792 13.07 8.072 13.478C7.352 13.886 6.548 14.09 5.66 14.09C4.868 14.09 4.154 13.922 3.518 13.586C2.894 13.25 2.39 12.764 2.006 12.128V14H0.782V0.643999H2.06V6.332C2.456 5.72 2.96 5.258 3.572 4.946C4.196 4.622 4.892 4.46 5.66 4.46ZM5.57 12.956C6.23 12.956 6.83 12.806 7.37 12.506C7.91 12.194 8.33 11.756 8.63 11.192C8.942 10.628 9.098 9.986 9.098 9.266C9.098 8.546 8.942 7.904 8.63 7.34C8.33 6.776 7.91 6.344 7.37 6.044C6.83 5.732 6.23 5.576 5.57 5.576C4.898 5.576 4.292 5.732 3.752 6.044C3.224 6.344 2.804 6.776 2.492 7.34C2.192 7.904 2.042 8.546 2.042 9.266C2.042 9.986 2.192 10.628 2.492 11.192C2.804 11.756 3.224 12.194 3.752 12.506C4.292 12.806 4.898 12.956 5.57 12.956ZM20.6735 4.532L15.9395 15.134C15.5555 16.022 15.1115 16.652 14.6075 17.024C14.1035 17.396 13.4975 17.582 12.7895 17.582C12.3335 17.582 11.9075 17.51 11.5115 17.366C11.1155 17.222 10.7735 17.006 10.4855 16.718L11.0795 15.764C11.5595 16.244 12.1355 16.484 12.8075 16.484C13.2395 16.484 13.6055 16.364 13.9055 16.124C14.2175 15.884 14.5055 15.476 14.7695 14.9L15.1835 13.982L10.9535 4.532H12.2855L15.8495 12.578L19.4135 4.532H20.6735Z" fill="white"/>
</svg>
