<svg width="495" height="157" viewBox="0 0 495 157" fill="none" xmlns="http://www.w3.org/2000/svg">
<path d="M27.792 27.6C32.256 27.6 36.12 28.344 39.384 29.832C42.696 31.32 45.24 33.432 47.016 36.168C48.792 38.904 49.68 42.144 49.68 45.888C49.68 49.584 48.792 52.824 47.016 55.608C45.24 58.344 42.696 60.456 39.384 61.944C36.12 63.384 32.256 64.104 27.792 64.104H17.64V78H5.976V27.6H27.792ZM27.144 54.6C30.648 54.6 33.312 53.856 35.136 52.368C36.96 50.832 37.872 48.672 37.872 45.888C37.872 43.056 36.96 40.896 35.136 39.408C33.312 37.872 30.648 37.104 27.144 37.104H17.64V54.6H27.144ZM72.4877 38.688C78.4877 38.688 83.0957 40.128 86.3117 43.008C89.5277 45.84 91.1357 50.136 91.1357 55.896V78H80.6237V73.176C78.5117 76.776 74.5757 78.576 68.8157 78.576C65.8397 78.576 63.2477 78.072 61.0397 77.064C58.8797 76.056 57.2237 74.664 56.0717 72.888C54.9197 71.112 54.3437 69.096 54.3437 66.84C54.3437 63.24 55.6877 60.408 58.3757 58.344C61.1117 56.28 65.3117 55.248 70.9757 55.248H79.9037C79.9037 52.8 79.1597 50.928 77.6717 49.632C76.1837 48.288 73.9517 47.616 70.9757 47.616C68.9117 47.616 66.8717 47.952 64.8557 48.624C62.8877 49.248 61.2077 50.112 59.8157 51.216L55.7837 43.368C57.8957 41.88 60.4157 40.728 63.3437 39.912C66.3197 39.096 69.3677 38.688 72.4877 38.688ZM71.6237 71.016C73.5437 71.016 75.2477 70.584 76.7357 69.72C78.2237 68.808 79.2797 67.488 79.9037 65.76V61.8H72.1997C67.5917 61.8 65.2877 63.312 65.2877 66.336C65.2877 67.776 65.8397 68.928 66.9437 69.792C68.0957 70.608 69.6557 71.016 71.6237 71.016ZM114.333 78.576C111.117 78.576 107.973 78.192 104.901 77.424C101.829 76.608 99.3812 75.6 97.5572 74.4L101.301 66.336C103.029 67.44 105.117 68.352 107.565 69.072C110.013 69.744 112.413 70.08 114.765 70.08C119.517 70.08 121.893 68.904 121.893 66.552C121.893 65.448 121.245 64.656 119.949 64.176C118.653 63.696 116.661 63.288 113.973 62.952C110.805 62.472 108.189 61.92 106.125 61.296C104.061 60.672 102.261 59.568 100.725 57.984C99.2372 56.4 98.4932 54.144 98.4932 51.216C98.4932 48.768 99.1892 46.608 100.581 44.736C102.021 42.816 104.085 41.328 106.773 40.272C109.509 39.216 112.725 38.688 116.421 38.688C119.157 38.688 121.869 39 124.557 39.624C127.293 40.2 129.549 41.016 131.325 42.072L127.581 50.064C124.173 48.144 120.453 47.184 116.421 47.184C114.021 47.184 112.221 47.52 111.021 48.192C109.821 48.864 109.221 49.728 109.221 50.784C109.221 51.984 109.869 52.824 111.165 53.304C112.461 53.784 114.525 54.24 117.357 54.672C120.525 55.2 123.117 55.776 125.133 56.4C127.149 56.976 128.901 58.056 130.389 59.64C131.877 61.224 132.621 63.432 132.621 66.264C132.621 68.664 131.901 70.8 130.461 72.672C129.021 74.544 126.909 76.008 124.125 77.064C121.389 78.072 118.125 78.576 114.333 78.576ZM152.583 78.576C149.367 78.576 146.223 78.192 143.151 77.424C140.079 76.608 137.631 75.6 135.807 74.4L139.551 66.336C141.279 67.44 143.367 68.352 145.815 69.072C148.263 69.744 150.663 70.08 153.015 70.08C157.767 70.08 160.143 68.904 160.143 66.552C160.143 65.448 159.495 64.656 158.199 64.176C156.903 63.696 154.911 63.288 152.223 62.952C149.055 62.472 146.439 61.92 144.375 61.296C142.311 60.672 140.511 59.568 138.975 57.984C137.487 56.4 136.743 54.144 136.743 51.216C136.743 48.768 137.439 46.608 138.831 44.736C140.271 42.816 142.335 41.328 145.023 40.272C147.759 39.216 150.975 38.688 154.671 38.688C157.407 38.688 160.119 39 162.807 39.624C165.543 40.2 167.799 41.016 169.575 42.072L165.831 50.064C162.423 48.144 158.703 47.184 154.671 47.184C152.271 47.184 150.471 47.52 149.271 48.192C148.071 48.864 147.471 49.728 147.471 50.784C147.471 51.984 148.119 52.824 149.415 53.304C150.711 53.784 152.775 54.24 155.607 54.672C158.775 55.2 161.367 55.776 163.383 56.4C165.399 56.976 167.151 58.056 168.639 59.64C170.127 61.224 170.871 63.432 170.871 66.264C170.871 68.664 170.151 70.8 168.711 72.672C167.271 74.544 165.159 76.008 162.375 77.064C159.639 78.072 156.375 78.576 152.583 78.576ZM177.801 39.264H189.033V78H177.801V39.264ZM183.417 33.864C181.353 33.864 179.673 33.264 178.377 32.064C177.081 30.864 176.433 29.376 176.433 27.6C176.433 25.824 177.081 24.336 178.377 23.136C179.673 21.936 181.353 21.336 183.417 21.336C185.481 21.336 187.161 21.912 188.457 23.064C189.753 24.216 190.401 25.656 190.401 27.384C190.401 29.256 189.753 30.816 188.457 32.064C187.161 33.264 185.481 33.864 183.417 33.864ZM237.905 39.264L221.561 78H209.969L193.697 39.264H205.289L216.017 65.616L227.105 39.264H237.905ZM279.378 58.776C279.378 58.92 279.306 59.928 279.162 61.8H249.858C250.386 64.2 251.634 66.096 253.602 67.488C255.57 68.88 258.018 69.576 260.946 69.576C262.962 69.576 264.738 69.288 266.274 68.712C267.858 68.088 269.322 67.128 270.666 65.832L276.642 72.312C272.994 76.488 267.666 78.576 260.658 78.576C256.29 78.576 252.426 77.736 249.066 76.056C245.706 74.328 243.114 71.952 241.29 68.928C239.466 65.904 238.554 62.472 238.554 58.632C238.554 54.84 239.442 51.432 241.218 48.408C243.042 45.336 245.514 42.96 248.634 41.28C251.802 39.552 255.33 38.688 259.218 38.688C263.01 38.688 266.442 39.504 269.514 41.136C272.586 42.768 274.986 45.12 276.714 48.192C278.49 51.216 279.378 54.744 279.378 58.776ZM259.29 47.184C256.746 47.184 254.61 47.904 252.882 49.344C251.154 50.784 250.098 52.752 249.714 55.248H268.794C268.41 52.8 267.354 50.856 265.626 49.416C263.898 47.928 261.786 47.184 259.29 47.184Z" fill="url(#paint0_linear_41_318)"/>
<path d="M39.384 29.832L38.9692 30.7419L38.9742 30.7442L39.384 29.832ZM47.016 55.608L47.8548 56.1525L47.8591 56.1458L47.016 55.608ZM39.384 61.944L39.7877 62.8589L39.7938 62.8562L39.384 61.944ZM17.64 64.104V63.104H16.64V64.104H17.64ZM17.64 78V79H18.64V78H17.64ZM5.976 78H4.976V79H5.976V78ZM5.976 27.6V26.6H4.976V27.6H5.976ZM35.136 52.368L35.7681 53.1429L35.7742 53.1379L35.7801 53.1329L35.136 52.368ZM35.136 39.408L34.4919 40.1729L34.4978 40.1779L34.5039 40.1829L35.136 39.408ZM17.64 37.104V36.104H16.64V37.104H17.64ZM17.64 54.6H16.64V55.6H17.64V54.6ZM27.792 28.6C32.1469 28.6 35.8632 29.3259 38.9692 30.7419L39.7988 28.9221C36.3768 27.3621 32.3651 26.6 27.792 26.6V28.6ZM38.9742 30.7442C42.1314 32.1626 44.5175 34.1556 46.1772 36.7125L47.8548 35.6235C45.9625 32.7084 43.2607 30.4774 39.7938 28.9198L38.9742 30.7442ZM46.1772 36.7125C47.8331 39.2634 48.68 42.3079 48.68 45.888H50.68C50.68 41.98 49.7509 38.5446 47.8548 35.6235L46.1772 36.7125ZM48.68 45.888C48.68 49.4169 47.8345 52.4655 46.1729 55.0702L47.8591 56.1458C49.7495 53.1825 50.68 49.7511 50.68 45.888H48.68ZM46.1772 55.0635C44.5175 57.6204 42.1314 59.6134 38.9742 61.0318L39.7938 62.8562C43.2607 61.2986 45.9625 59.0676 47.8548 56.1525L46.1772 55.0635ZM38.9804 61.0291C35.8712 62.4008 32.1508 63.104 27.792 63.104V65.104C32.3612 65.104 36.3688 64.3672 39.7876 62.8589L38.9804 61.0291ZM27.792 63.104H17.64V65.104H27.792V63.104ZM16.64 64.104V78H18.64V64.104H16.64ZM17.64 77H5.976V79H17.64V77ZM6.976 78V27.6H4.976V78H6.976ZM5.976 28.6H27.792V26.6H5.976V28.6ZM27.144 55.6C30.7699 55.6 33.6966 54.8328 35.7681 53.1429L34.5039 51.5931C32.9274 52.8792 30.5261 53.6 27.144 53.6V55.6ZM35.7801 53.1329C37.8686 51.3742 38.872 48.9121 38.872 45.888H36.872C36.872 48.4319 36.0514 50.2898 34.4919 51.6031L35.7801 53.1329ZM38.872 45.888C38.872 42.8231 37.8726 40.35 35.7681 38.6331L34.5039 40.1829C36.0474 41.442 36.872 43.2889 36.872 45.888H38.872ZM35.7801 38.6431C33.7078 36.898 30.7761 36.104 27.144 36.104V38.104C30.5199 38.104 32.9162 38.846 34.4919 40.1729L35.7801 38.6431ZM27.144 36.104H17.64V38.104H27.144V36.104ZM16.64 37.104V54.6H18.64V37.104H16.64ZM17.64 55.6H27.144V53.6H17.64V55.6ZM86.3117 43.008L85.6445 43.753L85.6508 43.7585L86.3117 43.008ZM91.1357 78V79H92.1357V78H91.1357ZM80.6237 78H79.6237V79H80.6237V78ZM80.6237 73.176H81.6237V69.4952L79.7612 72.67L80.6237 73.176ZM61.0397 77.064L60.6168 77.9702L60.6244 77.9737L61.0397 77.064ZM56.0717 72.888L56.9106 72.3438L56.0717 72.888ZM58.3757 58.344L57.7734 57.5457L57.7667 57.5508L58.3757 58.344ZM79.9037 55.248V56.248H80.9037V55.248H79.9037ZM77.6717 49.632L77.0014 50.3741L77.0081 50.3801L77.0149 50.3861L77.6717 49.632ZM64.8557 48.624L65.1579 49.5772L65.1649 49.575L65.1719 49.5727L64.8557 48.624ZM59.8157 51.216L58.9262 51.673L59.4828 52.7563L60.4371 51.9995L59.8157 51.216ZM55.7837 43.368L55.2077 42.5505L54.4968 43.0514L54.8942 43.825L55.7837 43.368ZM63.3437 39.912L63.0793 38.9476L63.0752 38.9487L63.3437 39.912ZM76.7357 69.72L77.2378 70.5848L77.2481 70.5788L77.2582 70.5726L76.7357 69.72ZM79.9037 65.76L80.8442 66.0996L80.9037 65.935V65.76H79.9037ZM79.9037 61.8H80.9037V60.8H79.9037V61.8ZM66.9437 69.792L66.3274 70.5795L66.3462 70.5942L66.3657 70.608L66.9437 69.792ZM72.4877 39.688C78.3376 39.688 82.6728 41.0916 85.6446 43.7529L86.9788 42.263C83.5186 39.1644 78.6378 37.688 72.4877 37.688V39.688ZM85.6508 43.7585C88.5839 46.3413 90.1357 50.3193 90.1357 55.896H92.1357C92.1357 49.9527 90.4715 45.3387 86.9726 42.2575L85.6508 43.7585ZM90.1357 55.896V78H92.1357V55.896H90.1357ZM91.1357 77H80.6237V79H91.1357V77ZM81.6237 78V73.176H79.6237V78H81.6237ZM79.7612 72.67C77.8939 75.8529 74.372 77.576 68.8157 77.576V79.576C74.7794 79.576 79.1295 77.6991 81.4862 73.682L79.7612 72.67ZM68.8157 77.576C65.9513 77.576 63.5066 77.0909 61.455 76.1543L60.6244 77.9737C62.9888 79.0531 65.7281 79.576 68.8157 79.576V77.576ZM61.4626 76.1578C59.4505 75.2188 57.9482 73.9433 56.9106 72.3438L55.2327 73.4322C56.4992 75.3847 58.3089 76.8932 60.6168 77.9702L61.4626 76.1578ZM56.9106 72.3438C55.8708 70.7407 55.3437 68.9162 55.3437 66.84H53.3437C53.3437 69.2758 53.9686 71.4833 55.2327 73.4322L56.9106 72.3438ZM55.3437 66.84C55.3437 63.5283 56.5605 60.9986 58.9847 59.1371L57.7667 57.5508C54.8149 59.8174 53.3437 62.9517 53.3437 66.84H55.3437ZM58.9779 59.1423C61.4596 57.2702 65.3994 56.248 70.9757 56.248V54.248C65.224 54.248 60.7638 55.2898 57.7734 57.5457L58.9779 59.1423ZM70.9757 56.248H79.9037V54.248H70.9757V56.248ZM80.9037 55.248C80.9037 52.5862 80.0855 50.4083 78.3285 48.8779L77.0149 50.3861C78.2338 51.4477 78.9037 53.0138 78.9037 55.248H80.9037ZM78.342 48.8899C76.5986 47.3153 74.0821 46.616 70.9757 46.616V48.616C73.8213 48.616 75.7688 49.2607 77.0014 50.3741L78.342 48.8899ZM70.9757 46.616C68.801 46.616 66.6544 46.9703 64.5395 47.6753L65.1719 49.5727C67.089 48.9337 69.0223 48.616 70.9757 48.616V46.616ZM64.5534 47.6708C62.4881 48.3256 60.6956 49.2418 59.1943 50.4325L60.4371 51.9995C61.7198 50.9822 63.2873 50.1704 65.1579 49.5772L64.5534 47.6708ZM60.7052 50.759L56.6732 42.911L54.8942 43.825L58.9262 51.673L60.7052 50.759ZM56.3596 44.1855C58.3634 42.7738 60.7752 41.6659 63.6121 40.8753L63.0752 38.9487C60.0561 39.7901 57.428 40.9862 55.2077 42.5505L56.3596 44.1855ZM63.6081 40.8764C66.497 40.0843 69.456 39.688 72.4877 39.688V37.688C69.2794 37.688 66.1424 38.1077 63.0793 38.9476L63.6081 40.8764ZM71.6237 72.016C73.6992 72.016 75.5802 71.5473 77.2378 70.5848L76.2336 68.8552C74.9152 69.6207 73.3882 70.016 71.6237 70.016V72.016ZM77.2582 70.5726C78.9505 69.5354 80.1475 68.029 80.8442 66.0996L78.9631 65.4204C78.4118 66.947 77.4969 68.0806 76.2131 68.8674L77.2582 70.5726ZM80.9037 65.76V61.8H78.9037V65.76H80.9037ZM79.9037 60.8H72.1997V62.8H79.9037V60.8ZM72.1997 60.8C69.8181 60.8 67.8583 61.1849 66.467 62.0979C65.0024 63.0591 64.2877 64.5259 64.2877 66.336H66.2877C66.2877 65.1221 66.725 64.3209 67.5643 63.77C68.4771 63.1711 69.9733 62.8 72.1997 62.8V60.8ZM64.2877 66.336C64.2877 68.0738 64.9736 69.52 66.3274 70.5795L67.56 69.0045C66.7058 68.336 66.2877 67.4782 66.2877 66.336H64.2877ZM66.3657 70.608C67.7415 71.5826 69.5278 72.016 71.6237 72.016V70.016C69.7835 70.016 68.4499 69.6334 67.5217 68.976L66.3657 70.608ZM104.901 77.424L104.644 78.3905L104.652 78.3924L104.659 78.3941L104.901 77.424ZM97.5572 74.4L96.6502 73.9789L96.2869 74.7613L97.0076 75.2354L97.5572 74.4ZM101.301 66.336L101.84 65.4933L100.876 64.8776L100.394 65.9149L101.301 66.336ZM107.565 69.072L107.283 70.0314L107.292 70.0339L107.3 70.0363L107.565 69.072ZM119.949 64.176L119.602 65.1138L119.949 64.176ZM113.973 62.952L113.823 63.9407L113.836 63.9427L113.849 63.9443L113.973 62.952ZM106.125 61.296L106.415 60.3388L106.125 61.296ZM100.725 57.984L99.9963 58.6687L100.002 58.6745L100.007 58.6801L100.725 57.984ZM100.581 44.736L99.7812 44.136L99.7787 44.1393L100.581 44.736ZM106.773 40.272L106.413 39.3391L106.408 39.3412L106.773 40.272ZM124.557 39.624L124.331 40.5981L124.341 40.6004L124.351 40.6025L124.557 39.624ZM131.325 42.072L132.231 42.4962L132.615 41.6756L131.836 41.2125L131.325 42.072ZM127.581 50.064L127.09 50.9352L128.029 51.4643L128.487 50.4882L127.581 50.064ZM111.021 48.192L110.533 47.3195L111.021 48.192ZM111.165 53.304L111.513 52.3662L111.165 53.304ZM117.357 54.672L117.522 53.6855L117.508 53.6834L117.357 54.672ZM125.133 56.4L124.838 57.3553L124.848 57.3585L124.858 57.3615L125.133 56.4ZM130.389 59.64L129.66 60.3247L130.389 59.64ZM130.461 72.672L131.254 73.2817L130.461 72.672ZM124.125 77.064L124.471 78.0024L124.48 77.999L124.125 77.064ZM114.333 77.576C111.198 77.576 108.135 77.2017 105.144 76.4539L104.659 78.3941C107.811 79.1823 111.037 79.576 114.333 79.576V77.576ZM105.158 76.4575C102.147 75.6577 99.81 74.6851 98.1068 73.5646L97.0076 75.2354C98.9524 76.5149 101.511 77.5583 104.644 78.3905L105.158 76.4575ZM98.4642 74.8211L102.208 66.7571L100.394 65.9149L96.6502 73.9789L98.4642 74.8211ZM100.763 67.1787C102.587 68.3441 104.766 69.291 107.283 70.0314L107.847 68.1126C105.469 67.413 103.471 66.5359 101.84 65.4933L100.763 67.1787ZM107.3 70.0363C109.828 70.7301 112.317 71.08 114.765 71.08V69.08C112.509 69.08 110.198 68.7579 107.83 68.1077L107.3 70.0363ZM114.765 71.08C117.192 71.08 119.159 70.785 120.555 70.0942C121.267 69.7419 121.862 69.2707 122.277 68.6541C122.697 68.0307 122.893 67.3171 122.893 66.552H120.893C120.893 66.9629 120.792 67.2783 120.618 67.5369C120.44 67.8023 120.144 68.0661 119.668 68.3018C118.687 68.787 117.091 69.08 114.765 69.08V71.08ZM122.893 66.552C122.893 65.7887 122.663 65.086 122.181 64.4968C121.712 63.9231 121.055 63.5191 120.297 63.2383L119.602 65.1138C120.139 65.3129 120.455 65.5449 120.633 65.7632C120.799 65.966 120.893 66.2113 120.893 66.552H122.893ZM120.297 63.2383C118.889 62.7169 116.803 62.298 114.097 61.9597L113.849 63.9443C116.519 64.278 118.418 64.6751 119.602 65.1138L120.297 63.2383ZM114.123 61.9633C110.982 61.4874 108.417 60.9441 106.415 60.3388L105.836 62.2532C107.962 62.8959 110.629 63.4566 113.823 63.9407L114.123 61.9633ZM106.415 60.3388C104.517 59.7652 102.864 58.7528 101.443 57.2879L100.007 58.6801C101.659 60.3832 103.605 61.5788 105.836 62.2532L106.415 60.3388ZM101.454 57.2993C100.193 55.9574 99.4932 53.9797 99.4932 51.216H97.4932C97.4932 54.3083 98.281 56.8426 99.9963 58.6687L101.454 57.2993ZM99.4932 51.216C99.4932 48.9716 100.127 47.0233 101.384 45.3327L99.7787 44.1393C98.2519 46.1927 97.4932 48.5644 97.4932 51.216H99.4932ZM101.381 45.336C102.689 43.5921 104.588 42.2048 107.139 41.2027L106.408 39.3412C103.582 40.4512 101.353 42.0399 99.7812 44.136L101.381 45.336ZM107.133 41.2049C109.729 40.2031 112.818 39.688 116.421 39.688V37.688C112.633 37.688 109.29 38.2289 106.413 39.3391L107.133 41.2049ZM116.421 39.688C119.08 39.688 121.717 39.9912 124.331 40.5981L124.783 38.6499C122.022 38.0088 119.234 37.688 116.421 37.688V39.688ZM124.351 40.6025C127.015 41.1634 129.159 41.9476 130.814 42.9315L131.836 41.2125C129.939 40.0844 127.571 39.2366 124.763 38.6454L124.351 40.6025ZM130.42 41.6478L126.676 49.6398L128.487 50.4882L132.231 42.4962L130.42 41.6478ZM128.072 49.1928C124.509 47.1857 120.62 46.184 116.421 46.184V48.184C120.287 48.184 123.837 49.1023 127.09 50.9352L128.072 49.1928ZM116.421 46.184C113.961 46.184 111.955 46.5228 110.533 47.3195L111.51 49.0645C112.487 48.5172 114.082 48.184 116.421 48.184V46.184ZM110.533 47.3195C109.127 48.1066 108.221 49.2552 108.221 50.784H110.221C110.221 50.2008 110.515 49.6214 111.51 49.0645L110.533 47.3195ZM108.221 50.784C108.221 51.5746 108.439 52.3071 108.915 52.9248C109.384 53.532 110.046 53.956 110.818 54.2417L111.513 52.3662C110.988 52.172 110.679 51.936 110.499 51.7032C110.327 51.4809 110.221 51.1934 110.221 50.784H108.221ZM110.818 54.2417C112.214 54.759 114.363 55.2268 117.206 55.6606L117.508 53.6834C114.688 53.2532 112.708 52.809 111.513 52.3662L110.818 54.2417ZM117.193 55.6584C120.337 56.1824 122.881 56.7496 124.838 57.3553L125.429 55.4447C123.354 54.8024 120.714 54.2176 117.522 53.6856L117.193 55.6584ZM124.858 57.3615C126.694 57.8861 128.291 58.8672 129.66 60.3247L131.118 58.9553C129.511 57.2448 127.604 56.0659 125.408 55.4385L124.858 57.3615ZM129.66 60.3247C130.926 61.6724 131.621 63.6069 131.621 66.264H133.621C133.621 63.2571 132.828 60.7756 131.118 58.9553L129.66 60.3247ZM131.621 66.264C131.621 68.4473 130.972 70.3681 129.669 72.0623L131.254 73.2817C132.831 71.2319 133.621 68.8807 133.621 66.264H131.621ZM129.669 72.0623C128.368 73.7535 126.426 75.1218 123.771 76.129L124.48 77.999C127.392 76.8942 129.675 75.3345 131.254 73.2817L129.669 72.0623ZM123.779 76.1257C121.182 77.0827 118.041 77.576 114.333 77.576V79.576C118.21 79.576 121.597 79.0613 124.471 78.0023L123.779 76.1257ZM143.151 77.424L142.894 78.3905L142.902 78.3924L142.909 78.3941L143.151 77.424ZM135.807 74.4L134.9 73.9789L134.537 74.7613L135.258 75.2354L135.807 74.4ZM139.551 66.336L140.09 65.4933L139.126 64.8776L138.644 65.9149L139.551 66.336ZM145.815 69.072L145.533 70.0314L145.542 70.0339L145.55 70.0363L145.815 69.072ZM158.199 64.176L157.852 65.1138H157.852L158.199 64.176ZM152.223 62.952L152.073 63.9407L152.086 63.9427L152.099 63.9443L152.223 62.952ZM144.375 61.296L144.665 60.3388L144.375 61.296ZM138.975 57.984L138.246 58.6687L138.252 58.6745L138.257 58.6801L138.975 57.984ZM138.831 44.736L138.031 44.136L138.029 44.1393L138.831 44.736ZM145.023 40.272L144.663 39.3391L144.658 39.3412L145.023 40.272ZM162.807 39.624L162.581 40.5981L162.591 40.6004L162.601 40.6025L162.807 39.624ZM169.575 42.072L170.481 42.4962L170.865 41.6756L170.086 41.2125L169.575 42.072ZM165.831 50.064L165.34 50.9352L166.279 51.4643L166.737 50.4882L165.831 50.064ZM149.271 48.192L148.783 47.3195H148.783L149.271 48.192ZM149.415 53.304L149.762 52.3662L149.415 53.304ZM155.607 54.672L155.772 53.6855L155.758 53.6834L155.607 54.672ZM163.383 56.4L163.088 57.3553L163.098 57.3585L163.108 57.3615L163.383 56.4ZM168.639 59.64L167.91 60.3247L168.639 59.64ZM168.711 72.672L169.504 73.2817L168.711 72.672ZM162.375 77.064L162.721 78.0024L162.73 77.999L162.375 77.064ZM152.583 77.576C149.448 77.576 146.385 77.2017 143.394 76.4539L142.909 78.3941C146.061 79.1823 149.287 79.576 152.583 79.576V77.576ZM143.408 76.4575C140.397 75.6577 138.06 74.6851 136.357 73.5646L135.258 75.2354C137.202 76.5149 139.761 77.5583 142.894 78.3905L143.408 76.4575ZM136.714 74.8211L140.458 66.7571L138.644 65.9149L134.9 73.9789L136.714 74.8211ZM139.013 67.1787C140.837 68.3441 143.016 69.291 145.533 70.0314L146.097 68.1126C143.719 67.413 141.721 66.5359 140.09 65.4933L139.013 67.1787ZM145.55 70.0363C148.078 70.7301 150.567 71.08 153.015 71.08V69.08C150.759 69.08 148.448 68.7579 146.08 68.1077L145.55 70.0363ZM153.015 71.08C155.441 71.08 157.409 70.785 158.805 70.0942C159.517 69.7419 160.112 69.2707 160.527 68.6541C160.947 68.0307 161.143 67.3171 161.143 66.552H159.143C159.143 66.9629 159.042 67.2783 158.868 67.5369C158.69 67.8023 158.394 68.0661 157.918 68.3018C156.937 68.787 155.341 69.08 153.015 69.08V71.08ZM161.143 66.552C161.143 65.7887 160.913 65.086 160.431 64.4968C159.962 63.9231 159.305 63.5191 158.547 63.2383L157.852 65.1138C158.389 65.3129 158.705 65.5449 158.883 65.7632C159.049 65.966 159.143 66.2113 159.143 66.552H161.143ZM158.547 63.2383C157.139 62.7169 155.053 62.298 152.347 61.9597L152.099 63.9443C154.769 64.278 156.667 64.6751 157.852 65.1138L158.547 63.2383ZM152.373 61.9633C149.232 61.4874 146.667 60.9441 144.665 60.3388L144.086 62.2532C146.212 62.8959 148.879 63.4566 152.073 63.9407L152.373 61.9633ZM144.665 60.3388C142.767 59.7652 141.114 58.7528 139.693 57.2879L138.257 58.6801C139.909 60.3832 141.855 61.5788 144.086 62.2532L144.665 60.3388ZM139.704 57.2993C138.443 55.9574 137.743 53.9797 137.743 51.216H135.743C135.743 54.3083 136.531 56.8426 138.246 58.6687L139.704 57.2993ZM137.743 51.216C137.743 48.9716 138.377 47.0233 139.634 45.3327L138.029 44.1393C136.502 46.1927 135.743 48.5644 135.743 51.216H137.743ZM139.631 45.336C140.939 43.5921 142.838 42.2048 145.389 41.2027L144.658 39.3412C141.832 40.4512 139.603 42.0399 138.031 44.136L139.631 45.336ZM145.383 41.2049C147.979 40.2031 151.068 39.688 154.671 39.688V37.688C150.883 37.688 147.54 38.2289 144.663 39.3391L145.383 41.2049ZM154.671 39.688C157.33 39.688 159.967 39.9912 162.581 40.5981L163.033 38.6499C160.272 38.0088 157.484 37.688 154.671 37.688V39.688ZM162.601 40.6025C165.265 41.1634 167.409 41.9476 169.064 42.9315L170.086 41.2125C168.189 40.0844 165.821 39.2366 163.013 38.6454L162.601 40.6025ZM168.67 41.6478L164.926 49.6398L166.737 50.4882L170.481 42.4962L168.67 41.6478ZM166.322 49.1928C162.759 47.1857 158.87 46.184 154.671 46.184V48.184C158.537 48.184 162.087 49.1023 165.34 50.9352L166.322 49.1928ZM154.671 46.184C152.211 46.184 150.205 46.5228 148.783 47.3195L149.76 49.0645C150.737 48.5172 152.332 48.184 154.671 48.184V46.184ZM148.783 47.3195C147.377 48.1066 146.471 49.2552 146.471 50.784H148.471C148.471 50.2008 148.765 49.6214 149.76 49.0645L148.783 47.3195ZM146.471 50.784C146.471 51.5746 146.689 52.3071 147.165 52.9248C147.634 53.532 148.296 53.956 149.068 54.2417L149.762 52.3662C149.238 52.172 148.929 51.936 148.749 51.7032C148.577 51.4809 148.471 51.1934 148.471 50.784H146.471ZM149.068 54.2417C150.464 54.759 152.613 55.2268 155.456 55.6606L155.758 53.6834C152.938 53.2532 150.958 52.809 149.762 52.3662L149.068 54.2417ZM155.443 55.6584C158.587 56.1824 161.131 56.7496 163.088 57.3553L163.679 55.4447C161.604 54.8024 158.964 54.2176 155.772 53.6856L155.443 55.6584ZM163.108 57.3615C164.944 57.8861 166.541 58.8672 167.91 60.3247L169.368 58.9553C167.761 57.2448 165.854 56.0659 163.658 55.4385L163.108 57.3615ZM167.91 60.3247C169.176 61.6724 169.871 63.6069 169.871 66.264H171.871C171.871 63.2571 171.078 60.7756 169.368 58.9553L167.91 60.3247ZM169.871 66.264C169.871 68.4473 169.222 70.3681 167.919 72.0623L169.504 73.2817C171.081 71.2319 171.871 68.8807 171.871 66.264H169.871ZM167.919 72.0623C166.618 73.7535 164.676 75.1218 162.021 76.129L162.73 77.999C165.642 76.8942 167.925 75.3345 169.504 73.2817L167.919 72.0623ZM162.029 76.1257C159.432 77.0827 156.291 77.576 152.583 77.576V79.576C156.46 79.576 159.847 79.0613 162.721 78.0023L162.029 76.1257ZM177.801 39.264V38.264H176.801V39.264H177.801ZM189.033 39.264H190.033V38.264H189.033V39.264ZM189.033 78V79H190.033V78H189.033ZM177.801 78H176.801V79H177.801V78ZM178.377 32.064L177.698 32.7978L178.377 32.064ZM178.377 23.136L179.057 23.8698V23.8698L178.377 23.136ZM188.457 23.064L187.793 23.8114V23.8114L188.457 23.064ZM188.457 32.064L189.137 32.7978L189.144 32.7911L189.151 32.7843L188.457 32.064ZM177.801 40.264H189.033V38.264H177.801V40.264ZM188.033 39.264V78H190.033V39.264H188.033ZM189.033 77H177.801V79H189.033V77ZM178.801 78V39.264H176.801V78H178.801ZM183.417 32.864C181.56 32.864 180.137 32.3306 179.057 31.3302L177.698 32.7978C179.209 34.1974 181.147 34.864 183.417 34.864V32.864ZM179.057 31.3302C177.966 30.3207 177.433 29.0992 177.433 27.6H175.433C175.433 29.6528 176.196 31.4073 177.698 32.7978L179.057 31.3302ZM177.433 27.6C177.433 26.1008 177.966 24.8793 179.057 23.8698L177.698 22.4022C176.196 23.7927 175.433 25.5472 175.433 27.6H177.433ZM179.057 23.8698C180.137 22.8694 181.56 22.336 183.417 22.336V20.336C181.147 20.336 179.209 21.0026 177.698 22.4022L179.057 23.8698ZM183.417 22.336C185.285 22.336 186.714 22.852 187.793 23.8114L189.122 22.3166C187.609 20.9719 185.677 20.336 183.417 20.336V22.336ZM187.793 23.8114C188.876 24.7744 189.401 25.9428 189.401 27.384H191.401C191.401 25.3692 190.63 23.6576 189.122 22.3166L187.793 23.8114ZM189.401 27.384C189.401 28.9966 188.855 30.2926 187.764 31.3437L189.151 32.7843C190.651 31.3394 191.401 29.5154 191.401 27.384H189.401ZM187.778 31.3302C186.697 32.3306 185.275 32.864 183.417 32.864V34.864C185.688 34.864 187.625 34.1974 189.137 32.7978L187.778 31.3302ZM237.905 39.264L238.827 39.6527L239.413 38.264H237.905V39.264ZM221.561 78V79H222.225L222.483 78.3887L221.561 78ZM209.969 78L209.047 78.3873L209.305 79H209.969V78ZM193.697 39.264V38.264H192.193L192.775 39.6513L193.697 39.264ZM205.289 39.264L206.216 38.8869L205.962 38.264H205.289V39.264ZM216.017 65.616L215.091 65.9931L216.002 68.2307L216.939 66.0038L216.017 65.616ZM227.105 39.264V38.264H226.441L226.184 38.8762L227.105 39.264ZM236.984 38.8752L220.64 77.6113L222.483 78.3887L238.827 39.6527L236.984 38.8752ZM221.561 77H209.969V79H221.561V77ZM210.891 77.6127L194.619 38.8767L192.775 39.6513L209.047 78.3873L210.891 77.6127ZM193.697 40.264H205.289V38.264H193.697V40.264ZM204.363 39.6411L215.091 65.9931L216.944 65.2389L206.216 38.8869L204.363 39.6411ZM216.939 66.0038L228.027 39.6518L226.184 38.8762L215.096 65.2282L216.939 66.0038ZM227.105 40.264H237.905V38.264H227.105V40.264ZM279.162 61.8V62.8H280.088L280.159 61.8767L279.162 61.8ZM249.858 61.8V60.8H248.614L248.881 62.0149L249.858 61.8ZM253.602 67.488L254.179 66.6716L253.602 67.488ZM266.274 68.712L266.625 69.6483L266.633 69.6454L266.641 69.6424L266.274 68.712ZM270.666 65.832L271.401 65.1541L270.708 64.4024L269.972 65.1122L270.666 65.832ZM276.642 72.312L277.395 72.9699L277.986 72.2939L277.377 71.6341L276.642 72.312ZM249.066 76.056L248.609 76.9453L248.619 76.9504L249.066 76.056ZM241.29 68.928L240.434 69.4445L241.29 68.928ZM241.218 48.408L240.358 47.8975L240.356 47.9016L241.218 48.408ZM248.634 41.28L249.108 42.1605L249.113 42.1579L248.634 41.28ZM269.514 41.136L269.983 40.2529L269.514 41.136ZM276.714 48.192L275.842 48.6823L275.847 48.6904L275.852 48.6984L276.714 48.192ZM252.882 49.344L252.242 48.5758L252.882 49.344ZM249.714 55.248L248.726 55.0959L248.548 56.248H249.714V55.248ZM268.794 55.248V56.248H269.963L269.782 55.093L268.794 55.248ZM265.626 49.416L264.973 50.1738L264.98 50.179L264.986 50.1842L265.626 49.416ZM278.378 58.776C278.378 58.7737 278.376 58.8279 278.366 58.9836C278.358 59.1233 278.344 59.3179 278.327 59.5688C278.291 60.07 278.237 60.7879 278.165 61.7233L280.159 61.8767C280.3 60.0417 280.378 58.9707 280.378 58.776H278.378ZM279.162 60.8H249.858V62.8H279.162V60.8ZM248.881 62.0149C249.462 64.6529 250.849 66.7655 253.025 68.3044L254.179 66.6716C252.419 65.4265 251.31 63.7471 250.835 61.5851L248.881 62.0149ZM253.025 68.3044C255.195 69.8395 257.856 70.576 260.946 70.576V68.576C258.18 68.576 255.945 67.9205 254.179 66.6716L253.025 68.3044ZM260.946 70.576C263.055 70.576 264.954 70.2748 266.625 69.6483L265.923 67.7757C264.522 68.3012 262.869 68.576 260.946 68.576V70.576ZM266.641 69.6424C268.358 68.9659 269.931 67.93 271.36 66.5518L269.972 65.1122C268.713 66.326 267.358 67.2101 265.907 67.7816L266.641 69.6424ZM269.931 66.5099L275.907 72.9899L277.377 71.6341L271.401 65.1541L269.931 66.5099ZM275.889 71.6541C272.479 75.5578 267.459 77.576 260.658 77.576V79.576C267.873 79.576 273.509 77.4182 277.395 72.9699L275.889 71.6541ZM260.658 77.576C256.42 77.576 252.713 76.7617 249.513 75.1616L248.619 76.9504C252.139 78.7103 256.16 79.576 260.658 79.576V77.576ZM249.523 75.1667C246.316 73.5174 243.868 71.2655 242.146 68.4115L240.434 69.4445C242.36 72.6385 245.096 75.1386 248.609 76.9453L249.523 75.1667ZM242.146 68.4115C240.424 65.5569 239.554 62.3064 239.554 58.632H237.554C237.554 62.6376 238.508 66.2511 240.434 69.4445L242.146 68.4115ZM239.554 58.632C239.554 55.0031 240.402 51.7725 242.08 48.9144L240.356 47.9016C238.482 51.0915 237.554 54.6769 237.554 58.632H239.554ZM242.078 48.9185C243.81 46.0012 246.149 43.7537 249.108 42.1605L248.16 40.3995C244.879 42.1663 242.274 44.6708 240.358 47.8975L242.078 48.9185ZM249.113 42.1579C252.123 40.5162 255.484 39.688 259.218 39.688V37.688C255.176 37.688 251.481 38.5878 248.155 40.4021L249.113 42.1579ZM259.218 39.688C262.861 39.688 266.13 40.4706 269.045 42.0191L269.983 40.2529C266.754 38.5374 263.159 37.688 259.218 37.688V39.688ZM269.045 42.0191C271.946 43.5601 274.207 45.7747 275.842 48.6823L277.586 47.7017C275.765 44.4653 273.226 41.9759 269.983 40.2529L269.045 42.0191ZM275.852 48.6984C277.525 51.5471 278.378 54.895 278.378 58.776H280.378C280.378 54.593 279.455 50.8849 277.576 47.6856L275.852 48.6984ZM259.29 46.184C256.545 46.184 254.173 46.9664 252.242 48.5758L253.522 50.1122C255.047 48.8416 256.947 48.184 259.29 48.184V46.184ZM252.242 48.5758C250.303 50.1912 249.142 52.3907 248.726 55.0959L250.702 55.4001C251.054 53.1133 252.005 51.3768 253.522 50.1122L252.242 48.5758ZM249.714 56.248H268.794V54.248H249.714V56.248ZM269.782 55.093C269.364 52.4314 268.2 50.2594 266.266 48.6478L264.986 50.1842C266.508 51.4526 267.456 53.1686 267.806 55.403L269.782 55.093ZM266.279 48.6582C264.351 46.9988 262.001 46.184 259.29 46.184V48.184C261.571 48.184 263.445 48.8572 264.973 50.1738L266.279 48.6582Z" fill="black"/>
<path d="M297.944 76.28L297.372 78.1963L297.386 78.2007L297.401 78.2049L297.944 76.28ZM289.016 72.032L287.193 71.21L286.541 72.6556L287.8 73.6198L289.016 72.032ZM292.976 63.248L294.159 61.6352L292.168 60.175L291.153 62.426L292.976 63.248ZM300.68 67.064L301.294 65.1606L300.68 67.064ZM316.952 67.064L317.989 68.7744L318.007 68.7631L318.026 68.7513L316.952 67.064ZM317.888 60.152L316.554 61.6425L316.596 61.6793L316.639 61.7137L317.888 60.152ZM314.288 58.208L313.656 60.1054L313.665 60.1084L313.674 60.1114L314.288 58.208ZM308.384 56.624L307.922 58.5699L307.934 58.5728L308.384 56.624ZM298.952 53.888L299.65 52.0138L298.952 53.888ZM292.616 49.496L291.097 50.7976L291.106 50.8079L291.115 50.8181L292.616 49.496ZM292.4 33.512L294.059 34.6292L294.064 34.6215L294.069 34.6137L292.4 33.512ZM299.528 27.824L298.734 25.9885L298.723 25.993L299.528 27.824ZM320.696 26.888L321.181 24.9477L320.696 26.888ZM328.76 30.2L330.613 30.9532L331.246 29.3953L329.82 28.504L328.76 30.2ZM325.16 39.056L324.174 40.7958L326.155 41.9193L327.013 39.8092L325.16 39.056ZM303.92 36.68L302.811 35.0159L302.799 35.0238L302.787 35.0319L303.92 36.68ZM304.28 44.744L303.405 46.5425L303.434 46.5565L303.463 46.5696L304.28 44.744ZM312.56 47.192L313.022 45.2461L313.007 45.2425L312.991 45.239L312.56 47.192ZM321.992 49.928L322.69 48.0538L321.992 49.928ZM328.256 54.248L326.753 55.5676L326.762 55.5778L326.771 55.5879L328.256 54.248ZM328.472 70.16L326.818 69.0354L326.813 69.0428L328.472 70.16ZM321.272 75.776L320.478 73.9406L321.272 75.776ZM309.536 75.864C305.731 75.864 302.05 75.3601 298.487 74.3551L297.401 78.2049C301.326 79.3119 305.373 79.864 309.536 79.864V75.864ZM298.516 74.3637C294.975 73.3059 292.24 71.9821 290.232 70.4442L287.8 73.6198C290.304 75.5379 293.521 77.0461 297.372 78.1963L298.516 74.3637ZM290.839 72.854L294.799 64.07L291.153 62.426L287.193 71.21L290.839 72.854ZM291.793 64.8608C294.152 66.5907 296.919 67.9524 300.066 68.9674L301.294 65.1606C298.489 64.2556 296.12 63.0733 294.159 61.6352L291.793 64.8608ZM300.066 68.9674C303.23 69.9881 306.413 70.504 309.608 70.504V66.504C306.851 66.504 304.082 66.0599 301.294 65.1606L300.066 68.9674ZM309.608 70.504C313.037 70.504 315.932 70.0209 317.989 68.7744L315.915 65.3536C314.804 66.0271 312.803 66.504 309.608 66.504V70.504ZM318.026 68.7513C320.085 67.4411 321.328 65.5325 321.328 63.104H317.328C317.328 63.9395 316.987 64.6709 315.878 65.3767L318.026 68.7513ZM321.328 63.104C321.328 61.2793 320.558 59.727 319.137 58.5903L316.639 61.7137C317.138 62.113 317.328 62.5287 317.328 63.104H321.328ZM319.222 58.6615C318.052 57.615 316.585 56.8475 314.902 56.3046L313.674 60.1114C314.967 60.5285 315.9 61.057 316.554 61.6425L319.222 58.6615ZM314.92 56.3106C313.394 55.8017 311.356 55.2572 308.834 54.6752L307.934 58.5728C310.404 59.1428 312.302 59.6543 313.656 60.1054L314.92 56.3106ZM308.846 54.6781C305.05 53.7766 301.993 52.8866 299.65 52.0138L298.254 55.7622C300.807 56.7134 304.038 57.6474 307.922 58.5699L308.846 54.6781ZM299.65 52.0138C297.52 51.2203 295.681 49.9499 294.117 48.1739L291.115 50.8181C293.103 53.0741 295.488 54.7317 298.254 55.7622L299.65 52.0138ZM294.135 48.1944C292.793 46.6289 292.024 44.4449 292.024 41.432H288.024C288.024 45.1391 288.983 48.3311 291.097 50.7976L294.135 48.1944ZM292.024 41.432C292.024 38.8883 292.705 36.6398 294.059 34.6292L290.741 32.3948C288.927 35.0882 288.024 38.1197 288.024 41.432H292.024ZM294.069 34.6137C295.401 32.5951 297.445 30.924 300.333 29.655L298.723 25.993C295.275 27.508 292.567 29.6289 290.731 32.4103L294.069 34.6137ZM300.322 29.6594C303.222 28.4044 306.847 27.736 311.264 27.736V23.736C306.465 23.736 302.266 24.4596 298.734 25.9886L300.322 29.6594ZM311.264 27.736C314.319 27.736 317.3 28.1006 320.211 28.8283L321.181 24.9477C317.948 24.1394 314.641 23.736 311.264 23.736V27.736ZM320.211 28.8283C323.113 29.5537 325.6 30.5837 327.7 31.896L329.82 28.504C327.312 26.9363 324.423 25.7583 321.181 24.9477L320.211 28.8283ZM326.907 29.4468L323.307 38.3028L327.013 39.8092L330.613 30.9532L326.907 29.4468ZM326.146 37.3162C321.235 34.5315 316.243 33.096 311.192 33.096V37.096C315.453 37.096 319.773 38.3005 324.174 40.7958L326.146 37.3162ZM311.192 33.096C307.784 33.096 304.883 33.6342 302.811 35.0159L305.029 38.3441C306.125 37.6138 308.072 37.096 311.192 37.096V33.096ZM302.787 35.0319C300.759 36.4264 299.616 38.4105 299.616 40.856H303.616C303.616 39.8454 304.009 39.0456 305.053 38.3281L302.787 35.0319ZM299.616 40.856C299.616 42.0814 299.937 43.2405 300.632 44.2545C301.316 45.2532 302.284 45.9972 303.405 46.5425L305.155 42.9455C304.5 42.6268 304.136 42.2908 303.932 41.9935C303.739 41.7115 303.616 41.3586 303.616 40.856H299.616ZM303.463 46.5696C305.476 47.4702 308.396 48.3207 312.129 49.145L312.991 45.239C309.332 44.4313 306.732 43.6498 305.097 42.9184L303.463 46.5696ZM312.098 49.1379C315.894 50.0394 318.951 50.9294 321.294 51.8022L322.69 48.0538C320.137 47.1026 316.906 46.1686 313.022 45.2461L312.098 49.1379ZM321.294 51.8022C323.431 52.5984 325.243 53.8475 326.753 55.5676L329.759 52.9284C327.813 50.7125 325.449 49.0816 322.69 48.0538L321.294 51.8022ZM326.771 55.5879C328.134 57.098 328.92 59.2379 328.92 62.24H332.92C332.92 58.5221 331.93 55.334 329.741 52.9081L326.771 55.5879ZM328.92 62.24C328.92 64.7156 328.226 66.9643 326.818 69.0354L330.126 71.2846C331.982 68.5557 332.92 65.5244 332.92 62.24H328.92ZM326.813 69.0428C325.488 71.0103 323.426 72.6646 320.478 73.9406L322.066 77.6114C325.55 76.1034 328.288 74.0137 330.131 71.2772L326.813 69.0428ZM320.478 73.9406C317.578 75.1956 313.953 75.864 309.536 75.864V79.864C314.335 79.864 318.534 79.1404 322.066 77.6114L320.478 73.9406ZM400.323 38.264L402.203 38.9455L403.175 36.264H400.323V38.264ZM386.283 77V79H387.685L388.163 77.6815L386.283 77ZM375.483 77L373.603 77.6812L374.08 79H375.483V77ZM366.771 52.952L368.651 52.2708L366.801 47.1645L364.898 52.251L366.771 52.952ZM357.771 77V79H359.158L359.644 77.701L357.771 77ZM346.971 77L345.09 77.6784L345.566 79H346.971V77ZM333.003 38.264V36.264H330.156L331.122 38.9424L333.003 38.264ZM343.587 38.264L345.475 37.6051L345.007 36.264H343.587V38.264ZM352.731 64.472L350.843 65.1309L352.695 70.4389L354.611 65.1538L352.731 64.472ZM362.235 38.264V36.264H360.833L360.355 37.5822L362.235 38.264ZM371.739 38.264L373.626 37.6005L373.156 36.264H371.739V38.264ZM380.955 64.472L379.068 65.1355L380.933 70.4388L382.837 65.1493L380.955 64.472ZM390.387 38.264V36.264H388.981L388.505 37.5867L390.387 38.264ZM398.443 37.5825L384.403 76.3185L388.163 77.6815L402.203 38.9455L398.443 37.5825ZM386.283 75H375.483V79H386.283V75ZM377.363 76.3188L368.651 52.2708L364.891 53.6332L373.603 77.6812L377.363 76.3188ZM364.898 52.251L355.898 76.299L359.644 77.701L368.644 53.653L364.898 52.251ZM357.771 75H346.971V79H357.771V75ZM348.852 76.3216L334.884 37.5856L331.122 38.9424L345.09 77.6784L348.852 76.3216ZM333.003 40.264H343.587V36.264H333.003V40.264ZM341.699 38.9228L350.843 65.1309L354.619 63.8131L345.475 37.6051L341.699 38.9228ZM354.611 65.1538L364.115 38.9458L360.355 37.5822L350.851 63.7902L354.611 65.1538ZM362.235 40.264H371.739V36.264H362.235V40.264ZM369.852 38.9275L379.068 65.1355L382.842 63.8085L373.626 37.6005L369.852 38.9275ZM382.837 65.1493L392.269 38.9413L388.505 37.5867L379.073 63.7947L382.837 65.1493ZM390.387 40.264H400.323V36.264H390.387V40.264ZM434.447 42.008L433.113 43.4979L433.119 43.5035L433.125 43.509L434.447 42.008ZM439.271 77V79H441.271V77H439.271ZM428.759 77H426.759V79H428.759V77ZM428.759 72.176H430.759V64.8145L427.034 71.164L428.759 72.176ZM409.175 76.064L408.329 77.8764L408.337 77.8799L408.344 77.8834L409.175 76.064ZM404.207 71.888L405.885 70.7996L404.207 71.888ZM406.511 57.344L405.307 55.7474L405.3 55.7525L405.293 55.7577L406.511 57.344ZM428.039 54.248V56.248H430.039V54.248H428.039ZM425.807 48.632L424.466 50.1162L424.48 50.1283L424.493 50.1402L425.807 48.632ZM412.991 47.624L413.595 49.5305L413.61 49.526L413.623 49.5214L412.991 47.624ZM407.951 50.216L406.172 51.13L407.285 53.2967L409.194 51.783L407.951 50.216ZM403.919 42.368L402.767 40.733L401.345 41.7348L402.14 43.282L403.919 42.368ZM411.479 38.912L410.95 36.9832L410.942 36.9854L411.479 38.912ZM424.871 68.72L425.875 70.4496L425.896 70.4376L425.916 70.4252L424.871 68.72ZM428.039 64.76L429.92 65.4393L430.039 65.11V64.76H428.039ZM428.039 60.8H430.039V58.8H428.039V60.8ZM415.079 68.792L413.846 70.367L413.884 70.3964L413.923 70.424L415.079 68.792ZM420.623 39.688C426.323 39.688 430.385 41.0553 433.113 43.4979L435.781 40.5181C432.077 37.2007 426.923 35.688 420.623 35.688V39.688ZM433.125 43.509C435.775 45.8427 437.271 49.5026 437.271 54.896H441.271C441.271 48.7694 439.551 43.8373 435.769 40.507L433.125 43.509ZM437.271 54.896V77H441.271V54.896H437.271ZM439.271 75H428.759V79H439.271V75ZM430.759 77V72.176H426.759V77H430.759ZM427.034 71.164C425.411 73.9298 422.304 75.576 416.951 75.576V79.576C423.118 79.576 427.883 77.6222 430.484 73.188L427.034 71.164ZM416.951 75.576C414.198 75.576 411.901 75.1098 410.006 74.2446L408.344 77.8834C410.865 79.0342 413.752 79.576 416.951 79.576V75.576ZM410.021 74.2516C408.157 73.3817 406.808 72.2227 405.885 70.7996L402.529 72.9764C403.91 75.1053 405.873 76.7303 408.329 77.8764L410.021 74.2516ZM405.885 70.7996C404.957 69.3693 404.479 67.7363 404.479 65.84H400.479C400.479 68.4557 401.153 70.8547 402.529 72.9764L405.885 70.7996ZM404.479 65.84C404.479 62.8166 405.569 60.5892 407.729 58.9303L405.293 55.7577C402.077 58.2268 400.479 61.6634 400.479 65.84H404.479ZM407.715 58.9406C409.943 57.2604 413.622 56.248 419.111 56.248V52.248C413.272 52.248 408.551 53.2996 405.307 55.7474L407.715 58.9406ZM419.111 56.248H428.039V52.248H419.111V56.248ZM430.039 54.248C430.039 51.3724 429.147 48.8886 427.121 47.1238L424.493 50.1402C425.443 50.9674 426.039 52.2276 426.039 54.248H430.039ZM427.148 47.1478C425.149 45.3425 422.348 44.616 419.111 44.616V48.616C421.826 48.616 423.489 49.2335 424.466 50.1162L427.148 47.1478ZM419.111 44.616C416.826 44.616 414.572 44.9887 412.359 45.7266L413.623 49.5214C415.442 48.9153 417.268 48.616 419.111 48.616V44.616ZM412.387 45.7175C410.224 46.4033 408.319 47.3717 406.708 48.649L409.194 51.783C410.367 50.8523 411.822 50.0927 413.595 49.5305L412.387 45.7175ZM409.73 49.302L405.698 41.454L402.14 43.282L406.172 51.13L409.73 49.302ZM405.071 44.003C406.966 42.6675 409.27 41.6038 412.016 40.8386L410.942 36.9854C407.832 37.8522 405.096 39.0925 402.767 40.733L405.071 44.003ZM412.008 40.8408C414.81 40.0726 417.68 39.688 420.623 39.688V35.688C417.326 35.688 414.1 36.1194 410.95 36.9832L412.008 40.8408ZM419.759 72.016C421.99 72.016 424.048 71.5106 425.875 70.4496L423.867 66.9904C422.718 67.6574 421.368 68.016 419.759 68.016V72.016ZM425.916 70.4252C427.813 69.2629 429.151 67.57 429.92 65.4393L426.158 64.0807C425.679 65.406 424.905 66.3531 423.826 67.0148L425.916 70.4252ZM430.039 64.76V60.8H426.039V64.76H430.039ZM428.039 58.8H420.335V62.8H428.039V58.8ZM420.335 58.8C417.876 58.8 415.684 59.1919 414.054 60.2619C412.276 61.4283 411.423 63.2278 411.423 65.336H415.423C415.423 64.4202 415.722 63.9517 416.248 63.6061C416.922 63.1641 418.186 62.8 420.335 62.8V58.8ZM411.423 65.336C411.423 67.3716 412.243 69.1121 413.846 70.367L416.312 67.217C415.707 66.7439 415.423 66.1804 415.423 65.336H411.423ZM413.923 70.424C415.523 71.5571 417.535 72.016 419.759 72.016V68.016C418.047 68.016 416.939 67.6589 416.235 67.16L413.923 70.424ZM482.845 40.208L481.849 41.9427L481.866 41.9523L481.883 41.9616L482.845 40.208ZM489.829 47.192L488.08 48.1633L488.087 48.1752L489.829 47.192ZM489.829 68.144L491.57 69.1272L491.577 69.1153L489.829 68.144ZM482.845 75.128L483.818 76.875L483.828 76.8697L482.845 75.128ZM461.389 72.896L462.869 71.5518L459.389 67.7169V72.896H461.389ZM461.389 90.968V92.968H463.389V90.968H461.389ZM450.157 90.968H448.157V92.968H450.157V90.968ZM450.157 38.264V36.264H448.157V38.264H450.157ZM460.885 38.264H462.885V36.264H460.885V38.264ZM460.885 42.728H458.885V48.2765L462.425 44.004L460.885 42.728ZM478.165 65.48L476.715 64.1016L476.715 64.1025L478.165 65.48ZM478.165 49.856L476.698 51.2155L476.715 51.2341L476.732 51.2522L478.165 49.856ZM463.98 49.856L462.531 48.4776L462.531 48.4785L463.98 49.856ZM463.98 65.48L462.514 66.8395L462.531 66.8581L462.549 66.8762L463.98 65.48ZM473.053 39.688C476.327 39.688 479.244 40.4481 481.849 41.9427L483.84 38.4733C480.589 36.6079 476.978 35.688 473.053 35.688V39.688ZM481.883 41.9616C484.521 43.4086 486.58 45.4623 488.08 48.1633L491.577 46.2207C489.717 42.8737 487.12 40.2714 483.806 38.4544L481.883 41.9616ZM488.087 48.1752C489.571 50.8047 490.349 53.9349 490.349 57.632H494.349C494.349 53.3611 493.446 49.5313 491.57 46.2088L488.087 48.1752ZM490.349 57.632C490.349 61.3282 489.572 64.4883 488.08 67.1727L491.577 69.1153C493.445 65.7517 494.349 61.9038 494.349 57.632H490.349ZM488.087 67.1608C486.586 69.8196 484.52 71.8854 481.861 73.3864L483.828 76.8697C487.121 75.0106 489.711 72.4203 491.57 69.1272L488.087 67.1608ZM481.871 73.381C479.262 74.8349 476.338 75.576 473.053 75.576V79.576C476.967 79.576 480.571 78.6851 483.818 76.875L481.871 73.381ZM473.053 75.576C468.565 75.576 465.256 74.181 462.869 71.5518L459.908 74.2402C463.185 77.851 467.652 79.576 473.053 79.576V75.576ZM459.389 72.896V90.968H463.389V72.896H459.389ZM461.389 88.968H450.157V92.968H461.389V88.968ZM452.157 90.968V38.264H448.157V90.968H452.157ZM450.157 40.264H460.885V36.264H450.157V40.264ZM458.885 38.264V42.728H462.885V38.264H458.885ZM462.425 44.004C464.745 41.2034 468.175 39.688 473.053 39.688V35.688C467.274 35.688 462.592 37.5326 459.344 41.452L462.425 44.004ZM471.109 70.36C474.483 70.36 477.378 69.212 479.615 66.8575L476.715 64.1025C475.303 65.588 473.494 66.36 471.109 66.36V70.36ZM479.614 66.8584C481.908 64.446 482.973 61.2992 482.973 57.632H478.973C478.973 60.4928 478.165 62.578 476.715 64.1016L479.614 66.8584ZM482.973 57.632C482.973 53.9666 481.909 50.8314 479.597 48.4598L476.732 51.2522C478.164 52.7206 478.973 54.7694 478.973 57.632H482.973ZM479.631 48.4965C477.399 46.0877 474.5 44.904 471.109 44.904V48.904C473.477 48.904 475.282 49.6883 476.698 51.2155L479.631 48.4965ZM471.109 44.904C467.718 44.904 464.806 46.0867 462.531 48.4776L465.43 51.2344C466.899 49.6893 468.739 48.904 471.109 48.904V44.904ZM462.531 48.4785C460.275 50.8522 459.245 53.9808 459.245 57.632H463.245C463.245 54.7552 464.038 52.6998 465.43 51.2335L462.531 48.4785ZM459.245 57.632C459.245 61.2852 460.276 64.4253 462.514 66.8395L465.447 64.1205C464.037 62.5987 463.245 60.5068 463.245 57.632H459.245ZM462.549 66.8762C464.827 69.2129 467.734 70.36 471.109 70.36V66.36C468.723 66.36 466.878 65.5871 465.413 64.0838L462.549 66.8762Z" fill="url(#paint1_linear_41_318)"/>
<path d="M162.66 133.46C163.548 133.46 164.352 133.664 165.072 134.072C165.792 134.468 166.356 135.032 166.764 135.764C167.172 136.496 167.376 137.33 167.376 138.266C167.376 139.202 167.172 140.036 166.764 140.768C166.356 141.5 165.792 142.07 165.072 142.478C164.352 142.886 163.548 143.09 162.66 143.09C161.868 143.09 161.154 142.922 160.518 142.586C159.894 142.25 159.39 141.764 159.006 141.128V143H157.782V129.644H159.06V135.332C159.456 134.72 159.96 134.258 160.572 133.946C161.196 133.622 161.892 133.46 162.66 133.46ZM162.57 141.956C163.23 141.956 163.83 141.806 164.37 141.506C164.91 141.194 165.33 140.756 165.63 140.192C165.942 139.628 166.098 138.986 166.098 138.266C166.098 137.546 165.942 136.904 165.63 136.34C165.33 135.776 164.91 135.344 164.37 135.044C163.83 134.732 163.23 134.576 162.57 134.576C161.898 134.576 161.292 134.732 160.752 135.044C160.224 135.344 159.804 135.776 159.492 136.34C159.192 136.904 159.042 137.546 159.042 138.266C159.042 138.986 159.192 139.628 159.492 140.192C159.804 140.756 160.224 141.194 160.752 141.506C161.292 141.806 161.898 141.956 162.57 141.956ZM177.674 133.532L172.94 144.134C172.556 145.022 172.112 145.652 171.608 146.024C171.104 146.396 170.498 146.582 169.79 146.582C169.334 146.582 168.908 146.51 168.512 146.366C168.116 146.222 167.774 146.006 167.486 145.718L168.08 144.764C168.56 145.244 169.136 145.484 169.808 145.484C170.24 145.484 170.606 145.364 170.906 145.124C171.218 144.884 171.506 144.476 171.77 143.9L172.184 142.982L167.954 133.532H169.286L172.85 141.578L176.414 133.532H177.674Z" fill="white"/>
<path d="M203.04 128.344C204.84 128.344 206.472 128.764 207.936 129.604C209.424 130.42 210.588 131.584 211.428 133.096C212.268 134.584 212.688 136.324 212.688 138.316C212.688 140.308 212.268 142.06 211.428 143.572C210.588 145.06 209.424 146.224 207.936 147.064C206.472 147.88 204.84 148.288 203.04 148.288C200.568 148.288 198.624 147.508 197.208 145.948V154.984H191.592V128.632H196.956V130.864C198.348 129.184 200.376 128.344 203.04 128.344ZM202.068 143.68C203.508 143.68 204.684 143.2 205.596 142.24C206.532 141.256 207 139.948 207 138.316C207 136.684 206.532 135.388 205.596 134.428C204.684 133.444 203.508 132.952 202.068 132.952C200.628 132.952 199.44 133.444 198.504 134.428C197.592 135.388 197.136 136.684 197.136 138.316C197.136 139.948 197.592 141.256 198.504 142.24C199.44 143.2 200.628 143.68 202.068 143.68ZM223.943 128.344C226.943 128.344 229.247 129.064 230.855 130.504C232.463 131.92 233.267 134.068 233.267 136.948V148H228.011V145.588C226.955 147.388 224.987 148.288 222.107 148.288C220.619 148.288 219.323 148.036 218.219 147.532C217.139 147.028 216.311 146.332 215.735 145.444C215.159 144.556 214.871 143.548 214.871 142.42C214.871 140.62 215.543 139.204 216.887 138.172C218.255 137.14 220.355 136.624 223.187 136.624H227.651C227.651 135.4 227.279 134.464 226.535 133.816C225.791 133.144 224.675 132.808 223.187 132.808C222.155 132.808 221.135 132.976 220.127 133.312C219.143 133.624 218.303 134.056 217.607 134.608L215.591 130.684C216.647 129.94 217.907 129.364 219.371 128.956C220.859 128.548 222.383 128.344 223.943 128.344ZM223.511 144.508C224.471 144.508 225.323 144.292 226.067 143.86C226.811 143.404 227.339 142.744 227.651 141.88V139.9H223.799C221.495 139.9 220.343 140.656 220.343 142.168C220.343 142.888 220.619 143.464 221.171 143.896C221.747 144.304 222.527 144.508 223.511 144.508ZM244.866 148.288C243.258 148.288 241.686 148.096 240.15 147.712C238.614 147.304 237.39 146.8 236.478 146.2L238.35 142.168C239.214 142.72 240.258 143.176 241.482 143.536C242.706 143.872 243.906 144.04 245.082 144.04C247.458 144.04 248.646 143.452 248.646 142.276C248.646 141.724 248.322 141.328 247.674 141.088C247.026 140.848 246.03 140.644 244.686 140.476C243.102 140.236 241.794 139.96 240.762 139.648C239.73 139.336 238.83 138.784 238.062 137.992C237.318 137.2 236.946 136.072 236.946 134.608C236.946 133.384 237.294 132.304 237.99 131.368C238.71 130.408 239.742 129.664 241.086 129.136C242.454 128.608 244.062 128.344 245.91 128.344C247.278 128.344 248.634 128.5 249.978 128.812C251.346 129.1 252.474 129.508 253.362 130.036L251.49 134.032C249.786 133.072 247.926 132.592 245.91 132.592C244.71 132.592 243.81 132.76 243.21 133.096C242.61 133.432 242.31 133.864 242.31 134.392C242.31 134.992 242.634 135.412 243.282 135.652C243.93 135.892 244.962 136.12 246.378 136.336C247.962 136.6 249.258 136.888 250.266 137.2C251.274 137.488 252.15 138.028 252.894 138.82C253.638 139.612 254.01 140.716 254.01 142.132C254.01 143.332 253.65 144.4 252.93 145.336C252.21 146.272 251.154 147.004 249.762 147.532C248.394 148.036 246.762 148.288 244.866 148.288ZM263.991 148.288C262.383 148.288 260.811 148.096 259.275 147.712C257.739 147.304 256.515 146.8 255.603 146.2L257.475 142.168C258.339 142.72 259.383 143.176 260.607 143.536C261.831 143.872 263.031 144.04 264.207 144.04C266.583 144.04 267.771 143.452 267.771 142.276C267.771 141.724 267.447 141.328 266.799 141.088C266.151 140.848 265.155 140.644 263.811 140.476C262.227 140.236 260.919 139.96 259.887 139.648C258.855 139.336 257.955 138.784 257.187 137.992C256.443 137.2 256.071 136.072 256.071 134.608C256.071 133.384 256.419 132.304 257.115 131.368C257.835 130.408 258.867 129.664 260.211 129.136C261.579 128.608 263.187 128.344 265.035 128.344C266.403 128.344 267.759 128.5 269.103 128.812C270.471 129.1 271.599 129.508 272.487 130.036L270.615 134.032C268.911 133.072 267.051 132.592 265.035 132.592C263.835 132.592 262.935 132.76 262.335 133.096C261.735 133.432 261.435 133.864 261.435 134.392C261.435 134.992 261.759 135.412 262.407 135.652C263.055 135.892 264.087 136.12 265.503 136.336C267.087 136.6 268.383 136.888 269.391 137.2C270.399 137.488 271.275 138.028 272.019 138.82C272.763 139.612 273.135 140.716 273.135 142.132C273.135 143.332 272.775 144.4 272.055 145.336C271.335 146.272 270.279 147.004 268.887 147.532C267.519 148.036 265.887 148.288 263.991 148.288ZM276.6 128.632H282.216V148H276.6V128.632ZM279.408 125.932C278.376 125.932 277.536 125.632 276.888 125.032C276.24 124.432 275.916 123.688 275.916 122.8C275.916 121.912 276.24 121.168 276.888 120.568C277.536 119.968 278.376 119.668 279.408 119.668C280.44 119.668 281.28 119.956 281.928 120.532C282.576 121.108 282.9 121.828 282.9 122.692C282.9 123.628 282.576 124.408 281.928 125.032C281.28 125.632 280.44 125.932 279.408 125.932ZM306.652 128.632L298.48 148H292.684L284.548 128.632H290.344L295.708 141.808L301.252 128.632H306.652ZM327.388 138.388C327.388 138.46 327.352 138.964 327.28 139.9H312.628C312.892 141.1 313.516 142.048 314.5 142.744C315.484 143.44 316.708 143.788 318.172 143.788C319.18 143.788 320.068 143.644 320.836 143.356C321.628 143.044 322.36 142.564 323.032 141.916L326.02 145.156C324.196 147.244 321.532 148.288 318.028 148.288C315.844 148.288 313.912 147.868 312.232 147.028C310.552 146.164 309.256 144.976 308.344 143.464C307.432 141.952 306.976 140.236 306.976 138.316C306.976 136.42 307.42 134.716 308.308 133.204C309.22 131.668 310.456 130.48 312.016 129.64C313.6 128.776 315.364 128.344 317.308 128.344C319.204 128.344 320.92 128.752 322.456 129.568C323.992 130.384 325.192 131.56 326.056 133.096C326.944 134.608 327.388 136.372 327.388 138.388ZM317.344 132.592C316.072 132.592 315.004 132.952 314.14 133.672C313.276 134.392 312.748 135.376 312.556 136.624H322.096C321.904 135.4 321.376 134.428 320.512 133.708C319.648 132.964 318.592 132.592 317.344 132.592ZM333.251 148.288C332.267 148.288 331.439 147.952 330.767 147.28C330.095 146.608 329.759 145.768 329.759 144.76C329.759 143.728 330.095 142.9 330.767 142.276C331.439 141.628 332.267 141.304 333.251 141.304C334.235 141.304 335.063 141.628 335.735 142.276C336.407 142.9 336.743 143.728 336.743 144.76C336.743 145.768 336.407 146.608 335.735 147.28C335.063 147.952 334.235 148.288 333.251 148.288Z" fill="white"/>
<defs>
<linearGradient id="paint0_linear_41_318" x1="0" y1="8" x2="282" y2="8" gradientUnits="userSpaceOnUse">
<stop stop-color="#9328FF"/>
<stop offset="0.0001" stop-color="#9328FF"/>
<stop offset="1" stop-color="#933AEC"/>
</linearGradient>
<linearGradient id="paint1_linear_41_318" x1="287" y1="0" x2="495" y2="0" gradientUnits="userSpaceOnUse">
<stop stop-color="#E100FF"/>
<stop offset="1" stop-color="#7F00FF"/>
</linearGradient>
</defs>
</svg>
