<svg width="275" height="58" viewBox="0 0 275 58" fill="none" xmlns="http://www.w3.org/2000/svg">
<path d="M22.792 6.6C27.256 6.6 31.12 7.344 34.384 8.832C37.696 10.32 40.24 12.432 42.016 15.168C43.792 17.904 44.68 21.144 44.68 24.888C44.68 28.584 43.792 31.824 42.016 34.608C40.24 37.344 37.696 39.456 34.384 40.944C31.12 42.384 27.256 43.104 22.792 43.104H12.64V57H0.976V6.6H22.792ZM22.144 33.6C25.648 33.6 28.312 32.856 30.136 31.368C31.96 29.832 32.872 27.672 32.872 24.888C32.872 22.056 31.96 19.896 30.136 18.408C28.312 16.872 25.648 16.104 22.144 16.104H12.64V33.6H22.144ZM67.4877 17.688C73.4877 17.688 78.0957 19.128 81.3117 22.008C84.5277 24.84 86.1357 29.136 86.1357 34.896V57H75.6237V52.176C73.5117 55.776 69.5757 57.576 63.8157 57.576C60.8397 57.576 58.2477 57.072 56.0397 56.064C53.8797 55.056 52.2237 53.664 51.0717 51.888C49.9197 50.112 49.3437 48.096 49.3437 45.84C49.3437 42.24 50.6877 39.408 53.3757 37.344C56.1117 35.28 60.3117 34.248 65.9757 34.248H74.9037C74.9037 31.8 74.1597 29.928 72.6717 28.632C71.1837 27.288 68.9517 26.616 65.9757 26.616C63.9117 26.616 61.8717 26.952 59.8557 27.624C57.8877 28.248 56.2077 29.112 54.8157 30.216L50.7837 22.368C52.8957 20.88 55.4157 19.728 58.3437 18.912C61.3197 18.096 64.3677 17.688 67.4877 17.688ZM66.6237 50.016C68.5437 50.016 70.2477 49.584 71.7357 48.72C73.2237 47.808 74.2797 46.488 74.9037 44.76V40.8H67.1997C62.5917 40.8 60.2877 42.312 60.2877 45.336C60.2877 46.776 60.8397 47.928 61.9437 48.792C63.0957 49.608 64.6557 50.016 66.6237 50.016ZM109.333 57.576C106.117 57.576 102.973 57.192 99.9012 56.424C96.8292 55.608 94.3812 54.6 92.5572 53.4L96.3012 45.336C98.0292 46.44 100.117 47.352 102.565 48.072C105.013 48.744 107.413 49.08 109.765 49.08C114.517 49.08 116.893 47.904 116.893 45.552C116.893 44.448 116.245 43.656 114.949 43.176C113.653 42.696 111.661 42.288 108.973 41.952C105.805 41.472 103.189 40.92 101.125 40.296C99.0612 39.672 97.2612 38.568 95.7252 36.984C94.2372 35.4 93.4932 33.144 93.4932 30.216C93.4932 27.768 94.1892 25.608 95.5812 23.736C97.0212 21.816 99.0852 20.328 101.773 19.272C104.509 18.216 107.725 17.688 111.421 17.688C114.157 17.688 116.869 18 119.557 18.624C122.293 19.2 124.549 20.016 126.325 21.072L122.581 29.064C119.173 27.144 115.453 26.184 111.421 26.184C109.021 26.184 107.221 26.52 106.021 27.192C104.821 27.864 104.221 28.728 104.221 29.784C104.221 30.984 104.869 31.824 106.165 32.304C107.461 32.784 109.525 33.24 112.357 33.672C115.525 34.2 118.117 34.776 120.133 35.4C122.149 35.976 123.901 37.056 125.389 38.64C126.877 40.224 127.621 42.432 127.621 45.264C127.621 47.664 126.901 49.8 125.461 51.672C124.021 53.544 121.909 55.008 119.125 56.064C116.389 57.072 113.125 57.576 109.333 57.576ZM147.583 57.576C144.367 57.576 141.223 57.192 138.151 56.424C135.079 55.608 132.631 54.6 130.807 53.4L134.551 45.336C136.279 46.44 138.367 47.352 140.815 48.072C143.263 48.744 145.663 49.08 148.015 49.08C152.767 49.08 155.143 47.904 155.143 45.552C155.143 44.448 154.495 43.656 153.199 43.176C151.903 42.696 149.911 42.288 147.223 41.952C144.055 41.472 141.439 40.92 139.375 40.296C137.311 39.672 135.511 38.568 133.975 36.984C132.487 35.4 131.743 33.144 131.743 30.216C131.743 27.768 132.439 25.608 133.831 23.736C135.271 21.816 137.335 20.328 140.023 19.272C142.759 18.216 145.975 17.688 149.671 17.688C152.407 17.688 155.119 18 157.807 18.624C160.543 19.2 162.799 20.016 164.575 21.072L160.831 29.064C157.423 27.144 153.703 26.184 149.671 26.184C147.271 26.184 145.471 26.52 144.271 27.192C143.071 27.864 142.471 28.728 142.471 29.784C142.471 30.984 143.119 31.824 144.415 32.304C145.711 32.784 147.775 33.24 150.607 33.672C153.775 34.2 156.367 34.776 158.383 35.4C160.399 35.976 162.151 37.056 163.639 38.64C165.127 40.224 165.871 42.432 165.871 45.264C165.871 47.664 165.151 49.8 163.711 51.672C162.271 53.544 160.159 55.008 157.375 56.064C154.639 57.072 151.375 57.576 147.583 57.576ZM172.801 18.264H184.033V57H172.801V18.264ZM178.417 12.864C176.353 12.864 174.673 12.264 173.377 11.064C172.081 9.864 171.433 8.376 171.433 6.6C171.433 4.824 172.081 3.336 173.377 2.136C174.673 0.935997 176.353 0.335996 178.417 0.335996C180.481 0.335996 182.161 0.911997 183.457 2.064C184.753 3.216 185.401 4.656 185.401 6.384C185.401 8.256 184.753 9.816 183.457 11.064C182.161 12.264 180.481 12.864 178.417 12.864ZM232.905 18.264L216.561 57H204.969L188.697 18.264H200.289L211.017 44.616L222.105 18.264H232.905ZM274.378 37.776C274.378 37.92 274.306 38.928 274.162 40.8H244.858C245.386 43.2 246.634 45.096 248.602 46.488C250.57 47.88 253.018 48.576 255.946 48.576C257.962 48.576 259.738 48.288 261.274 47.712C262.858 47.088 264.322 46.128 265.666 44.832L271.642 51.312C267.994 55.488 262.666 57.576 255.658 57.576C251.29 57.576 247.426 56.736 244.066 55.056C240.706 53.328 238.114 50.952 236.29 47.928C234.466 44.904 233.554 41.472 233.554 37.632C233.554 33.84 234.442 30.432 236.218 27.408C238.042 24.336 240.514 21.96 243.634 20.28C246.802 18.552 250.33 17.688 254.218 17.688C258.01 17.688 261.442 18.504 264.514 20.136C267.586 21.768 269.986 24.12 271.714 27.192C273.49 30.216 274.378 33.744 274.378 37.776ZM254.29 26.184C251.746 26.184 249.61 26.904 247.882 28.344C246.154 29.784 245.098 31.752 244.714 34.248H263.794C263.41 31.8 262.354 29.856 260.626 28.416C258.898 26.928 256.786 26.184 254.29 26.184Z" fill="url(#paint0_linear_27:12)"/>
<path d="M34.384 8.832L33.9692 9.74192L33.9742 9.74417L34.384 8.832ZM42.016 34.608L42.8548 35.1525L42.8591 35.1458L42.016 34.608ZM34.384 40.944L34.7877 41.8589L34.7938 41.8562L34.384 40.944ZM12.64 43.104V42.104H11.64V43.104H12.64ZM12.64 57V58H13.64V57H12.64ZM0.976 57H-0.0239997V58H0.976V57ZM0.976 6.6V5.6H-0.0239997V6.6H0.976ZM30.136 31.368L30.7681 32.1429L30.7742 32.1379L30.7801 32.1329L30.136 31.368ZM30.136 18.408L29.4919 19.1729L29.4978 19.1779L29.5039 19.1829L30.136 18.408ZM12.64 16.104V15.104H11.64V16.104H12.64ZM12.64 33.6H11.64V34.6H12.64V33.6ZM22.792 7.6C27.1469 7.6 30.8632 8.32593 33.9692 9.74191L34.7988 7.92209C31.3768 6.36206 27.3651 5.6 22.792 5.6V7.6ZM33.9742 9.74417C37.1314 11.1626 39.5175 13.1556 41.1772 15.7125L42.8548 14.6235C40.9625 11.7084 38.2607 9.47739 34.7938 7.91983L33.9742 9.74417ZM41.1772 15.7125C42.8331 18.2634 43.68 21.3079 43.68 24.888H45.68C45.68 20.98 44.7509 17.5446 42.8548 14.6235L41.1772 15.7125ZM43.68 24.888C43.68 28.4169 42.8345 31.4655 41.1729 34.0702L42.8591 35.1458C44.7495 32.1825 45.68 28.7511 45.68 24.888H43.68ZM41.1772 34.0635C39.5175 36.6204 37.1314 38.6134 33.9742 40.0318L34.7938 41.8562C38.2607 40.2986 40.9625 38.0676 42.8548 35.1525L41.1772 34.0635ZM33.9804 40.0291C30.8712 41.4008 27.1508 42.104 22.792 42.104V44.104C27.3612 44.104 31.3688 43.3672 34.7876 41.8589L33.9804 40.0291ZM22.792 42.104H12.64V44.104H22.792V42.104ZM11.64 43.104V57H13.64V43.104H11.64ZM12.64 56H0.976V58H12.64V56ZM1.976 57V6.6H-0.0239997V57H1.976ZM0.976 7.6H22.792V5.6H0.976V7.6ZM22.144 34.6C25.7699 34.6 28.6966 33.8328 30.7681 32.1429L29.5039 30.5931C27.9274 31.8792 25.5261 32.6 22.144 32.6V34.6ZM30.7801 32.1329C32.8686 30.3742 33.872 27.9121 33.872 24.888H31.872C31.872 27.4319 31.0514 29.2898 29.4919 30.6031L30.7801 32.1329ZM33.872 24.888C33.872 21.8231 32.8726 19.35 30.7681 17.6331L29.5039 19.1829C31.0474 20.442 31.872 22.2889 31.872 24.888H33.872ZM30.7801 17.6431C28.7078 15.898 25.7761 15.104 22.144 15.104V17.104C25.5199 17.104 27.9162 17.846 29.4919 19.1729L30.7801 17.6431ZM22.144 15.104H12.64V17.104H22.144V15.104ZM11.64 16.104V33.6H13.64V16.104H11.64ZM12.64 34.6H22.144V32.6H12.64V34.6ZM81.3117 22.008L80.6445 22.753L80.6508 22.7585L81.3117 22.008ZM86.1357 57V58H87.1357V57H86.1357ZM75.6237 57H74.6237V58H75.6237V57ZM75.6237 52.176H76.6237V48.4952L74.7612 51.67L75.6237 52.176ZM56.0397 56.064L55.6168 56.9702L55.6244 56.9737L56.0397 56.064ZM51.0717 51.888L51.9106 51.3438L51.0717 51.888ZM53.3757 37.344L52.7734 36.5457L52.7667 36.5508L53.3757 37.344ZM74.9037 34.248V35.248H75.9037V34.248H74.9037ZM72.6717 28.632L72.0014 29.3741L72.0081 29.3801L72.0149 29.3861L72.6717 28.632ZM59.8557 27.624L60.1579 28.5772L60.1649 28.575L60.1719 28.5727L59.8557 27.624ZM54.8157 30.216L53.9262 30.673L54.4828 31.7563L55.4371 30.9995L54.8157 30.216ZM50.7837 22.368L50.2077 21.5505L49.4968 22.0514L49.8942 22.825L50.7837 22.368ZM58.3437 18.912L58.0793 17.9476L58.0752 17.9487L58.3437 18.912ZM71.7357 48.72L72.2378 49.5848L72.2481 49.5788L72.2582 49.5726L71.7357 48.72ZM74.9037 44.76L75.8442 45.0996L75.9037 44.935V44.76H74.9037ZM74.9037 40.8H75.9037V39.8H74.9037V40.8ZM61.9437 48.792L61.3274 49.5795L61.3462 49.5942L61.3657 49.608L61.9437 48.792ZM67.4877 18.688C73.3376 18.688 77.6728 20.0916 80.6446 22.7529L81.9788 21.263C78.5186 18.1644 73.6378 16.688 67.4877 16.688V18.688ZM80.6508 22.7585C83.5839 25.3413 85.1357 29.3193 85.1357 34.896H87.1357C87.1357 28.9527 85.4715 24.3387 81.9726 21.2575L80.6508 22.7585ZM85.1357 34.896V57H87.1357V34.896H85.1357ZM86.1357 56H75.6237V58H86.1357V56ZM76.6237 57V52.176H74.6237V57H76.6237ZM74.7612 51.67C72.8939 54.8529 69.372 56.576 63.8157 56.576V58.576C69.7794 58.576 74.1295 56.6991 76.4862 52.682L74.7612 51.67ZM63.8157 56.576C60.9513 56.576 58.5066 56.0909 56.455 55.1543L55.6244 56.9737C57.9888 58.0531 60.7281 58.576 63.8157 58.576V56.576ZM56.4626 55.1578C54.4505 54.2188 52.9482 52.9433 51.9106 51.3438L50.2327 52.4322C51.4992 54.3847 53.3089 55.8932 55.6168 56.9702L56.4626 55.1578ZM51.9106 51.3438C50.8708 49.7407 50.3437 47.9162 50.3437 45.84H48.3437C48.3437 48.2758 48.9686 50.4833 50.2327 52.4322L51.9106 51.3438ZM50.3437 45.84C50.3437 42.5283 51.5605 39.9986 53.9847 38.1371L52.7667 36.5508C49.8149 38.8174 48.3437 41.9517 48.3437 45.84H50.3437ZM53.9779 38.1423C56.4596 36.2702 60.3994 35.248 65.9757 35.248V33.248C60.224 33.248 55.7638 34.2898 52.7734 36.5457L53.9779 38.1423ZM65.9757 35.248H74.9037V33.248H65.9757V35.248ZM75.9037 34.248C75.9037 31.5862 75.0855 29.4083 73.3285 27.8779L72.0149 29.3861C73.2338 30.4477 73.9037 32.0138 73.9037 34.248H75.9037ZM73.342 27.8899C71.5986 26.3153 69.0821 25.616 65.9757 25.616V27.616C68.8213 27.616 70.7688 28.2607 72.0014 29.3741L73.342 27.8899ZM65.9757 25.616C63.801 25.616 61.6544 25.9703 59.5395 26.6753L60.1719 28.5727C62.089 27.9337 64.0223 27.616 65.9757 27.616V25.616ZM59.5534 26.6708C57.4881 27.3256 55.6956 28.2418 54.1943 29.4325L55.4371 30.9995C56.7198 29.9822 58.2873 29.1704 60.1579 28.5772L59.5534 26.6708ZM55.7052 29.759L51.6732 21.911L49.8942 22.825L53.9262 30.673L55.7052 29.759ZM51.3596 23.1855C53.3634 21.7738 55.7752 20.6659 58.6121 19.8753L58.0752 17.9487C55.0561 18.7901 52.428 19.9862 50.2077 21.5505L51.3596 23.1855ZM58.6081 19.8764C61.497 19.0843 64.456 18.688 67.4877 18.688V16.688C64.2794 16.688 61.1424 17.1077 58.0793 17.9476L58.6081 19.8764ZM66.6237 51.016C68.6992 51.016 70.5802 50.5473 72.2378 49.5848L71.2336 47.8552C69.9152 48.6207 68.3882 49.016 66.6237 49.016V51.016ZM72.2582 49.5726C73.9505 48.5354 75.1475 47.029 75.8442 45.0996L73.9631 44.4204C73.4118 45.947 72.4969 47.0806 71.2131 47.8674L72.2582 49.5726ZM75.9037 44.76V40.8H73.9037V44.76H75.9037ZM74.9037 39.8H67.1997V41.8H74.9037V39.8ZM67.1997 39.8C64.8181 39.8 62.8583 40.1849 61.467 41.0979C60.0024 42.0591 59.2877 43.5259 59.2877 45.336H61.2877C61.2877 44.1221 61.725 43.3209 62.5643 42.77C63.4771 42.1711 64.9733 41.8 67.1997 41.8V39.8ZM59.2877 45.336C59.2877 47.0738 59.9736 48.52 61.3274 49.5795L62.56 48.0045C61.7058 47.336 61.2877 46.4782 61.2877 45.336H59.2877ZM61.3657 49.608C62.7415 50.5826 64.5278 51.016 66.6237 51.016V49.016C64.7835 49.016 63.4499 48.6334 62.5217 47.976L61.3657 49.608ZM99.9012 56.424L99.6445 57.3905L99.6515 57.3924L99.6587 57.3941L99.9012 56.424ZM92.5572 53.4L91.6502 52.9789L91.2869 53.7613L92.0076 54.2354L92.5572 53.4ZM96.3012 45.336L96.8396 44.4933L95.8758 43.8776L95.3942 44.9149L96.3012 45.336ZM102.565 48.072L102.283 49.0314L102.292 49.0339L102.3 49.0363L102.565 48.072ZM114.949 43.176L114.602 44.1138L114.949 43.176ZM108.973 41.952L108.823 42.9407L108.836 42.9427L108.849 42.9443L108.973 41.952ZM101.125 40.296L101.415 39.3388L101.125 40.296ZM95.7252 36.984L94.9963 37.6687L95.0018 37.6745L95.0073 37.6801L95.7252 36.984ZM95.5812 23.736L94.7812 23.136L94.7787 23.1393L95.5812 23.736ZM101.773 19.272L101.413 18.3391L101.408 18.3412L101.773 19.272ZM119.557 18.624L119.331 19.5981L119.341 19.6004L119.351 19.6025L119.557 18.624ZM126.325 21.072L127.231 21.4962L127.615 20.6756L126.836 20.2125L126.325 21.072ZM122.581 29.064L122.09 29.9352L123.029 30.4643L123.487 29.4882L122.581 29.064ZM106.021 27.192L105.533 26.3195L106.021 27.192ZM106.165 32.304L106.513 31.3662L106.165 32.304ZM112.357 33.672L112.522 32.6855L112.508 32.6834L112.357 33.672ZM120.133 35.4L119.838 36.3553L119.848 36.3585L119.858 36.3615L120.133 35.4ZM125.389 38.64L124.66 39.3247L125.389 38.64ZM125.461 51.672L126.254 52.2817L125.461 51.672ZM119.125 56.064L119.471 57.0024L119.48 56.999L119.125 56.064ZM109.333 56.576C106.198 56.576 103.135 56.2017 100.144 55.4539L99.6587 57.3941C102.811 58.1823 106.037 58.576 109.333 58.576V56.576ZM100.158 55.4575C97.1469 54.6577 94.81 53.6851 93.1068 52.5646L92.0076 54.2354C93.9524 55.5149 96.5114 56.5583 99.6445 57.3905L100.158 55.4575ZM93.4642 53.8211L97.2082 45.7571L95.3942 44.9149L91.6502 52.9789L93.4642 53.8211ZM95.7628 46.1787C97.5869 47.3441 99.7656 48.291 102.283 49.0314L102.847 47.1126C100.469 46.413 98.4715 45.5359 96.8396 44.4933L95.7628 46.1787ZM102.3 49.0363C104.828 49.7301 107.317 50.08 109.765 50.08V48.08C107.509 48.08 105.198 47.7579 102.83 47.1077L102.3 49.0363ZM109.765 50.08C112.192 50.08 114.159 49.785 115.555 49.0942C116.267 48.7419 116.862 48.2707 117.277 47.6541C117.697 47.0307 117.893 46.3171 117.893 45.552H115.893C115.893 45.9629 115.792 46.2783 115.618 46.5369C115.44 46.8023 115.144 47.0661 114.668 47.3018C113.687 47.787 112.091 48.08 109.765 48.08V50.08ZM117.893 45.552C117.893 44.7887 117.663 44.086 117.181 43.4968C116.712 42.9231 116.055 42.5191 115.297 42.2383L114.602 44.1138C115.139 44.3129 115.455 44.5449 115.633 44.7632C115.799 44.966 115.893 45.2113 115.893 45.552H117.893ZM115.297 42.2383C113.889 41.7169 111.803 41.298 109.097 40.9597L108.849 42.9443C111.519 43.278 113.418 43.6751 114.602 44.1138L115.297 42.2383ZM109.123 40.9633C105.982 40.4874 103.417 39.9441 101.415 39.3388L100.836 41.2532C102.962 41.8959 105.629 42.4566 108.823 42.9407L109.123 40.9633ZM101.415 39.3388C99.5172 38.7652 97.8636 37.7528 96.4431 36.2879L95.0073 37.6801C96.6587 39.3832 98.6052 40.5788 100.836 41.2532L101.415 39.3388ZM96.454 36.2993C95.1934 34.9574 94.4932 32.9797 94.4932 30.216H92.4932C92.4932 33.3083 93.281 35.8426 94.9963 37.6687L96.454 36.2993ZM94.4932 30.216C94.4932 27.9716 95.1265 26.0233 96.3837 24.3327L94.7787 23.1393C93.2519 25.1927 92.4932 27.5644 92.4932 30.216H94.4932ZM96.3812 24.336C97.6891 22.5921 99.5882 21.2048 102.139 20.2027L101.408 18.3412C98.5822 19.4512 96.3533 21.0399 94.7812 23.136L96.3812 24.336ZM102.133 20.2049C104.729 19.2031 107.818 18.688 111.421 18.688V16.688C107.633 16.688 104.29 17.2289 101.413 18.3391L102.133 20.2049ZM111.421 18.688C114.08 18.688 116.717 18.9912 119.331 19.5981L119.783 17.6499C117.022 17.0088 114.234 16.688 111.421 16.688V18.688ZM119.351 19.6025C122.015 20.1634 124.159 20.9476 125.814 21.9315L126.836 20.2125C124.939 19.0844 122.571 18.2366 119.763 17.6454L119.351 19.6025ZM125.42 20.6478L121.676 28.6398L123.487 29.4882L127.231 21.4962L125.42 20.6478ZM123.072 28.1928C119.509 26.1857 115.62 25.184 111.421 25.184V27.184C115.287 27.184 118.837 28.1023 122.09 29.9352L123.072 28.1928ZM111.421 25.184C108.961 25.184 106.955 25.5228 105.533 26.3195L106.51 28.0645C107.487 27.5172 109.082 27.184 111.421 27.184V25.184ZM105.533 26.3195C104.127 27.1066 103.221 28.2552 103.221 29.784H105.221C105.221 29.2008 105.515 28.6214 106.51 28.0645L105.533 26.3195ZM103.221 29.784C103.221 30.5746 103.439 31.3071 103.915 31.9248C104.384 32.532 105.046 32.956 105.818 33.2417L106.513 31.3662C105.988 31.172 105.679 30.936 105.499 30.7032C105.327 30.4809 105.221 30.1934 105.221 29.784H103.221ZM105.818 33.2417C107.214 33.759 109.363 34.2268 112.206 34.6606L112.508 32.6834C109.688 32.2532 107.708 31.809 106.513 31.3662L105.818 33.2417ZM112.193 34.6584C115.337 35.1824 117.881 35.7496 119.838 36.3553L120.429 34.4447C118.354 33.8024 115.714 33.2176 112.522 32.6856L112.193 34.6584ZM119.858 36.3615C121.694 36.8861 123.291 37.8672 124.66 39.3247L126.118 37.9553C124.511 36.2448 122.604 35.0659 120.408 34.4385L119.858 36.3615ZM124.66 39.3247C125.926 40.6724 126.621 42.6069 126.621 45.264H128.621C128.621 42.2571 127.828 39.7756 126.118 37.9553L124.66 39.3247ZM126.621 45.264C126.621 47.4473 125.972 49.3681 124.669 51.0623L126.254 52.2817C127.831 50.2319 128.621 47.8807 128.621 45.264H126.621ZM124.669 51.0623C123.368 52.7535 121.426 54.1218 118.771 55.129L119.48 56.999C122.392 55.8942 124.675 54.3345 126.254 52.2817L124.669 51.0623ZM118.779 55.1257C116.182 56.0827 113.041 56.576 109.333 56.576V58.576C113.21 58.576 116.597 58.0613 119.471 57.0023L118.779 55.1257ZM138.151 56.424L137.894 57.3905L137.902 57.3924L137.909 57.3941L138.151 56.424ZM130.807 53.4L129.9 52.9789L129.537 53.7613L130.258 54.2354L130.807 53.4ZM134.551 45.336L135.09 44.4933L134.126 43.8776L133.644 44.9149L134.551 45.336ZM140.815 48.072L140.533 49.0314L140.542 49.0339L140.55 49.0363L140.815 48.072ZM153.199 43.176L152.852 44.1138H152.852L153.199 43.176ZM147.223 41.952L147.073 42.9407L147.086 42.9427L147.099 42.9443L147.223 41.952ZM139.375 40.296L139.665 39.3388L139.375 40.296ZM133.975 36.984L133.246 37.6687L133.252 37.6745L133.257 37.6801L133.975 36.984ZM133.831 23.736L133.031 23.136L133.029 23.1393L133.831 23.736ZM140.023 19.272L139.663 18.3391L139.658 18.3412L140.023 19.272ZM157.807 18.624L157.581 19.5981L157.591 19.6004L157.601 19.6025L157.807 18.624ZM164.575 21.072L165.481 21.4962L165.865 20.6756L165.086 20.2125L164.575 21.072ZM160.831 29.064L160.34 29.9352L161.279 30.4643L161.737 29.4882L160.831 29.064ZM144.271 27.192L143.783 26.3195H143.783L144.271 27.192ZM144.415 32.304L144.762 31.3662L144.415 32.304ZM150.607 33.672L150.772 32.6855L150.758 32.6834L150.607 33.672ZM158.383 35.4L158.088 36.3553L158.098 36.3585L158.108 36.3615L158.383 35.4ZM163.639 38.64L162.91 39.3247L163.639 38.64ZM163.711 51.672L164.504 52.2817L163.711 51.672ZM157.375 56.064L157.721 57.0024L157.73 56.999L157.375 56.064ZM147.583 56.576C144.448 56.576 141.385 56.2017 138.394 55.4539L137.909 57.3941C141.061 58.1823 144.287 58.576 147.583 58.576V56.576ZM138.408 55.4575C135.397 54.6577 133.06 53.6851 131.357 52.5646L130.258 54.2354C132.202 55.5149 134.761 56.5583 137.894 57.3905L138.408 55.4575ZM131.714 53.8211L135.458 45.7571L133.644 44.9149L129.9 52.9789L131.714 53.8211ZM134.013 46.1787C135.837 47.3441 138.016 48.291 140.533 49.0314L141.097 47.1126C138.719 46.413 136.721 45.5359 135.09 44.4933L134.013 46.1787ZM140.55 49.0363C143.078 49.7301 145.567 50.08 148.015 50.08V48.08C145.759 48.08 143.448 47.7579 141.08 47.1077L140.55 49.0363ZM148.015 50.08C150.441 50.08 152.409 49.785 153.805 49.0942C154.517 48.7419 155.112 48.2707 155.527 47.6541C155.947 47.0307 156.143 46.3171 156.143 45.552H154.143C154.143 45.9629 154.042 46.2783 153.868 46.5369C153.69 46.8023 153.394 47.0661 152.918 47.3018C151.937 47.787 150.341 48.08 148.015 48.08V50.08ZM156.143 45.552C156.143 44.7887 155.913 44.086 155.431 43.4968C154.962 42.9231 154.305 42.5191 153.547 42.2383L152.852 44.1138C153.389 44.3129 153.705 44.5449 153.883 44.7632C154.049 44.966 154.143 45.2113 154.143 45.552H156.143ZM153.547 42.2383C152.139 41.7169 150.053 41.298 147.347 40.9597L147.099 42.9443C149.769 43.278 151.667 43.6751 152.852 44.1138L153.547 42.2383ZM147.373 40.9633C144.232 40.4874 141.667 39.9441 139.665 39.3388L139.086 41.2532C141.212 41.8959 143.879 42.4566 147.073 42.9407L147.373 40.9633ZM139.665 39.3388C137.767 38.7652 136.114 37.7528 134.693 36.2879L133.257 37.6801C134.909 39.3832 136.855 40.5788 139.086 41.2532L139.665 39.3388ZM134.704 36.2993C133.443 34.9574 132.743 32.9797 132.743 30.216H130.743C130.743 33.3083 131.531 35.8426 133.246 37.6687L134.704 36.2993ZM132.743 30.216C132.743 27.9716 133.377 26.0233 134.634 24.3327L133.029 23.1393C131.502 25.1927 130.743 27.5644 130.743 30.216H132.743ZM134.631 24.336C135.939 22.5921 137.838 21.2048 140.389 20.2027L139.658 18.3412C136.832 19.4512 134.603 21.0399 133.031 23.136L134.631 24.336ZM140.383 20.2049C142.979 19.2031 146.068 18.688 149.671 18.688V16.688C145.883 16.688 142.54 17.2289 139.663 18.3391L140.383 20.2049ZM149.671 18.688C152.33 18.688 154.967 18.9912 157.581 19.5981L158.033 17.6499C155.272 17.0088 152.484 16.688 149.671 16.688V18.688ZM157.601 19.6025C160.265 20.1634 162.409 20.9476 164.064 21.9315L165.086 20.2125C163.189 19.0844 160.821 18.2366 158.013 17.6454L157.601 19.6025ZM163.67 20.6478L159.926 28.6398L161.737 29.4882L165.481 21.4962L163.67 20.6478ZM161.322 28.1928C157.759 26.1857 153.87 25.184 149.671 25.184V27.184C153.537 27.184 157.087 28.1023 160.34 29.9352L161.322 28.1928ZM149.671 25.184C147.211 25.184 145.205 25.5228 143.783 26.3195L144.76 28.0645C145.737 27.5172 147.332 27.184 149.671 27.184V25.184ZM143.783 26.3195C142.377 27.1066 141.471 28.2552 141.471 29.784H143.471C143.471 29.2008 143.765 28.6214 144.76 28.0645L143.783 26.3195ZM141.471 29.784C141.471 30.5746 141.689 31.3071 142.165 31.9248C142.634 32.532 143.296 32.956 144.068 33.2417L144.762 31.3662C144.238 31.172 143.929 30.936 143.749 30.7032C143.577 30.4809 143.471 30.1934 143.471 29.784H141.471ZM144.068 33.2417C145.464 33.759 147.613 34.2268 150.456 34.6606L150.758 32.6834C147.938 32.2532 145.958 31.809 144.762 31.3662L144.068 33.2417ZM150.443 34.6584C153.587 35.1824 156.131 35.7496 158.088 36.3553L158.679 34.4447C156.604 33.8024 153.964 33.2176 150.772 32.6856L150.443 34.6584ZM158.108 36.3615C159.944 36.8861 161.541 37.8672 162.91 39.3247L164.368 37.9553C162.761 36.2448 160.854 35.0659 158.658 34.4385L158.108 36.3615ZM162.91 39.3247C164.176 40.6724 164.871 42.6069 164.871 45.264H166.871C166.871 42.2571 166.078 39.7756 164.368 37.9553L162.91 39.3247ZM164.871 45.264C164.871 47.4473 164.222 49.3681 162.919 51.0623L164.504 52.2817C166.081 50.2319 166.871 47.8807 166.871 45.264H164.871ZM162.919 51.0623C161.618 52.7535 159.676 54.1218 157.021 55.129L157.73 56.999C160.642 55.8942 162.925 54.3345 164.504 52.2817L162.919 51.0623ZM157.029 55.1257C154.432 56.0827 151.291 56.576 147.583 56.576V58.576C151.46 58.576 154.847 58.0613 157.721 57.0023L157.029 55.1257ZM172.801 18.264V17.264H171.801V18.264H172.801ZM184.033 18.264H185.033V17.264H184.033V18.264ZM184.033 57V58H185.033V57H184.033ZM172.801 57H171.801V58H172.801V57ZM173.377 11.064L172.698 11.7978L173.377 11.064ZM173.377 2.136L174.057 2.86976V2.86976L173.377 2.136ZM183.457 2.064L182.793 2.81141V2.81141L183.457 2.064ZM183.457 11.064L184.137 11.7978L184.144 11.7911L184.151 11.7843L183.457 11.064ZM172.801 19.264H184.033V17.264H172.801V19.264ZM183.033 18.264V57H185.033V18.264H183.033ZM184.033 56H172.801V58H184.033V56ZM173.801 57V18.264H171.801V57H173.801ZM178.417 11.864C176.56 11.864 175.137 11.3306 174.057 10.3302L172.698 11.7978C174.209 13.1974 176.147 13.864 178.417 13.864V11.864ZM174.057 10.3302C172.966 9.32068 172.433 8.09919 172.433 6.6H170.433C170.433 8.65281 171.196 10.4073 172.698 11.7978L174.057 10.3302ZM172.433 6.6C172.433 5.10081 172.966 3.87931 174.057 2.86976L172.698 1.40224C171.196 2.79268 170.433 4.54719 170.433 6.6H172.433ZM174.057 2.86976C175.137 1.86939 176.56 1.336 178.417 1.336V-0.664004C176.147 -0.664004 174.209 0.00260544 172.698 1.40224L174.057 2.86976ZM178.417 1.336C180.285 1.336 181.714 1.85205 182.793 2.81141L184.122 1.31659C182.609 -0.0280552 180.677 -0.664004 178.417 -0.664004V1.336ZM182.793 2.81141C183.876 3.77439 184.401 4.94277 184.401 6.384H186.401C186.401 4.36923 185.63 2.6576 184.122 1.31659L182.793 2.81141ZM184.401 6.384C184.401 7.99658 183.855 9.29257 182.764 10.3437L184.151 11.7843C185.651 10.3394 186.401 8.51542 186.401 6.384H184.401ZM182.778 10.3302C181.697 11.3306 180.275 11.864 178.417 11.864V13.864C180.688 13.864 182.625 13.1974 184.137 11.7978L182.778 10.3302ZM232.905 18.264L233.827 18.6527L234.413 17.264H232.905V18.264ZM216.561 57V58H217.225L217.483 57.3887L216.561 57ZM204.969 57L204.047 57.3873L204.305 58H204.969V57ZM188.697 18.264V17.264H187.193L187.775 18.6513L188.697 18.264ZM200.289 18.264L201.216 17.8869L200.962 17.264H200.289V18.264ZM211.017 44.616L210.091 44.9931L211.002 47.2307L211.939 45.0038L211.017 44.616ZM222.105 18.264V17.264H221.441L221.184 17.8762L222.105 18.264ZM231.984 17.8752L215.64 56.6113L217.483 57.3887L233.827 18.6527L231.984 17.8752ZM216.561 56H204.969V58H216.561V56ZM205.891 56.6127L189.619 17.8767L187.775 18.6513L204.047 57.3873L205.891 56.6127ZM188.697 19.264H200.289V17.264H188.697V19.264ZM199.363 18.6411L210.091 44.9931L211.944 44.2389L201.216 17.8869L199.363 18.6411ZM211.939 45.0038L223.027 18.6518L221.184 17.8762L210.096 44.2282L211.939 45.0038ZM222.105 19.264H232.905V17.264H222.105V19.264ZM274.162 40.8V41.8H275.088L275.159 40.8767L274.162 40.8ZM244.858 40.8V39.8H243.614L243.881 41.0149L244.858 40.8ZM248.602 46.488L249.179 45.6716L248.602 46.488ZM261.274 47.712L261.625 48.6483L261.633 48.6454L261.641 48.6424L261.274 47.712ZM265.666 44.832L266.401 44.1541L265.708 43.4024L264.972 44.1122L265.666 44.832ZM271.642 51.312L272.395 51.9699L272.986 51.2939L272.377 50.6341L271.642 51.312ZM244.066 55.056L243.609 55.9453L243.619 55.9504L244.066 55.056ZM236.29 47.928L235.434 48.4445L236.29 47.928ZM236.218 27.408L235.358 26.8975L235.356 26.9016L236.218 27.408ZM243.634 20.28L244.108 21.1605L244.113 21.1579L243.634 20.28ZM264.514 20.136L264.983 19.2529L264.514 20.136ZM271.714 27.192L270.842 27.6823L270.847 27.6904L270.852 27.6984L271.714 27.192ZM247.882 28.344L247.242 27.5758L247.882 28.344ZM244.714 34.248L243.726 34.0959L243.548 35.248H244.714V34.248ZM263.794 34.248V35.248H264.963L264.782 34.093L263.794 34.248ZM260.626 28.416L259.973 29.1738L259.98 29.179L259.986 29.1842L260.626 28.416ZM273.378 37.776C273.378 37.7737 273.376 37.8279 273.366 37.9836C273.358 38.1233 273.344 38.3179 273.327 38.5688C273.291 39.07 273.237 39.7879 273.165 40.7233L275.159 40.8767C275.3 39.0417 275.378 37.9707 275.378 37.776H273.378ZM274.162 39.8H244.858V41.8H274.162V39.8ZM243.881 41.0149C244.462 43.6529 245.849 45.7655 248.025 47.3044L249.179 45.6716C247.419 44.4265 246.31 42.7471 245.835 40.5851L243.881 41.0149ZM248.025 47.3044C250.195 48.8395 252.856 49.576 255.946 49.576V47.576C253.18 47.576 250.945 46.9205 249.179 45.6716L248.025 47.3044ZM255.946 49.576C258.055 49.576 259.954 49.2748 261.625 48.6483L260.923 46.7757C259.522 47.3012 257.869 47.576 255.946 47.576V49.576ZM261.641 48.6424C263.358 47.9659 264.931 46.93 266.36 45.5518L264.972 44.1122C263.713 45.326 262.358 46.2101 260.907 46.7816L261.641 48.6424ZM264.931 45.5099L270.907 51.9899L272.377 50.6341L266.401 44.1541L264.931 45.5099ZM270.889 50.6541C267.479 54.5578 262.459 56.576 255.658 56.576V58.576C262.873 58.576 268.509 56.4182 272.395 51.9699L270.889 50.6541ZM255.658 56.576C251.42 56.576 247.713 55.7617 244.513 54.1616L243.619 55.9504C247.139 57.7103 251.16 58.576 255.658 58.576V56.576ZM244.523 54.1667C241.316 52.5174 238.868 50.2655 237.146 47.4115L235.434 48.4445C237.36 51.6385 240.096 54.1386 243.609 55.9453L244.523 54.1667ZM237.146 47.4115C235.424 44.5569 234.554 41.3064 234.554 37.632H232.554C232.554 41.6376 233.508 45.2511 235.434 48.4445L237.146 47.4115ZM234.554 37.632C234.554 34.0031 235.402 30.7725 237.08 27.9144L235.356 26.9016C233.482 30.0915 232.554 33.6769 232.554 37.632H234.554ZM237.078 27.9185C238.81 25.0012 241.149 22.7537 244.108 21.1605L243.16 19.3995C239.879 21.1663 237.274 23.6708 235.358 26.8975L237.078 27.9185ZM244.113 21.1579C247.123 19.5162 250.484 18.688 254.218 18.688V16.688C250.176 16.688 246.481 17.5878 243.155 19.4021L244.113 21.1579ZM254.218 18.688C257.861 18.688 261.13 19.4706 264.045 21.0191L264.983 19.2529C261.754 17.5374 258.159 16.688 254.218 16.688V18.688ZM264.045 21.0191C266.946 22.5601 269.207 24.7747 270.842 27.6823L272.586 26.7017C270.765 23.4653 268.226 20.9759 264.983 19.2529L264.045 21.0191ZM270.852 27.6984C272.525 30.5471 273.378 33.895 273.378 37.776H275.378C275.378 33.593 274.455 29.8849 272.576 26.6856L270.852 27.6984ZM254.29 25.184C251.545 25.184 249.173 25.9664 247.242 27.5758L248.522 29.1122C250.047 27.8416 251.947 27.184 254.29 27.184V25.184ZM247.242 27.5758C245.303 29.1912 244.142 31.3907 243.726 34.0959L245.702 34.4001C246.054 32.1133 247.005 30.3768 248.522 29.1122L247.242 27.5758ZM244.714 35.248H263.794V33.248H244.714V35.248ZM264.782 34.093C264.364 31.4314 263.2 29.2594 261.266 27.6478L259.986 29.1842C261.508 30.4526 262.456 32.1686 262.806 34.403L264.782 34.093ZM261.279 27.6582C259.351 25.9988 257.001 25.184 254.29 25.184V27.184C256.571 27.184 258.445 27.8572 259.973 29.1738L261.279 27.6582Z" fill="black"/>
<defs>
<linearGradient id="paint0_linear_27:12" x1="-5" y1="-13" x2="277" y2="-13" gradientUnits="userSpaceOnUse">
<stop stop-color="#9328FF"/>
<stop offset="0.0001" stop-color="#9328FF"/>
<stop offset="1" stop-color="#933AEC"/>
</linearGradient>
</defs>
</svg>
