<svg width="204" height="66" viewBox="0 0 204 66" fill="none" xmlns="http://www.w3.org/2000/svg">
<path d="M8.944 51.28L8.37159 53.1963L8.3863 53.2007L8.40108 53.2049L8.944 51.28ZM0.016 47.032L-1.80728 46.21L-2.45896 47.6556L-1.20015 48.6198L0.016 47.032ZM3.976 38.248L5.15873 36.6352L3.16753 35.175L2.15272 37.426L3.976 38.248ZM11.68 42.064L12.294 40.1606L11.68 42.064ZM27.952 42.064L28.9886 43.7744L29.0073 43.7631L29.0258 43.7513L27.952 42.064ZM28.888 35.152L27.5544 36.6425L27.5955 36.6793L27.6386 36.7137L28.888 35.152ZM25.288 33.208L24.6555 35.1054L24.6648 35.1084L24.674 35.1114L25.288 33.208ZM19.384 31.624L18.9218 33.5699L18.9343 33.5728L19.384 31.624ZM9.952 28.888L10.6502 27.0138L9.952 28.888ZM3.616 24.496L2.09749 25.7976L2.10631 25.8079L2.11528 25.8181L3.616 24.496ZM3.4 8.512L5.05887 9.6292L5.06408 9.62146L5.06922 9.61368L3.4 8.512ZM10.528 2.824L9.73354 0.988525L9.72345 0.992958L10.528 2.824ZM31.696 1.888L32.1811 -0.0522881L31.696 1.888ZM39.76 5.2L41.6128 5.95316L42.2461 4.39528L40.82 3.504L39.76 5.2ZM36.16 14.056L35.1735 15.7958L37.155 16.9193L38.0128 14.8092L36.16 14.056ZM14.92 11.68L13.8106 10.0159L13.7987 10.0238L13.7869 10.0319L14.92 11.68ZM15.28 19.744L14.4051 21.5425L14.434 21.5565L14.4633 21.5696L15.28 19.744ZM23.56 22.192L24.0221 20.2461L24.0067 20.2425L23.9912 20.239L23.56 22.192ZM32.992 24.928L33.6902 23.0538L32.992 24.928ZM39.256 29.248L37.7531 30.5676L37.7621 30.5778L37.7712 30.5879L39.256 29.248ZM39.472 45.16L37.8181 44.0354L37.8131 44.0428L39.472 45.16ZM32.272 50.776L31.4776 48.9406L32.272 50.776ZM20.536 50.864C16.7311 50.864 13.05 50.3601 9.48692 49.3551L8.40108 53.2049C12.326 54.3119 16.3729 54.864 20.536 54.864V50.864ZM9.51641 49.3637C5.97536 48.3059 3.23992 46.9821 1.23215 45.4442L-1.20015 48.6198C1.30408 50.5379 4.52064 52.0461 8.37159 53.1963L9.51641 49.3637ZM1.83928 47.854L5.79928 39.07L2.15272 37.426L-1.80728 46.21L1.83928 47.854ZM2.79327 39.8608C5.15222 41.5907 7.91944 42.9524 11.066 43.9674L12.294 40.1606C9.48856 39.2556 7.11978 38.0733 5.15873 36.6352L2.79327 39.8608ZM11.066 43.9674C14.2303 44.9881 17.4132 45.504 20.608 45.504V41.504C17.8508 41.504 15.0817 41.0599 12.294 40.1606L11.066 43.9674ZM20.608 45.504C24.0368 45.504 26.9319 45.0209 28.9886 43.7744L26.9154 40.3536C25.8041 41.0271 23.8032 41.504 20.608 41.504V45.504ZM29.0258 43.7513C31.0847 42.4411 32.328 40.5325 32.328 38.104H28.328C28.328 38.9395 27.9873 39.6709 26.8783 40.3767L29.0258 43.7513ZM32.328 38.104C32.328 36.2793 31.5583 34.727 30.1374 33.5903L27.6386 36.7137C28.1377 37.113 28.328 37.5287 28.328 38.104H32.328ZM30.2216 33.6615C29.0519 32.615 27.585 31.8475 25.902 31.3046L24.674 35.1114C25.967 35.5285 26.9001 36.057 27.5544 36.6425L30.2216 33.6615ZM25.9205 31.3106C24.3935 30.8017 22.3557 30.2572 19.8337 29.6752L18.9343 33.5728C21.4043 34.1428 23.3025 34.6543 24.6555 35.1054L25.9205 31.3106ZM19.8461 29.6781C16.0502 28.7766 12.9928 27.8866 10.6502 27.0138L9.25378 30.7622C11.8072 31.7134 15.0378 32.6474 18.9219 33.5699L19.8461 29.6781ZM10.6502 27.0138C8.52014 26.2203 6.68125 24.9499 5.11672 23.1739L2.11528 25.8181C4.10275 28.0741 6.48786 29.7317 9.25378 30.7622L10.6502 27.0138ZM5.13451 23.1944C3.79265 21.6289 3.024 19.4449 3.024 16.432H-0.976C-0.976 20.1391 -0.0166477 23.3311 2.09749 25.7976L5.13451 23.1944ZM3.024 16.432C3.024 13.8883 3.70478 11.6398 5.05887 9.6292L1.74113 7.3948C-0.072782 10.0882 -0.976 13.1197 -0.976 16.432H3.024ZM5.06922 9.61368C6.40145 7.59514 8.44453 5.92402 11.3325 4.65504L9.72345 0.992958C6.27547 2.50798 3.56655 4.62885 1.73078 7.41031L5.06922 9.61368ZM11.3224 4.65944C14.222 3.40439 17.8473 2.736 22.264 2.736V-1.264C17.4647 -1.264 13.266 -0.540396 9.73355 0.988554L11.3224 4.65944ZM22.264 2.736C25.319 2.736 28.3 3.10056 31.2109 3.82828L32.1811 -0.0522881C28.948 -0.860565 25.641 -1.264 22.264 -1.264V2.736ZM31.2109 3.82828C34.1125 4.55368 36.6003 5.58366 38.7 6.89599L40.82 3.504C38.3117 1.93634 35.4235 0.758316 32.1811 -0.0522881L31.2109 3.82828ZM37.9072 4.44684L34.3072 13.3028L38.0128 14.8092L41.6128 5.95316L37.9072 4.44684ZM37.1465 12.3162C32.2352 9.53148 27.2426 8.096 22.192 8.096V12.096C26.4534 12.096 30.7728 13.3005 35.1735 15.7958L37.1465 12.3162ZM22.192 8.096C18.7836 8.096 15.8831 8.63422 13.8106 10.0159L16.0294 13.3441C17.1249 12.6138 19.0724 12.096 22.192 12.096V8.096ZM13.7869 10.0319C11.7586 11.4264 10.616 13.4105 10.616 15.856H14.616C14.616 14.8454 15.0094 14.0456 16.0531 13.3281L13.7869 10.0319ZM10.616 15.856C10.616 17.0814 10.9374 18.2405 11.6321 19.2545C12.3165 20.2532 13.2842 20.9972 14.4051 21.5425L16.1549 17.9455C15.4998 17.6268 15.1355 17.2908 14.9319 16.9935C14.7386 16.7115 14.616 16.3586 14.616 15.856H10.616ZM14.4633 21.5696C16.4763 22.4702 19.3955 23.3207 23.1288 24.145L23.9912 20.239C20.3325 19.4313 17.7317 18.6498 16.0967 17.9184L14.4633 21.5696ZM23.0979 24.1379C26.8938 25.0394 29.9512 25.9294 32.2938 26.8022L33.6902 23.0538C31.1368 22.1026 27.9062 21.1686 24.0221 20.2461L23.0979 24.1379ZM32.2938 26.8022C34.431 27.5984 36.2428 28.8475 37.7531 30.5676L40.7589 27.9284C38.8132 25.7125 36.449 24.0816 33.6902 23.0538L32.2938 26.8022ZM37.7712 30.5879C39.134 32.098 39.92 34.2379 39.92 37.24H43.92C43.92 33.5221 42.93 30.334 40.7408 27.9081L37.7712 30.5879ZM39.92 37.24C39.92 39.7156 39.2265 41.9643 37.8181 44.0354L41.1259 46.2846C42.9815 43.5557 43.92 40.5244 43.92 37.24H39.92ZM37.8131 44.0428C36.4881 46.0103 34.4255 47.6646 31.4776 48.9406L33.0664 52.6114C36.5505 51.1034 39.2879 49.0137 41.1309 46.2772L37.8131 44.0428ZM31.4776 48.9406C28.578 50.1956 24.9527 50.864 20.536 50.864V54.864C25.3353 54.864 29.534 54.1404 33.0664 52.6114L31.4776 48.9406ZM111.323 13.264L113.203 13.9455L114.175 11.264H111.323V13.264ZM97.2829 52V54H98.6854L99.1632 52.6815L97.2829 52ZM86.4829 52L84.6025 52.6812L85.0803 54H86.4829V52ZM77.7709 27.952L79.6514 27.2708L77.8015 22.1645L75.8978 27.251L77.7709 27.952ZM68.7709 52V54H70.1579L70.6441 52.701L68.7709 52ZM57.9709 52L56.0895 52.6784L56.5661 54H57.9709V52ZM44.0029 13.264V11.264H41.1557L42.1215 13.9424L44.0029 13.264ZM54.5869 13.264L56.4753 12.6051L56.0074 11.264H54.5869V13.264ZM63.7309 39.472L61.8426 40.1309L63.6946 45.4389L65.6111 40.1538L63.7309 39.472ZM73.2349 13.264V11.264H71.8328L71.3548 12.5822L73.2349 13.264ZM82.7389 13.264L84.6257 12.6005L84.1557 11.264H82.7389V13.264ZM91.9549 39.472L90.0682 40.1355L91.9331 45.4388L93.8368 40.1493L91.9549 39.472ZM101.387 13.264V11.264H99.9811L99.5051 12.5867L101.387 13.264ZM109.443 12.5825L95.4026 51.3185L99.1632 52.6815L113.203 13.9455L109.443 12.5825ZM97.2829 50H86.4829V54H97.2829V50ZM88.3633 51.3188L79.6514 27.2708L75.8905 28.6332L84.6025 52.6812L88.3633 51.3188ZM75.8978 27.251L66.8978 51.299L70.6441 52.701L79.6441 28.653L75.8978 27.251ZM68.7709 50H57.9709V54H68.7709V50ZM59.8524 51.3216L45.8844 12.5856L42.1215 13.9424L56.0895 52.6784L59.8524 51.3216ZM44.0029 15.264H54.5869V11.264H44.0029V15.264ZM52.6986 13.9228L61.8426 40.1309L65.6193 38.8131L56.4753 12.6051L52.6986 13.9228ZM65.6111 40.1538L75.1151 13.9458L71.3548 12.5822L61.8507 38.7902L65.6111 40.1538ZM73.2349 15.264H82.7389V11.264H73.2349V15.264ZM80.8522 13.9275L90.0682 40.1355L93.8417 38.8085L84.6257 12.6005L80.8522 13.9275ZM93.8368 40.1493L103.269 13.9413L99.5051 12.5867L90.0731 38.7947L93.8368 40.1493ZM101.387 15.264H111.323V11.264H101.387V15.264ZM145.447 17.008L144.113 18.4979L144.119 18.5035L144.125 18.509L145.447 17.008ZM150.271 52V54H152.271V52H150.271ZM139.759 52H137.759V54H139.759V52ZM139.759 47.176H141.759V39.8145L138.034 46.164L139.759 47.176ZM120.175 51.064L119.329 52.8764L119.337 52.8799L119.344 52.8834L120.175 51.064ZM115.207 46.888L116.885 45.7996L115.207 46.888ZM117.511 32.344L116.307 30.7474L116.3 30.7525L116.293 30.7577L117.511 32.344ZM139.039 29.248V31.248H141.039V29.248H139.039ZM136.807 23.632L135.466 25.1162L135.48 25.1283L135.493 25.1402L136.807 23.632ZM123.991 22.624L124.595 24.5305L124.61 24.526L124.623 24.5214L123.991 22.624ZM118.951 25.216L117.172 26.13L118.285 28.2967L120.194 26.783L118.951 25.216ZM114.919 17.368L113.767 15.733L112.345 16.7348L113.14 18.282L114.919 17.368ZM122.479 13.912L121.95 11.9832L121.942 11.9854L122.479 13.912ZM135.871 43.72L136.875 45.4496L136.896 45.4376L136.916 45.4252L135.871 43.72ZM139.039 39.76L140.92 40.4393L141.039 40.11V39.76H139.039ZM139.039 35.8H141.039V33.8H139.039V35.8ZM126.079 43.792L124.846 45.367L124.884 45.3964L124.923 45.424L126.079 43.792ZM131.623 14.688C137.323 14.688 141.385 16.0553 144.113 18.4979L146.781 15.5181C143.077 12.2007 137.923 10.688 131.623 10.688V14.688ZM144.125 18.509C146.775 20.8427 148.271 24.5026 148.271 29.896H152.271C152.271 23.7694 150.551 18.8373 146.769 15.507L144.125 18.509ZM148.271 29.896V52H152.271V29.896H148.271ZM150.271 50H139.759V54H150.271V50ZM141.759 52V47.176H137.759V52H141.759ZM138.034 46.164C136.411 48.9298 133.304 50.576 127.951 50.576V54.576C134.118 54.576 138.883 52.6222 141.484 48.188L138.034 46.164ZM127.951 50.576C125.198 50.576 122.901 50.1098 121.006 49.2446L119.344 52.8834C121.865 54.0342 124.752 54.576 127.951 54.576V50.576ZM121.021 49.2516C119.157 48.3817 117.808 47.2227 116.885 45.7996L113.529 47.9764C114.91 50.1053 116.873 51.7303 119.329 52.8764L121.021 49.2516ZM116.885 45.7996C115.957 44.3693 115.479 42.7363 115.479 40.84H111.479C111.479 43.4557 112.153 45.8547 113.529 47.9764L116.885 45.7996ZM115.479 40.84C115.479 37.8166 116.569 35.5892 118.729 33.9303L116.293 30.7577C113.077 33.2268 111.479 36.6634 111.479 40.84H115.479ZM118.715 33.9406C120.943 32.2604 124.622 31.248 130.111 31.248V27.248C124.272 27.248 119.551 28.2996 116.307 30.7474L118.715 33.9406ZM130.111 31.248H139.039V27.248H130.111V31.248ZM141.039 29.248C141.039 26.3724 140.147 23.8886 138.121 22.1238L135.493 25.1402C136.443 25.9674 137.039 27.2276 137.039 29.248H141.039ZM138.148 22.1478C136.149 20.3425 133.348 19.616 130.111 19.616V23.616C132.826 23.616 134.489 24.2335 135.466 25.1162L138.148 22.1478ZM130.111 19.616C127.826 19.616 125.572 19.9887 123.359 20.7266L124.623 24.5214C126.442 23.9153 128.268 23.616 130.111 23.616V19.616ZM123.387 20.7175C121.224 21.4033 119.319 22.3717 117.708 23.649L120.194 26.783C121.367 25.8523 122.822 25.0927 124.595 24.5305L123.387 20.7175ZM120.73 24.302L116.698 16.454L113.14 18.282L117.172 26.13L120.73 24.302ZM116.071 19.003C117.966 17.6675 120.27 16.6038 123.016 15.8386L121.942 11.9854C118.832 12.8522 116.096 14.0925 113.767 15.733L116.071 19.003ZM123.008 15.8408C125.81 15.0726 128.68 14.688 131.623 14.688V10.688C128.326 10.688 125.1 11.1194 121.95 11.9832L123.008 15.8408ZM130.759 47.016C132.99 47.016 135.048 46.5106 136.875 45.4496L134.867 41.9904C133.718 42.6574 132.368 43.016 130.759 43.016V47.016ZM136.916 45.4252C138.813 44.2629 140.151 42.57 140.92 40.4393L137.158 39.0807C136.679 40.406 135.905 41.3531 134.826 42.0148L136.916 45.4252ZM141.039 39.76V35.8H137.039V39.76H141.039ZM139.039 33.8H131.335V37.8H139.039V33.8ZM131.335 33.8C128.876 33.8 126.684 34.1919 125.054 35.2619C123.276 36.4283 122.423 38.2278 122.423 40.336H126.423C126.423 39.4202 126.722 38.9517 127.248 38.6061C127.922 38.1641 129.186 37.8 131.335 37.8V33.8ZM122.423 40.336C122.423 42.3716 123.243 44.1121 124.846 45.367L127.312 42.217C126.707 41.7439 126.423 41.1804 126.423 40.336H122.423ZM124.923 45.424C126.523 46.5571 128.535 47.016 130.759 47.016V43.016C129.047 43.016 127.939 42.6589 127.235 42.16L124.923 45.424ZM193.845 15.208L192.849 16.9427L192.866 16.9523L192.883 16.9616L193.845 15.208ZM200.829 22.192L199.08 23.1633L199.087 23.1752L200.829 22.192ZM200.829 43.144L202.57 44.1272L202.577 44.1153L200.829 43.144ZM193.845 50.128L194.818 51.875L194.828 51.8697L193.845 50.128ZM172.389 47.896L173.869 46.5518L170.389 42.7169V47.896H172.389ZM172.389 65.968V67.968H174.389V65.968H172.389ZM161.157 65.968H159.157V67.968H161.157V65.968ZM161.157 13.264V11.264H159.157V13.264H161.157ZM171.885 13.264H173.885V11.264H171.885V13.264ZM171.885 17.728H169.885V23.2765L173.425 19.004L171.885 17.728ZM189.165 40.48L187.715 39.1016L187.715 39.1025L189.165 40.48ZM189.165 24.856L187.698 26.2155L187.715 26.2341L187.732 26.2522L189.165 24.856ZM174.98 24.856L173.531 23.4776L173.531 23.4785L174.98 24.856ZM174.98 40.48L173.514 41.8395L173.531 41.8581L173.549 41.8762L174.98 40.48ZM184.053 14.688C187.327 14.688 190.244 15.4481 192.849 16.9427L194.84 13.4733C191.589 11.6079 187.978 10.688 184.053 10.688V14.688ZM192.883 16.9616C195.521 18.4086 197.58 20.4623 199.08 23.1633L202.577 21.2207C200.717 17.8737 198.12 15.2714 194.806 13.4544L192.883 16.9616ZM199.087 23.1752C200.571 25.8047 201.349 28.9349 201.349 32.632H205.349C205.349 28.3611 204.446 24.5313 202.57 21.2088L199.087 23.1752ZM201.349 32.632C201.349 36.3282 200.572 39.4883 199.08 42.1727L202.577 44.1153C204.445 40.7517 205.349 36.9038 205.349 32.632H201.349ZM199.087 42.1608C197.586 44.8196 195.52 46.8854 192.861 48.3864L194.828 51.8697C198.121 50.0106 200.711 47.4203 202.57 44.1272L199.087 42.1608ZM192.871 48.381C190.262 49.8349 187.338 50.576 184.053 50.576V54.576C187.967 54.576 191.571 53.6851 194.818 51.875L192.871 48.381ZM184.053 50.576C179.565 50.576 176.256 49.181 173.869 46.5518L170.908 49.2402C174.185 52.851 178.652 54.576 184.053 54.576V50.576ZM170.389 47.896V65.968H174.389V47.896H170.389ZM172.389 63.968H161.157V67.968H172.389V63.968ZM163.157 65.968V13.264H159.157V65.968H163.157ZM161.157 15.264H171.885V11.264H161.157V15.264ZM169.885 13.264V17.728H173.885V13.264H169.885ZM173.425 19.004C175.745 16.2034 179.175 14.688 184.053 14.688V10.688C178.274 10.688 173.592 12.5326 170.344 16.452L173.425 19.004ZM182.109 45.36C185.483 45.36 188.378 44.212 190.615 41.8575L187.715 39.1025C186.303 40.588 184.494 41.36 182.109 41.36V45.36ZM190.614 41.8584C192.908 39.446 193.973 36.2992 193.973 32.632H189.973C189.973 35.4928 189.165 37.578 187.715 39.1016L190.614 41.8584ZM193.973 32.632C193.973 28.9666 192.909 25.8314 190.597 23.4598L187.732 26.2522C189.164 27.7206 189.973 29.7694 189.973 32.632H193.973ZM190.631 23.4965C188.399 21.0877 185.5 19.904 182.109 19.904V23.904C184.477 23.904 186.282 24.6883 187.698 26.2155L190.631 23.4965ZM182.109 19.904C178.718 19.904 175.806 21.0867 173.531 23.4776L176.43 26.2344C177.899 24.6893 179.739 23.904 182.109 23.904V19.904ZM173.531 23.4785C171.275 25.8522 170.245 28.9808 170.245 32.632H174.245C174.245 29.7552 175.038 27.6998 176.43 26.2335L173.531 23.4785ZM170.245 32.632C170.245 36.2852 171.276 39.4253 173.514 41.8395L176.447 39.1205C175.037 37.5987 174.245 35.5068 174.245 32.632H170.245ZM173.549 41.8762C175.827 44.2129 178.734 45.36 182.109 45.36V41.36C179.723 41.36 177.878 40.5871 176.413 39.0838L173.549 41.8762Z" fill="url(#paint0_linear_27:15)"/>
<defs>
<linearGradient id="paint0_linear_27:15" x1="-2" y1="-25" x2="206" y2="-25" gradientUnits="userSpaceOnUse">
<stop stop-color="#E100FF"/>
<stop offset="1" stop-color="#7F00FF"/>
</linearGradient>
</defs>
</svg>
