<?xml version="1.0" standalone="no"?>
<!DOCTYPE svg PUBLIC "-//W3C//DTD SVG 20010904//EN"
 "http://www.w3.org/TR/2001/REC-SVG-20010904/DTD/svg10.dtd">
<svg version="1.0" xmlns="http://www.w3.org/2000/svg"
 width="96.000000pt" height="96.000000pt" viewBox="0 0 96.000000 96.000000"
 preserveAspectRatio="xMidYMid meet">

<g transform="translate(0.000000,96.000000) scale(0.100000,-0.100000)"
fill="#000000" stroke="none">
<path d="M373 943 c-4 -9 -11 -41 -18 -72 -10 -50 -15 -57 -55 -81 l-44 -26
-66 24 -65 23 -17 -20 c-25 -32 -88 -147 -88 -163 0 -7 22 -31 50 -53 49 -39
50 -40 50 -95 0 -55 -1 -56 -50 -95 -27 -22 -50 -46 -50 -53 0 -16 63 -131 88
-163 l17 -20 65 23 66 24 44 -26 c40 -24 45 -31 55 -81 19 -94 12 -89 125 -89
113 0 106 -5 125 89 10 50 15 57 55 81 l44 26 66 -24 65 -23 17 20 c25 32 88
147 88 163 0 7 -22 31 -50 53 -49 39 -50 40 -50 95 0 55 1 56 50 95 28 22 50
46 50 53 0 16 -63 131 -88 163 l-17 20 -65 -23 -66 -24 -44 26 c-40 24 -45 31
-55 81 -19 94 -12 89 -125 89 -85 0 -102 -3 -107 -17z m217 -297 c59 -39 85
-89 85 -166 0 -78 -26 -127 -88 -168 -56 -37 -153 -39 -210 -3 -76 47 -111
140 -88 229 14 51 75 117 123 131 53 16 135 6 178 -23z"/>
</g>
</svg>
