<svg width="356" height="25" viewBox="0 0 356 25" fill="none" xmlns="http://www.w3.org/2000/svg">
<path d="M18.3756 8.16C17.757 6.85867 16.861 5.856 15.6876 5.152C14.5143 4.42667 13.149 4.064 11.5916 4.064C10.0343 4.064 8.62629 4.42667 7.36763 5.152C6.13029 5.856 5.14896 6.88 4.42363 8.224C3.71963 9.54667 3.36763 11.0827 3.36763 12.832C3.36763 14.5813 3.71963 16.1173 4.42363 17.44C5.14896 18.7627 6.13029 19.7867 7.36763 20.512C8.62629 21.216 10.0343 21.568 11.5916 21.568C13.7676 21.568 15.5596 20.9173 16.9676 19.616C18.3756 18.3147 19.197 16.5547 19.4316 14.336H10.5356V11.968H22.5356V14.208C22.365 16.0427 21.789 17.728 20.8076 19.264C19.8263 20.7787 18.5356 21.984 16.9356 22.88C15.3356 23.7547 13.5543 24.192 11.5916 24.192C9.52229 24.192 7.63429 23.712 5.92763 22.752C4.22096 21.7707 2.86629 20.416 1.86363 18.688C0.882292 16.96 0.391625 15.008 0.391625 12.832C0.391625 10.656 0.882292 8.704 1.86363 6.976C2.86629 5.22667 4.22096 3.872 5.92763 2.912C7.63429 1.93067 9.52229 1.44 11.5916 1.44C13.9596 1.44 16.0503 2.02667 17.8636 3.2C19.6983 4.37333 21.0316 6.02667 21.8636 8.16H18.3756ZM42.3859 14.56C42.3859 15.1147 42.3539 15.7013 42.2899 16.32H28.2739C28.3805 18.048 28.9672 19.4027 30.0339 20.384C31.1219 21.344 32.4339 21.824 33.9699 21.824C35.2285 21.824 36.2739 21.536 37.1059 20.96C37.9592 20.3627 38.5565 19.5733 38.8979 18.592H42.0339C41.5645 20.2773 40.6259 21.6533 39.2179 22.72C37.8099 23.7653 36.0605 24.288 33.9699 24.288C32.3059 24.288 30.8125 23.9147 29.4899 23.168C28.1885 22.4213 27.1645 21.3653 26.4179 20C25.6712 18.6133 25.2979 17.0133 25.2979 15.2C25.2979 13.3867 25.6605 11.7973 26.3859 10.432C27.1112 9.06667 28.1245 8.02133 29.4259 7.296C30.7485 6.54933 32.2632 6.176 33.9699 6.176C35.6339 6.176 37.1059 6.53867 38.3859 7.264C39.6659 7.98933 40.6472 8.992 41.3299 10.272C42.0339 11.5307 42.3859 12.96 42.3859 14.56ZM39.3779 13.952C39.3779 12.8427 39.1325 11.8933 38.6419 11.104C38.1512 10.2933 37.4792 9.68533 36.6259 9.28C35.7939 8.85333 34.8659 8.64 33.8419 8.64C32.3699 8.64 31.1112 9.10933 30.0659 10.048C29.0419 10.9867 28.4552 12.288 28.3059 13.952H39.3779ZM54.7736 6.144C56.907 6.144 58.635 6.79467 59.9576 8.096C61.2803 9.376 61.9416 11.232 61.9416 13.664V24H59.0616V14.08C59.0616 12.3307 58.6243 10.9973 57.7496 10.08C56.875 9.14133 55.6803 8.672 54.1656 8.672C52.6296 8.672 51.403 9.152 50.4856 10.112C49.5896 11.072 49.1416 12.4693 49.1416 14.304V24H46.2296V6.464H49.1416V8.96C49.7176 8.064 50.4963 7.37067 51.4776 6.88C52.4803 6.38933 53.579 6.144 54.7736 6.144ZM82.6984 14.56C82.6984 15.1147 82.6664 15.7013 82.6024 16.32H68.5864C68.693 18.048 69.2797 19.4027 70.3464 20.384C71.4344 21.344 72.7464 21.824 74.2824 21.824C75.541 21.824 76.5864 21.536 77.4184 20.96C78.2717 20.3627 78.869 19.5733 79.2104 18.592H82.3464C81.877 20.2773 80.9384 21.6533 79.5304 22.72C78.1224 23.7653 76.373 24.288 74.2824 24.288C72.6184 24.288 71.125 23.9147 69.8024 23.168C68.501 22.4213 67.477 21.3653 66.7304 20C65.9837 18.6133 65.6104 17.0133 65.6104 15.2C65.6104 13.3867 65.973 11.7973 66.6984 10.432C67.4237 9.06667 68.437 8.02133 69.7384 7.296C71.061 6.54933 72.5757 6.176 74.2824 6.176C75.9464 6.176 77.4184 6.53867 78.6984 7.264C79.9784 7.98933 80.9597 8.992 81.6424 10.272C82.3464 11.5307 82.6984 12.96 82.6984 14.56ZM79.6904 13.952C79.6904 12.8427 79.445 11.8933 78.9544 11.104C78.4637 10.2933 77.7917 9.68533 76.9384 9.28C76.1064 8.85333 75.1784 8.64 74.1544 8.64C72.6824 8.64 71.4237 9.10933 70.3784 10.048C69.3544 10.9867 68.7677 12.288 68.6184 13.952H79.6904ZM89.4541 9.312C89.9661 8.30933 90.6915 7.53067 91.6301 6.976C92.5901 6.42133 93.7528 6.144 95.1181 6.144V9.152H94.3501C91.0861 9.152 89.4541 10.9227 89.4541 14.464V24H86.5421V6.464H89.4541V9.312ZM97.3916 15.168C97.3916 13.376 97.7543 11.808 98.4796 10.464C99.205 9.09867 100.197 8.04267 101.456 7.296C102.736 6.54933 104.154 6.176 105.712 6.176C107.248 6.176 108.581 6.50667 109.712 7.168C110.842 7.82933 111.685 8.66133 112.24 9.664V6.464H115.184V24H112.24V20.736C111.664 21.76 110.8 22.6133 109.648 23.296C108.517 23.9573 107.194 24.288 105.68 24.288C104.122 24.288 102.714 23.904 101.456 23.136C100.197 22.368 99.205 21.2907 98.4796 19.904C97.7543 18.5173 97.3916 16.9387 97.3916 15.168ZM112.24 15.2C112.24 13.8773 111.973 12.7253 111.44 11.744C110.906 10.7627 110.181 10.016 109.264 9.504C108.368 8.97067 107.376 8.704 106.288 8.704C105.2 8.704 104.208 8.96 103.312 9.472C102.416 9.984 101.701 10.7307 101.168 11.712C100.634 12.6933 100.368 13.8453 100.368 15.168C100.368 16.512 100.634 17.6853 101.168 18.688C101.701 19.6693 102.416 20.4267 103.312 20.96C104.208 21.472 105.2 21.728 106.288 21.728C107.376 21.728 108.368 21.472 109.264 20.96C110.181 20.4267 110.906 19.6693 111.44 18.688C111.973 17.6853 112.24 16.5227 112.24 15.2ZM123.657 8.864V19.2C123.657 20.0533 123.838 20.6613 124.201 21.024C124.563 21.3653 125.193 21.536 126.089 21.536H128.233V24H125.609C123.987 24 122.771 23.6267 121.961 22.88C121.15 22.1333 120.745 20.9067 120.745 19.2V8.864H118.473V6.464H120.745V2.048H123.657V6.464H128.233V8.864H123.657ZM147.761 14.56C147.761 15.1147 147.729 15.7013 147.665 16.32H133.649C133.756 18.048 134.342 19.4027 135.409 20.384C136.497 21.344 137.809 21.824 139.345 21.824C140.604 21.824 141.649 21.536 142.481 20.96C143.334 20.3627 143.932 19.5733 144.273 18.592H147.409C146.94 20.2773 146.001 21.6533 144.593 22.72C143.185 23.7653 141.436 24.288 139.345 24.288C137.681 24.288 136.188 23.9147 134.865 23.168C133.564 22.4213 132.54 21.3653 131.793 20C131.046 18.6133 130.673 17.0133 130.673 15.2C130.673 13.3867 131.036 11.7973 131.761 10.432C132.486 9.06667 133.5 8.02133 134.801 7.296C136.124 6.54933 137.638 6.176 139.345 6.176C141.009 6.176 142.481 6.53867 143.761 7.264C145.041 7.98933 146.022 8.992 146.705 10.272C147.409 11.5307 147.761 12.96 147.761 14.56ZM144.753 13.952C144.753 12.8427 144.508 11.8933 144.017 11.104C143.526 10.2933 142.854 9.68533 142.001 9.28C141.169 8.85333 140.241 8.64 139.217 8.64C137.745 8.64 136.486 9.10933 135.441 10.048C134.417 10.9867 133.83 12.288 133.681 13.952H144.753ZM150.517 15.168C150.517 13.376 150.879 11.808 151.605 10.464C152.33 9.09867 153.322 8.04267 154.581 7.296C155.861 6.54933 157.29 6.176 158.869 6.176C160.234 6.176 161.503 6.496 162.677 7.136C163.85 7.75467 164.746 8.576 165.365 9.6V0.32H168.309V24H165.365V20.704C164.789 21.7493 163.935 22.6133 162.805 23.296C161.674 23.9573 160.351 24.288 158.837 24.288C157.279 24.288 155.861 23.904 154.581 23.136C153.322 22.368 152.33 21.2907 151.605 19.904C150.879 18.5173 150.517 16.9387 150.517 15.168ZM165.365 15.2C165.365 13.8773 165.098 12.7253 164.565 11.744C164.031 10.7627 163.306 10.016 162.389 9.504C161.493 8.97067 160.501 8.704 159.413 8.704C158.325 8.704 157.333 8.96 156.437 9.472C155.541 9.984 154.826 10.7307 154.293 11.712C153.759 12.6933 153.493 13.8453 153.493 15.168C153.493 16.512 153.759 17.6853 154.293 18.688C154.826 19.6693 155.541 20.4267 156.437 20.96C157.333 21.472 158.325 21.728 159.413 21.728C160.501 21.728 161.493 21.472 162.389 20.96C163.306 20.4267 164.031 19.6693 164.565 18.688C165.098 17.6853 165.365 16.5227 165.365 15.2ZM194.369 1.696V4.064H184.673V11.584H192.545V13.952H184.673V24H181.761V1.696H194.369ZM205.534 24.288C203.891 24.288 202.398 23.9147 201.054 23.168C199.731 22.4213 198.686 21.3653 197.918 20C197.171 18.6133 196.798 17.0133 196.798 15.2C196.798 13.408 197.182 11.8293 197.95 10.464C198.739 9.07733 199.806 8.02133 201.15 7.296C202.494 6.54933 203.998 6.176 205.662 6.176C207.326 6.176 208.83 6.54933 210.174 7.296C211.518 8.02133 212.574 9.06667 213.342 10.432C214.131 11.7973 214.526 13.3867 214.526 15.2C214.526 17.0133 214.121 18.6133 213.31 20C212.521 21.3653 211.443 22.4213 210.078 23.168C208.713 23.9147 207.198 24.288 205.534 24.288ZM205.534 21.728C206.579 21.728 207.561 21.4827 208.478 20.992C209.395 20.5013 210.131 19.7653 210.686 18.784C211.262 17.8027 211.55 16.608 211.55 15.2C211.55 13.792 211.273 12.5973 210.718 11.616C210.163 10.6347 209.438 9.90933 208.542 9.44C207.646 8.94933 206.675 8.704 205.63 8.704C204.563 8.704 203.582 8.94933 202.686 9.44C201.811 9.90933 201.107 10.6347 200.574 11.616C200.041 12.5973 199.774 13.792 199.774 15.2C199.774 16.6293 200.03 17.8347 200.542 18.816C201.075 19.7973 201.779 20.5333 202.654 21.024C203.529 21.4933 204.489 21.728 205.534 21.728ZM221.267 9.312C221.779 8.30933 222.504 7.53067 223.443 6.976C224.403 6.42133 225.565 6.144 226.931 6.144V9.152H226.163C222.899 9.152 221.267 10.9227 221.267 14.464V24H218.355V6.464H221.267V9.312ZM256.007 1.696V24H253.095V13.888H241.735V24H238.823V1.696H241.735V11.488H253.095V1.696H256.007ZM268.628 24.288C266.985 24.288 265.492 23.9147 264.148 23.168C262.825 22.4213 261.78 21.3653 261.012 20C260.265 18.6133 259.892 17.0133 259.892 15.2C259.892 13.408 260.276 11.8293 261.044 10.464C261.833 9.07733 262.9 8.02133 264.244 7.296C265.588 6.54933 267.092 6.176 268.756 6.176C270.42 6.176 271.924 6.54933 273.268 7.296C274.612 8.02133 275.668 9.06667 276.436 10.432C277.225 11.7973 277.62 13.3867 277.62 15.2C277.62 17.0133 277.214 18.6133 276.404 20C275.614 21.3653 274.537 22.4213 273.172 23.168C271.806 23.9147 270.292 24.288 268.628 24.288ZM268.628 21.728C269.673 21.728 270.654 21.4827 271.572 20.992C272.489 20.5013 273.225 19.7653 273.78 18.784C274.356 17.8027 274.644 16.608 274.644 15.2C274.644 13.792 274.366 12.5973 273.812 11.616C273.257 10.6347 272.532 9.90933 271.636 9.44C270.74 8.94933 269.769 8.704 268.724 8.704C267.657 8.704 266.676 8.94933 265.78 9.44C264.905 9.90933 264.201 10.6347 263.668 11.616C263.134 12.5973 262.868 13.792 262.868 15.2C262.868 16.6293 263.124 17.8347 263.636 18.816C264.169 19.7973 264.873 20.5333 265.748 21.024C266.622 21.4933 267.582 21.728 268.628 21.728ZM284.36 0.32V24H281.448V0.32H284.36ZM288.235 15.168C288.235 13.376 288.598 11.808 289.323 10.464C290.049 9.09867 291.041 8.04267 292.299 7.296C293.579 6.54933 295.009 6.176 296.587 6.176C297.953 6.176 299.222 6.496 300.395 7.136C301.569 7.75467 302.465 8.576 303.083 9.6V0.32H306.027V24H303.083V20.704C302.507 21.7493 301.654 22.6133 300.523 23.296C299.393 23.9573 298.07 24.288 296.555 24.288C294.998 24.288 293.579 23.904 292.299 23.136C291.041 22.368 290.049 21.2907 289.323 19.904C288.598 18.5173 288.235 16.9387 288.235 15.168ZM303.083 15.2C303.083 13.8773 302.817 12.7253 302.283 11.744C301.75 10.7627 301.025 10.016 300.107 9.504C299.211 8.97067 298.219 8.704 297.131 8.704C296.043 8.704 295.051 8.96 294.155 9.472C293.259 9.984 292.545 10.7307 292.011 11.712C291.478 12.6933 291.211 13.8453 291.211 15.168C291.211 16.512 291.478 17.6853 292.011 18.688C292.545 19.6693 293.259 20.4267 294.155 20.96C295.051 21.472 296.043 21.728 297.131 21.728C298.219 21.728 299.211 21.472 300.107 20.96C301.025 20.4267 301.75 19.6693 302.283 18.688C302.817 17.6853 303.083 16.5227 303.083 15.2ZM326.948 14.56C326.948 15.1147 326.916 15.7013 326.852 16.32H312.836C312.943 18.048 313.53 19.4027 314.596 20.384C315.684 21.344 316.996 21.824 318.532 21.824C319.791 21.824 320.836 21.536 321.668 20.96C322.522 20.3627 323.119 19.5733 323.46 18.592H326.596C326.127 20.2773 325.188 21.6533 323.78 22.72C322.372 23.7653 320.623 24.288 318.532 24.288C316.868 24.288 315.375 23.9147 314.052 23.168C312.751 22.4213 311.727 21.3653 310.98 20C310.234 18.6133 309.86 17.0133 309.86 15.2C309.86 13.3867 310.223 11.7973 310.948 10.432C311.674 9.06667 312.687 8.02133 313.988 7.296C315.311 6.54933 316.826 6.176 318.532 6.176C320.196 6.176 321.668 6.53867 322.948 7.264C324.228 7.98933 325.21 8.992 325.892 10.272C326.596 11.5307 326.948 12.96 326.948 14.56ZM323.94 13.952C323.94 12.8427 323.695 11.8933 323.204 11.104C322.714 10.2933 322.042 9.68533 321.188 9.28C320.356 8.85333 319.428 8.64 318.404 8.64C316.932 8.64 315.674 9.10933 314.628 10.048C313.604 10.9867 313.018 12.288 312.868 13.952H323.94ZM333.704 9.312C334.216 8.30933 334.941 7.53067 335.88 6.976C336.84 6.42133 338.003 6.144 339.368 6.144V9.152H338.6C335.336 9.152 333.704 10.9227 333.704 14.464V24H330.792V6.464H333.704V9.312ZM348.938 24.288C347.594 24.288 346.388 24.064 345.322 23.616C344.255 23.1467 343.412 22.5067 342.794 21.696C342.175 20.864 341.834 19.9147 341.77 18.848H344.778C344.863 19.7227 345.268 20.4373 345.994 20.992C346.74 21.5467 347.711 21.824 348.906 21.824C350.015 21.824 350.89 21.5787 351.53 21.088C352.17 20.5973 352.49 19.9787 352.49 19.232C352.49 18.464 352.148 17.8987 351.466 17.536C350.783 17.152 349.727 16.7787 348.298 16.416C346.996 16.0747 345.93 15.7333 345.098 15.392C344.287 15.0293 343.583 14.5067 342.986 13.824C342.41 13.12 342.122 12.2027 342.122 11.072C342.122 10.176 342.388 9.35467 342.922 8.608C343.455 7.86133 344.212 7.27467 345.194 6.848C346.175 6.4 347.295 6.176 348.554 6.176C350.495 6.176 352.063 6.66667 353.258 7.648C354.452 8.62933 355.092 9.97333 355.178 11.68H352.266C352.202 10.7627 351.828 10.0267 351.146 9.472C350.484 8.91733 349.588 8.64 348.458 8.64C347.412 8.64 346.58 8.864 345.962 9.312C345.343 9.76 345.034 10.3467 345.034 11.072C345.034 11.648 345.215 12.128 345.578 12.512C345.962 12.8747 346.431 13.1733 346.986 13.408C347.562 13.6213 348.351 13.8667 349.354 14.144C350.612 14.4853 351.636 14.8267 352.426 15.168C353.215 15.488 353.887 15.9787 354.442 16.64C355.018 17.3013 355.316 18.1653 355.338 19.232C355.338 20.192 355.071 21.056 354.538 21.824C354.004 22.592 353.247 23.2 352.266 23.648C351.306 24.0747 350.196 24.288 348.938 24.288Z" fill="url(#paint0_linear_7_189)"/>
<defs>
<linearGradient id="paint0_linear_7_189" x1="-1" y1="-11" x2="357" y2="-11" gradientUnits="userSpaceOnUse">
<stop stop-color="#B56CFF"/>
<stop offset="1" stop-color="#E100FF"/>
</linearGradient>
</defs>
</svg>
