<svg width="1050" height="61" viewBox="0 0 1050 61" fill="none" xmlns="http://www.w3.org/2000/svg">
<path d="M27.0447 48L18.9447 36.3H18.4647H10.0047V48H0.284688V6H18.4647C22.1847 6 25.4047 6.62 28.1247 7.86C30.8847 9.1 33.0047 10.86 34.4847 13.14C35.9647 15.42 36.7047 18.12 36.7047 21.24C36.7047 24.36 35.9447 27.06 34.4247 29.34C32.9447 31.58 30.8247 33.3 28.0647 34.5L37.4847 48H27.0447ZM26.8647 21.24C26.8647 18.88 26.1047 17.08 24.5847 15.84C23.0647 14.56 20.8447 13.92 17.9247 13.92H10.0047V28.56H17.9247C20.8447 28.56 23.0647 27.92 24.5847 26.64C26.1047 25.36 26.8647 23.56 26.8647 21.24ZM75.3658 31.98C75.3658 32.1 75.3058 32.94 75.1858 34.5H50.7658C51.2058 36.5 52.2458 38.08 53.8858 39.24C55.5258 40.4 57.5658 40.98 60.0058 40.98C61.6858 40.98 63.1658 40.74 64.4458 40.26C65.7658 39.74 66.9858 38.94 68.1058 37.86L73.0858 43.26C70.0458 46.74 65.6058 48.48 59.7658 48.48C56.1258 48.48 52.9058 47.78 50.1058 46.38C47.3058 44.94 45.1458 42.96 43.6258 40.44C42.1058 37.92 41.3458 35.06 41.3458 31.86C41.3458 28.7 42.0858 25.86 43.5658 23.34C45.0858 20.78 47.1458 18.8 49.7458 17.4C52.3858 15.96 55.3258 15.24 58.5658 15.24C61.7258 15.24 64.5858 15.92 67.1458 17.28C69.7058 18.64 71.7058 20.6 73.1458 23.16C74.6258 25.68 75.3658 28.62 75.3658 31.98ZM58.6258 22.32C56.5058 22.32 54.7258 22.92 53.2858 24.12C51.8458 25.32 50.9658 26.96 50.6458 29.04H66.5458C66.2258 27 65.3458 25.38 63.9058 24.18C62.4658 22.94 60.7058 22.32 58.6258 22.32ZM93.7384 15.24C98.7384 15.24 102.578 16.44 105.258 18.84C107.938 21.2 109.278 24.78 109.278 29.58V48H100.518V43.98C98.7584 46.98 95.4784 48.48 90.6784 48.48C88.1984 48.48 86.0384 48.06 84.1984 47.22C82.3984 46.38 81.0184 45.22 80.0584 43.74C79.0984 42.26 78.6184 40.58 78.6184 38.7C78.6184 35.7 79.7384 33.34 81.9784 31.62C84.2584 29.9 87.7584 29.04 92.4784 29.04H99.9184C99.9184 27 99.2984 25.44 98.0584 24.36C96.8184 23.24 94.9584 22.68 92.4784 22.68C90.7584 22.68 89.0584 22.96 87.3784 23.52C85.7384 24.04 84.3384 24.76 83.1784 25.68L79.8184 19.14C81.5784 17.9 83.6784 16.94 86.1184 16.26C88.5984 15.58 91.1384 15.24 93.7384 15.24ZM93.0184 42.18C94.6184 42.18 96.0384 41.82 97.2784 41.1C98.5184 40.34 99.3984 39.24 99.9184 37.8V34.5H93.4984C89.6584 34.5 87.7384 35.76 87.7384 38.28C87.7384 39.48 88.1984 40.44 89.1184 41.16C90.0784 41.84 91.3784 42.18 93.0184 42.18ZM117.75 3.48H127.11V48H117.75V3.48ZM135.797 15.72H145.157V48H135.797V15.72ZM140.477 11.22C138.757 11.22 137.357 10.72 136.277 9.72C135.197 8.72 134.657 7.48 134.657 6C134.657 4.52 135.197 3.28 136.277 2.28C137.357 1.28 138.757 0.779996 140.477 0.779996C142.197 0.779996 143.597 1.26 144.677 2.22C145.757 3.18 146.297 4.38 146.297 5.82C146.297 7.38 145.757 8.68 144.677 9.72C143.597 10.72 142.197 11.22 140.477 11.22ZM164.703 48.48C162.023 48.48 159.403 48.16 156.843 47.52C154.283 46.84 152.243 46 150.723 45L153.843 38.28C155.283 39.2 157.023 39.96 159.063 40.56C161.103 41.12 163.103 41.4 165.063 41.4C169.023 41.4 171.003 40.42 171.003 38.46C171.003 37.54 170.463 36.88 169.383 36.48C168.303 36.08 166.643 35.74 164.403 35.46C161.763 35.06 159.583 34.6 157.863 34.08C156.143 33.56 154.643 32.64 153.363 31.32C152.123 30 151.503 28.12 151.503 25.68C151.503 23.64 152.083 21.84 153.243 20.28C154.443 18.68 156.163 17.44 158.403 16.56C160.683 15.68 163.363 15.24 166.443 15.24C168.723 15.24 170.983 15.5 173.223 16.02C175.503 16.5 177.383 17.18 178.863 18.06L175.743 24.72C172.903 23.12 169.803 22.32 166.443 22.32C164.443 22.32 162.943 22.6 161.943 23.16C160.943 23.72 160.443 24.44 160.443 25.32C160.443 26.32 160.983 27.02 162.063 27.42C163.143 27.82 164.863 28.2 167.223 28.56C169.863 29 172.023 29.48 173.703 30C175.383 30.48 176.843 31.38 178.083 32.7C179.323 34.02 179.943 35.86 179.943 38.22C179.943 40.22 179.343 42 178.143 43.56C176.943 45.12 175.183 46.34 172.863 47.22C170.583 48.06 167.863 48.48 164.703 48.48ZM206.538 46.44C205.618 47.12 204.478 47.64 203.118 48C201.798 48.32 200.398 48.48 198.918 48.48C195.078 48.48 192.098 47.5 189.978 45.54C187.898 43.58 186.858 40.7 186.858 36.9V23.64H181.878V16.44H186.858V8.58H196.218V16.44H204.258V23.64H196.218V36.78C196.218 38.14 196.558 39.2 197.238 39.96C197.958 40.68 198.958 41.04 200.238 41.04C201.718 41.04 202.978 40.64 204.018 39.84L206.538 46.44ZM211.793 15.72H221.153V48H211.793V15.72ZM216.473 11.22C214.753 11.22 213.353 10.72 212.273 9.72C211.193 8.72 210.653 7.48 210.653 6C210.653 4.52 211.193 3.28 212.273 2.28C213.353 1.28 214.753 0.779996 216.473 0.779996C218.193 0.779996 219.593 1.26 220.673 2.22C221.753 3.18 222.293 4.38 222.293 5.82C222.293 7.38 221.753 8.68 220.673 9.72C219.593 10.72 218.193 11.22 216.473 11.22ZM245.44 48.48C242 48.48 238.9 47.78 236.14 46.38C233.42 44.94 231.28 42.96 229.72 40.44C228.2 37.92 227.44 35.06 227.44 31.86C227.44 28.66 228.2 25.8 229.72 23.28C231.28 20.76 233.42 18.8 236.14 17.4C238.9 15.96 242 15.24 245.44 15.24C248.84 15.24 251.8 15.96 254.32 17.4C256.88 18.8 258.74 20.82 259.9 23.46L252.64 27.36C250.96 24.4 248.54 22.92 245.38 22.92C242.94 22.92 240.92 23.72 239.32 25.32C237.72 26.92 236.92 29.1 236.92 31.86C236.92 34.62 237.72 36.8 239.32 38.4C240.92 40 242.94 40.8 245.38 40.8C248.58 40.8 251 39.32 252.64 36.36L259.9 40.32C258.74 42.88 256.88 44.88 254.32 46.32C251.8 47.76 248.84 48.48 245.44 48.48ZM323.321 6L305.141 48H295.541L277.421 6H287.921L300.701 36L313.661 6H323.321ZM326.754 15.72H336.114V48H326.754V15.72ZM331.434 11.22C329.714 11.22 328.314 10.72 327.234 9.72C326.154 8.72 325.614 7.48 325.614 6C325.614 4.52 326.154 3.28 327.234 2.28C328.314 1.28 329.714 0.779996 331.434 0.779996C333.154 0.779996 334.554 1.26 335.634 2.22C336.714 3.18 337.254 4.38 337.254 5.82C337.254 7.38 336.714 8.68 335.634 9.72C334.554 10.72 333.154 11.22 331.434 11.22ZM355.66 48.48C352.98 48.48 350.36 48.16 347.8 47.52C345.24 46.84 343.2 46 341.68 45L344.8 38.28C346.24 39.2 347.98 39.96 350.02 40.56C352.06 41.12 354.06 41.4 356.02 41.4C359.98 41.4 361.96 40.42 361.96 38.46C361.96 37.54 361.42 36.88 360.34 36.48C359.26 36.08 357.6 35.74 355.36 35.46C352.72 35.06 350.54 34.6 348.82 34.08C347.1 33.56 345.6 32.64 344.32 31.32C343.08 30 342.46 28.12 342.46 25.68C342.46 23.64 343.04 21.84 344.2 20.28C345.4 18.68 347.12 17.44 349.36 16.56C351.64 15.68 354.32 15.24 357.4 15.24C359.68 15.24 361.94 15.5 364.18 16.02C366.46 16.5 368.34 17.18 369.82 18.06L366.7 24.72C363.86 23.12 360.76 22.32 357.4 22.32C355.4 22.32 353.9 22.6 352.9 23.16C351.9 23.72 351.4 24.44 351.4 25.32C351.4 26.32 351.94 27.02 353.02 27.42C354.1 27.82 355.82 28.2 358.18 28.56C360.82 29 362.98 29.48 364.66 30C366.34 30.48 367.8 31.38 369.04 32.7C370.28 34.02 370.9 35.86 370.9 38.22C370.9 40.22 370.3 42 369.1 43.56C367.9 45.12 366.14 46.34 363.82 47.22C361.54 48.06 358.82 48.48 355.66 48.48ZM376.675 15.72H386.035V48H376.675V15.72ZM381.355 11.22C379.635 11.22 378.235 10.72 377.155 9.72C376.075 8.72 375.535 7.48 375.535 6C375.535 4.52 376.075 3.28 377.155 2.28C378.235 1.28 379.635 0.779996 381.355 0.779996C383.075 0.779996 384.475 1.26 385.555 2.22C386.635 3.18 387.175 4.38 387.175 5.82C387.175 7.38 386.635 8.68 385.555 9.72C384.475 10.72 383.075 11.22 381.355 11.22ZM410.082 48.48C406.682 48.48 403.622 47.78 400.902 46.38C398.222 44.94 396.122 42.96 394.602 40.44C393.082 37.92 392.322 35.06 392.322 31.86C392.322 28.66 393.082 25.8 394.602 23.28C396.122 20.76 398.222 18.8 400.902 17.4C403.622 15.96 406.682 15.24 410.082 15.24C413.482 15.24 416.522 15.96 419.202 17.4C421.882 18.8 423.982 20.76 425.502 23.28C427.022 25.8 427.782 28.66 427.782 31.86C427.782 35.06 427.022 37.92 425.502 40.44C423.982 42.96 421.882 44.94 419.202 46.38C416.522 47.78 413.482 48.48 410.082 48.48ZM410.082 40.8C412.482 40.8 414.442 40 415.962 38.4C417.522 36.76 418.302 34.58 418.302 31.86C418.302 29.14 417.522 26.98 415.962 25.38C414.442 23.74 412.482 22.92 410.082 22.92C407.682 22.92 405.702 23.74 404.142 25.38C402.582 26.98 401.802 29.14 401.802 31.86C401.802 34.58 402.582 36.76 404.142 38.4C405.702 40 407.682 40.8 410.082 40.8ZM453.659 15.24C457.659 15.24 460.879 16.44 463.319 18.84C465.799 21.24 467.039 24.8 467.039 29.52V48H457.679V30.96C457.679 28.4 457.119 26.5 455.999 25.26C454.879 23.98 453.259 23.34 451.139 23.34C448.779 23.34 446.899 24.08 445.499 25.56C444.099 27 443.399 29.16 443.399 32.04V48H434.039V15.72H442.979V19.5C444.219 18.14 445.759 17.1 447.599 16.38C449.439 15.62 451.459 15.24 453.659 15.24ZM479.123 36.84C480.803 36.84 482.183 37.38 483.263 38.46C484.343 39.5 484.883 40.88 484.883 42.6C484.883 43.4 484.783 44.2 484.583 45C484.383 45.8 483.943 47 483.263 48.6L479.843 57.24H473.903L476.543 47.7C475.543 47.3 474.743 46.66 474.143 45.78C473.583 44.86 473.303 43.8 473.303 42.6C473.303 40.88 473.843 39.5 474.923 38.46C476.043 37.38 477.443 36.84 479.123 36.84ZM541.398 40.2V48H508.878V6H540.618V13.8H518.538V22.92H538.038V30.48H518.538V40.2H541.398ZM568.582 48L561.502 38.1L554.182 48H543.982L556.402 31.74L544.402 15.72H554.902L561.742 25.14L568.762 15.72H578.722L566.722 31.5L579.202 48H568.582ZM598.35 48.48C594.91 48.48 591.81 47.78 589.05 46.38C586.33 44.94 584.19 42.96 582.63 40.44C581.11 37.92 580.35 35.06 580.35 31.86C580.35 28.66 581.11 25.8 582.63 23.28C584.19 20.76 586.33 18.8 589.05 17.4C591.81 15.96 594.91 15.24 598.35 15.24C601.75 15.24 604.71 15.96 607.23 17.4C609.79 18.8 611.65 20.82 612.81 23.46L605.55 27.36C603.87 24.4 601.45 22.92 598.29 22.92C595.85 22.92 593.83 23.72 592.23 25.32C590.63 26.92 589.83 29.1 589.83 31.86C589.83 34.62 590.63 36.8 592.23 38.4C593.83 40 595.85 40.8 598.29 40.8C601.49 40.8 603.91 39.32 605.55 36.36L612.81 40.32C611.65 42.88 609.79 44.88 607.23 46.32C604.71 47.76 601.75 48.48 598.35 48.48ZM618.199 15.72H627.559V48H618.199V15.72ZM622.879 11.22C621.159 11.22 619.759 10.72 618.679 9.72C617.599 8.72 617.059 7.48 617.059 6C617.059 4.52 617.599 3.28 618.679 2.28C619.759 1.28 621.159 0.779996 622.879 0.779996C624.599 0.779996 625.999 1.26 627.079 2.22C628.159 3.18 628.699 4.38 628.699 5.82C628.699 7.38 628.159 8.68 627.079 9.72C625.999 10.72 624.599 11.22 622.879 11.22ZM657.066 46.44C656.146 47.12 655.006 47.64 653.646 48C652.326 48.32 650.926 48.48 649.446 48.48C645.606 48.48 642.626 47.5 640.506 45.54C638.426 43.58 637.386 40.7 637.386 36.9V23.64H632.406V16.44H637.386V8.58H646.746V16.44H654.786V23.64H646.746V36.78C646.746 38.14 647.086 39.2 647.766 39.96C648.486 40.68 649.486 41.04 650.766 41.04C652.246 41.04 653.506 40.64 654.546 39.84L657.066 46.44ZM662.32 15.72H671.68V48H662.32V15.72ZM667 11.22C665.28 11.22 663.88 10.72 662.8 9.72C661.72 8.72 661.18 7.48 661.18 6C661.18 4.52 661.72 3.28 662.8 2.28C663.88 1.28 665.28 0.779996 667 0.779996C668.72 0.779996 670.12 1.26 671.2 2.22C672.28 3.18 672.82 4.38 672.82 5.82C672.82 7.38 672.28 8.68 671.2 9.72C670.12 10.72 668.72 11.22 667 11.22ZM699.987 15.24C703.987 15.24 707.207 16.44 709.647 18.84C712.127 21.24 713.367 24.8 713.367 29.52V48H704.007V30.96C704.007 28.4 703.447 26.5 702.327 25.26C701.207 23.98 699.587 23.34 697.467 23.34C695.107 23.34 693.227 24.08 691.827 25.56C690.427 27 689.727 29.16 689.727 32.04V48H680.367V15.72H689.307V19.5C690.547 18.14 692.087 17.1 693.927 16.38C695.767 15.62 697.787 15.24 699.987 15.24ZM755.503 15.72V42.6C755.503 48.52 753.963 52.92 750.883 55.8C747.803 58.68 743.303 60.12 737.383 60.12C734.263 60.12 731.303 59.74 728.503 58.98C725.703 58.22 723.383 57.12 721.543 55.68L725.263 48.96C726.623 50.08 728.343 50.96 730.423 51.6C732.503 52.28 734.583 52.62 736.663 52.62C739.903 52.62 742.283 51.88 743.803 50.4C745.363 48.96 746.143 46.76 746.143 43.8V42.42C743.703 45.1 740.303 46.44 735.943 46.44C732.983 46.44 730.263 45.8 727.783 44.52C725.343 43.2 723.403 41.36 721.963 39C720.523 36.64 719.803 33.92 719.803 30.84C719.803 27.76 720.523 25.04 721.963 22.68C723.403 20.32 725.343 18.5 727.783 17.22C730.263 15.9 732.983 15.24 735.943 15.24C740.623 15.24 744.183 16.78 746.623 19.86V15.72H755.503ZM737.803 38.76C740.283 38.76 742.303 38.04 743.863 36.6C745.463 35.12 746.263 33.2 746.263 30.84C746.263 28.48 745.463 26.58 743.863 25.14C742.303 23.66 740.283 22.92 737.803 22.92C735.323 22.92 733.283 23.66 731.683 25.14C730.083 26.58 729.283 28.48 729.283 30.84C729.283 33.2 730.083 35.12 731.683 36.6C733.283 38.04 735.323 38.76 737.803 38.76ZM791.587 13.8V24.9H811.027V32.7H791.587V48H781.867V6H813.607V13.8H791.587ZM850.327 31.98C850.327 32.1 850.267 32.94 850.147 34.5H825.727C826.167 36.5 827.207 38.08 828.847 39.24C830.487 40.4 832.527 40.98 834.967 40.98C836.647 40.98 838.127 40.74 839.407 40.26C840.727 39.74 841.947 38.94 843.067 37.86L848.047 43.26C845.007 46.74 840.567 48.48 834.727 48.48C831.087 48.48 827.867 47.78 825.067 46.38C822.267 44.94 820.107 42.96 818.587 40.44C817.067 37.92 816.307 35.06 816.307 31.86C816.307 28.7 817.047 25.86 818.527 23.34C820.047 20.78 822.107 18.8 824.707 17.4C827.347 15.96 830.287 15.24 833.527 15.24C836.687 15.24 839.547 15.92 842.107 17.28C844.667 18.64 846.667 20.6 848.107 23.16C849.587 25.68 850.327 28.62 850.327 31.98ZM833.587 22.32C831.467 22.32 829.687 22.92 828.247 24.12C826.807 25.32 825.927 26.96 825.607 29.04H841.507C841.187 27 840.307 25.38 838.867 24.18C837.427 22.94 835.667 22.32 833.587 22.32ZM868.699 15.24C873.699 15.24 877.539 16.44 880.219 18.84C882.899 21.2 884.239 24.78 884.239 29.58V48H875.479V43.98C873.719 46.98 870.439 48.48 865.639 48.48C863.159 48.48 860.999 48.06 859.159 47.22C857.359 46.38 855.979 45.22 855.019 43.74C854.059 42.26 853.579 40.58 853.579 38.7C853.579 35.7 854.699 33.34 856.939 31.62C859.219 29.9 862.719 29.04 867.439 29.04H874.879C874.879 27 874.259 25.44 873.019 24.36C871.779 23.24 869.919 22.68 867.439 22.68C865.719 22.68 864.019 22.96 862.339 23.52C860.699 24.04 859.299 24.76 858.139 25.68L854.779 19.14C856.539 17.9 858.639 16.94 861.079 16.26C863.559 15.58 866.099 15.24 868.699 15.24ZM867.979 42.18C869.579 42.18 870.999 41.82 872.239 41.1C873.479 40.34 874.359 39.24 874.879 37.8V34.5H868.459C864.619 34.5 862.699 35.76 862.699 38.28C862.699 39.48 863.159 40.44 864.079 41.16C865.039 41.84 866.339 42.18 867.979 42.18ZM913.531 46.44C912.611 47.12 911.471 47.64 910.111 48C908.791 48.32 907.391 48.48 905.911 48.48C902.071 48.48 899.091 47.5 896.971 45.54C894.891 43.58 893.851 40.7 893.851 36.9V23.64H888.871V16.44H893.851V8.58H903.211V16.44H911.251V23.64H903.211V36.78C903.211 38.14 903.551 39.2 904.231 39.96C904.951 40.68 905.951 41.04 907.231 41.04C908.711 41.04 909.971 40.64 911.011 39.84L913.531 46.44ZM951.305 15.72V48H942.425V44.16C941.185 45.56 939.705 46.64 937.985 47.4C936.265 48.12 934.405 48.48 932.405 48.48C928.165 48.48 924.805 47.26 922.325 44.82C919.845 42.38 918.605 38.76 918.605 33.96V15.72H927.965V32.58C927.965 37.78 930.145 40.38 934.505 40.38C936.745 40.38 938.545 39.66 939.905 38.22C941.265 36.74 941.945 34.56 941.945 31.68V15.72H951.305ZM968.916 19.98C970.036 18.42 971.536 17.24 973.416 16.44C975.336 15.64 977.536 15.24 980.016 15.24V23.88C978.976 23.8 978.276 23.76 977.916 23.76C975.236 23.76 973.136 24.52 971.616 26.04C970.096 27.52 969.336 29.76 969.336 32.76V48H959.976V15.72H968.916V19.98ZM1016.91 31.98C1016.91 32.1 1016.85 32.94 1016.73 34.5H992.309C992.749 36.5 993.789 38.08 995.429 39.24C997.069 40.4 999.109 40.98 1001.55 40.98C1003.23 40.98 1004.71 40.74 1005.99 40.26C1007.31 39.74 1008.53 38.94 1009.65 37.86L1014.63 43.26C1011.59 46.74 1007.15 48.48 1001.31 48.48C997.669 48.48 994.449 47.78 991.649 46.38C988.849 44.94 986.689 42.96 985.169 40.44C983.649 37.92 982.889 35.06 982.889 31.86C982.889 28.7 983.629 25.86 985.109 23.34C986.629 20.78 988.689 18.8 991.289 17.4C993.929 15.96 996.869 15.24 1000.11 15.24C1003.27 15.24 1006.13 15.92 1008.69 17.28C1011.25 18.64 1013.25 20.6 1014.69 23.16C1016.17 25.68 1016.91 28.62 1016.91 31.98ZM1000.17 22.32C998.049 22.32 996.269 22.92 994.829 24.12C993.389 25.32 992.509 26.96 992.189 29.04H1008.09C1007.77 27 1006.89 25.38 1005.45 24.18C1004.01 22.94 1002.25 22.32 1000.17 22.32ZM1034 48.48C1031.32 48.48 1028.7 48.16 1026.14 47.52C1023.58 46.84 1021.54 46 1020.02 45L1023.14 38.28C1024.58 39.2 1026.32 39.96 1028.36 40.56C1030.4 41.12 1032.4 41.4 1034.36 41.4C1038.32 41.4 1040.3 40.42 1040.3 38.46C1040.3 37.54 1039.76 36.88 1038.68 36.48C1037.6 36.08 1035.94 35.74 1033.7 35.46C1031.06 35.06 1028.88 34.6 1027.16 34.08C1025.44 33.56 1023.94 32.64 1022.66 31.32C1021.42 30 1020.8 28.12 1020.8 25.68C1020.8 23.64 1021.38 21.84 1022.54 20.28C1023.74 18.68 1025.46 17.44 1027.7 16.56C1029.98 15.68 1032.66 15.24 1035.74 15.24C1038.02 15.24 1040.28 15.5 1042.52 16.02C1044.8 16.5 1046.68 17.18 1048.16 18.06L1045.04 24.72C1042.2 23.12 1039.1 22.32 1035.74 22.32C1033.74 22.32 1032.24 22.6 1031.24 23.16C1030.24 23.72 1029.74 24.44 1029.74 25.32C1029.74 26.32 1030.28 27.02 1031.36 27.42C1032.44 27.82 1034.16 28.2 1036.52 28.56C1039.16 29 1041.32 29.48 1043 30C1044.68 30.48 1046.14 31.38 1047.38 32.7C1048.62 34.02 1049.24 35.86 1049.24 38.22C1049.24 40.22 1048.64 42 1047.44 43.56C1046.24 45.12 1044.48 46.34 1042.16 47.22C1039.88 48.06 1037.16 48.48 1034 48.48Z" fill="url(#paint0_linear_27_16)"/>
<path d="M27.0447 48L26.2225 48.5692L26.5207 49H27.0447V48ZM18.9447 36.3L19.7669 35.7308L19.4686 35.3H18.9447V36.3ZM10.0047 36.3V35.3H9.00469V36.3H10.0047ZM10.0047 48V49H11.0047V48H10.0047ZM0.284688 48H-0.715312V49H0.284688V48ZM0.284688 6V5H-0.715312V6H0.284688ZM28.1247 7.86L27.7099 8.76992L27.7149 8.77217L28.1247 7.86ZM34.4247 29.34L33.5926 28.7853L33.5904 28.7887L34.4247 29.34ZM28.0647 34.5L27.666 33.5829L26.5454 34.0701L27.2446 35.0722L28.0647 34.5ZM37.4847 48V49H39.4018L38.3048 47.4278L37.4847 48ZM24.5847 15.84L23.9406 16.6049L23.9465 16.6099L23.9526 16.6149L24.5847 15.84ZM10.0047 13.92V12.92H9.00469V13.92H10.0047ZM10.0047 28.56H9.00469V29.56H10.0047V28.56ZM24.5847 26.64L25.2288 27.4049L24.5847 26.64ZM27.8669 47.4308L19.7669 35.7308L18.1225 36.8692L26.2225 48.5692L27.8669 47.4308ZM18.9447 35.3H18.4647V37.3H18.9447V35.3ZM18.4647 35.3H10.0047V37.3H18.4647V35.3ZM9.00469 36.3V48H11.0047V36.3H9.00469ZM10.0047 47H0.284688V49H10.0047V47ZM1.28469 48V6H-0.715312V48H1.28469ZM0.284688 7H18.4647V5H0.284688V7ZM18.4647 7C22.0756 7 25.1479 7.60193 27.7099 8.76991L28.5395 6.95009C25.6615 5.63807 22.2938 5 18.4647 5V7ZM27.7149 8.77217C30.32 9.9426 32.2822 11.5836 33.6459 13.6845L35.3235 12.5955C33.7272 10.1364 31.4493 8.25739 28.5345 6.94783L27.7149 8.77217ZM33.6459 13.6845C35.0058 15.7794 35.7047 18.2839 35.7047 21.24H37.7047C37.7047 17.956 36.9236 15.0606 35.3235 12.5955L33.6459 13.6845ZM35.7047 21.24C35.7047 24.1908 34.9885 26.6916 33.5926 28.7853L35.2567 29.8947C36.9009 27.4284 37.7047 24.5292 37.7047 21.24H35.7047ZM33.5904 28.7887C32.2297 30.8481 30.2706 32.4505 27.666 33.5829L28.4634 35.4171C31.3788 34.1495 33.6597 32.3119 35.259 29.8913L33.5904 28.7887ZM27.2446 35.0722L36.6646 48.5722L38.3048 47.4278L28.8848 33.9278L27.2446 35.0722ZM37.4847 47H27.0447V49H37.4847V47ZM27.8647 21.24C27.8647 18.6471 27.0173 16.534 25.2168 15.0651L23.9526 16.6149C25.1921 17.626 25.8647 19.1129 25.8647 21.24H27.8647ZM25.2288 15.0751C23.4605 13.586 20.9728 12.92 17.9247 12.92V14.92C20.7165 14.92 22.6689 15.534 23.9406 16.6049L25.2288 15.0751ZM17.9247 12.92H10.0047V14.92H17.9247V12.92ZM9.00469 13.92V28.56H11.0047V13.92H9.00469ZM10.0047 29.56H17.9247V27.56H10.0047V29.56ZM17.9247 29.56C20.9728 29.56 23.4605 28.894 25.2288 27.4049L23.9406 25.8751C22.6689 26.946 20.7165 27.56 17.9247 27.56V29.56ZM25.2288 27.4049C27.0133 25.9022 27.8647 23.8001 27.8647 21.24H25.8647C25.8647 23.3199 25.1961 24.8178 23.9406 25.8751L25.2288 27.4049ZM75.1858 34.5V35.5H76.1118L76.1828 34.5767L75.1858 34.5ZM50.7658 34.5V33.5H49.5219L49.7891 34.7149L50.7658 34.5ZM53.8858 39.24L54.4632 38.4236L53.8858 39.24ZM64.4458 40.26L64.7969 41.1963L64.8046 41.1934L64.8123 41.1904L64.4458 40.26ZM68.1058 37.86L68.8409 37.1821L68.1477 36.4304L67.4116 37.1402L68.1058 37.86ZM73.0858 43.26L73.8389 43.9179L74.4294 43.2419L73.8209 42.5821L73.0858 43.26ZM50.1058 46.38L49.6484 47.2693L49.6586 47.2744L50.1058 46.38ZM43.6258 40.44L42.7695 40.9565L43.6258 40.44ZM43.5658 23.34L42.7059 22.8295L42.7035 22.8336L43.5658 23.34ZM49.7458 17.4L50.2199 18.2805L50.2246 18.2779L49.7458 17.4ZM67.1458 17.28L67.6149 16.3969L67.1458 17.28ZM73.1458 23.16L72.2742 23.6503L72.2788 23.6584L72.2835 23.6664L73.1458 23.16ZM53.2858 24.12L52.6456 23.3518L53.2858 24.12ZM50.6458 29.04L49.6574 28.8879L49.4802 30.04H50.6458V29.04ZM66.5458 29.04V30.04H67.7149L67.5337 28.885L66.5458 29.04ZM63.9058 24.18L63.2533 24.9378L63.2594 24.943L63.2656 24.9482L63.9058 24.18ZM74.3658 31.98C74.3658 31.9717 74.3647 32.0109 74.3565 32.1426C74.3493 32.2583 74.3382 32.4199 74.3233 32.6288C74.2935 33.046 74.2487 33.6439 74.1887 34.4233L76.1828 34.5767C76.3 33.0537 76.3658 32.1507 76.3658 31.98H74.3658ZM75.1858 33.5H50.7658V35.5H75.1858V33.5ZM49.7891 34.7149C50.2815 36.9529 51.4607 38.7495 53.3083 40.0564L54.4632 38.4236C53.0309 37.4105 52.1301 36.0471 51.7424 34.2851L49.7891 34.7149ZM53.3083 40.0564C55.1507 41.3595 57.4041 41.98 60.0058 41.98V39.98C57.7274 39.98 55.9009 39.4405 54.4632 38.4236L53.3083 40.0564ZM60.0058 41.98C61.7792 41.98 63.3822 41.7268 64.7969 41.1963L64.0947 39.3237C62.9493 39.7532 61.5924 39.98 60.0058 39.98V41.98ZM64.8123 41.1904C66.2656 40.6179 67.5947 39.742 68.7999 38.5798L67.4116 37.1402C66.3768 38.138 65.266 38.8621 64.0793 39.3296L64.8123 41.1904ZM67.3707 38.5379L72.3507 43.9379L73.8209 42.5821L68.8409 37.1821L67.3707 38.5379ZM72.3327 42.6021C69.5305 45.8098 65.3991 47.48 59.7658 47.48V49.48C65.8125 49.48 70.561 47.6702 73.8389 43.9179L72.3327 42.6021ZM59.7658 47.48C56.2558 47.48 53.1932 46.8057 50.553 45.4856L49.6586 47.2744C52.6184 48.7543 55.9958 49.48 59.7658 49.48V47.48ZM50.5631 45.4907C47.9161 44.1294 45.8995 42.2735 44.4821 39.9235L42.7695 40.9565C44.3921 43.6465 46.6955 45.7506 49.6484 47.2693L50.5631 45.4907ZM44.4821 39.9235C43.0642 37.5729 42.3458 34.8944 42.3458 31.86H40.3458C40.3458 35.2256 41.1473 38.2671 42.7695 40.9565L44.4821 39.9235ZM42.3458 31.86C42.3458 28.8631 43.0455 26.2005 44.4281 23.8464L42.7035 22.8336C41.126 25.5195 40.3458 28.5369 40.3458 31.86H42.3458ZM44.4256 23.8505C45.8538 21.4452 47.781 19.5937 50.2199 18.2805L49.2717 16.5195C46.5105 18.0063 44.3178 20.1148 42.7059 22.8295L44.4256 23.8505ZM50.2246 18.2779C52.7065 16.9242 55.4798 16.24 58.5658 16.24V14.24C55.1718 14.24 52.0651 14.9958 49.2669 16.5221L50.2246 18.2779ZM58.5658 16.24C61.5773 16.24 64.2738 16.8866 66.6766 18.1631L67.6149 16.3969C64.8977 14.9534 61.8743 14.24 58.5658 14.24V16.24ZM66.6766 18.1631C69.0653 19.4321 70.9267 21.2547 72.2742 23.6503L74.0174 22.6697C72.4849 19.9453 70.3463 17.8479 67.6149 16.3969L66.6766 18.1631ZM72.2835 23.6664C73.6605 26.0111 74.3658 28.771 74.3658 31.98H76.3658C76.3658 28.469 75.591 25.3489 74.0081 22.6536L72.2835 23.6664ZM58.6258 21.32C56.3044 21.32 54.2888 21.9824 52.6456 23.3518L53.926 24.8882C55.1628 23.8576 56.7072 23.32 58.6258 23.32V21.32ZM52.6456 23.3518C50.995 24.7272 50.0096 26.5987 49.6574 28.8879L51.6342 29.1921C51.922 27.3213 52.6965 25.9128 53.926 24.8882L52.6456 23.3518ZM50.6458 30.04H66.5458V28.04H50.6458V30.04ZM67.5337 28.885C67.1802 26.6314 66.1919 24.7834 64.546 23.4118L63.2656 24.9482C64.4996 25.9766 65.2714 27.3686 65.5579 29.195L67.5337 28.885ZM64.5583 23.4222C62.9192 22.0108 60.9209 21.32 58.6258 21.32V23.32C60.4907 23.32 62.0124 23.8692 63.2533 24.9378L64.5583 23.4222ZM105.258 18.84L104.591 19.585L104.598 19.5905L105.258 18.84ZM109.278 48V49H110.278V48H109.278ZM100.518 48H99.5184V49H100.518V48ZM100.518 43.98H101.518V40.2992L99.6559 43.474L100.518 43.98ZM84.1984 47.22L83.7755 48.1262L83.7831 48.1297L84.1984 47.22ZM80.0584 43.74L80.8974 43.1958L80.0584 43.74ZM81.9784 31.62L81.3762 30.8217L81.3694 30.8269L81.9784 31.62ZM99.9184 29.04V30.04H100.918V29.04H99.9184ZM98.0584 24.36L97.3882 25.1021L97.3949 25.1082L97.4017 25.1141L98.0584 24.36ZM87.3784 23.52L87.6807 24.4732L87.6877 24.471L87.6947 24.4687L87.3784 23.52ZM83.1784 25.68L82.289 26.137L82.8456 27.2203L83.7998 26.4635L83.1784 25.68ZM79.8184 19.14L79.2425 18.3225L78.5315 18.8234L78.929 19.597L79.8184 19.14ZM86.1184 16.26L85.854 15.2956L85.85 15.2967L86.1184 16.26ZM97.2784 41.1L97.7806 41.9648L97.7909 41.9588L97.801 41.9526L97.2784 41.1ZM99.9184 37.8L100.859 38.1396L100.918 37.975V37.8H99.9184ZM99.9184 34.5H100.918V33.5H99.9184V34.5ZM89.1184 41.16L88.5021 41.9475L88.5209 41.9622L88.5404 41.976L89.1184 41.16ZM93.7384 16.24C98.5883 16.24 102.156 17.4036 104.591 19.5849L105.926 18.095C103.001 15.4764 98.8885 14.24 93.7384 14.24V16.24ZM104.598 19.5905C106.995 21.7013 108.278 24.9633 108.278 29.58H110.278C110.278 24.5967 108.882 20.6987 105.919 18.0895L104.598 19.5905ZM108.278 29.58V48H110.278V29.58H108.278ZM109.278 47H100.518V49H109.278V47ZM101.518 48V43.98H99.5184V48H101.518ZM99.6559 43.474C98.1406 46.0569 95.2747 47.48 90.6784 47.48V49.48C95.6821 49.48 99.3763 47.9031 101.381 44.486L99.6559 43.474ZM90.6784 47.48C88.3101 47.48 86.2973 47.0789 84.6137 46.3103L83.7831 48.1297C85.7795 49.0411 88.0868 49.48 90.6784 49.48V47.48ZM84.6213 46.3138C82.9692 45.5428 81.7429 44.4993 80.8974 43.1958L79.2195 44.2842C80.2939 45.9407 81.8277 47.2172 83.7756 48.1262L84.6213 46.3138ZM80.8974 43.1958C80.0495 41.8887 79.6184 40.4002 79.6184 38.7H77.6184C77.6184 40.7598 78.1474 42.6313 79.2195 44.2842L80.8974 43.1958ZM79.6184 38.7C79.6184 35.9883 80.6112 33.9306 82.5875 32.4132L81.3694 30.8269C78.8656 32.7494 77.6184 35.4117 77.6184 38.7H79.6184ZM82.5807 32.4183C84.6063 30.8902 87.8461 30.04 92.4784 30.04V28.04C87.6708 28.04 83.9106 28.9098 81.3762 30.8217L82.5807 32.4183ZM92.4784 30.04H99.9184V28.04H92.4784V30.04ZM100.918 29.04C100.918 26.7862 100.224 24.9203 98.7152 23.6059L97.4017 25.1141C98.3726 25.9597 98.9184 27.2138 98.9184 29.04H100.918ZM98.7287 23.6179C97.2334 22.2673 95.0889 21.68 92.4784 21.68V23.68C94.828 23.68 96.4035 24.2127 97.3882 25.1021L98.7287 23.6179ZM92.4784 21.68C90.6478 21.68 88.8411 21.9783 87.0622 22.5713L87.6947 24.4687C89.2757 23.9417 90.8691 23.68 92.4784 23.68V21.68ZM87.0762 22.5668C85.3388 23.1176 83.8263 23.8898 82.557 24.8965L83.7998 26.4635C84.8506 25.6302 86.138 24.9624 87.6807 24.4732L87.0762 22.5668ZM84.0679 25.223L80.7079 18.683L78.929 19.597L82.289 26.137L84.0679 25.223ZM80.3944 19.9575C82.0461 18.7938 84.038 17.8779 86.3869 17.2233L85.85 15.2967C83.3189 16.0021 81.1108 17.0062 79.2425 18.3225L80.3944 19.9575ZM86.3829 17.2244C88.7758 16.5683 91.2268 16.24 93.7384 16.24V14.24C91.0501 14.24 88.4211 14.5917 85.854 15.2956L86.3829 17.2244ZM93.0184 43.18C94.7739 43.18 96.3709 42.7833 97.7806 41.9648L96.7763 40.2352C95.7059 40.8567 94.463 41.18 93.0184 41.18V43.18ZM97.801 41.9526C99.2452 41.0674 100.266 39.781 100.859 38.1396L98.9779 37.4604C98.5306 38.699 97.7917 39.6126 96.7559 40.2474L97.801 41.9526ZM100.918 37.8V34.5H98.9184V37.8H100.918ZM99.9184 33.5H93.4984V35.5H99.9184V33.5ZM93.4984 33.5C91.5009 33.5 89.829 33.8219 88.6298 34.609C87.3571 35.4441 86.7384 36.7219 86.7384 38.28H88.7384C88.7384 37.3181 89.0798 36.7059 89.7271 36.281C90.4479 35.8081 91.656 35.5 93.4984 35.5V33.5ZM86.7384 38.28C86.7384 39.7778 87.3324 41.032 88.5021 41.9475L89.7347 40.3725C89.0645 39.848 88.7384 39.1822 88.7384 38.28H86.7384ZM88.5404 41.976C89.7242 42.8145 91.2506 43.18 93.0184 43.18V41.18C91.5063 41.18 90.4327 40.8655 89.6965 40.344L88.5404 41.976ZM117.75 3.48V2.48H116.75V3.48H117.75ZM127.11 3.48H128.11V2.48H127.11V3.48ZM127.11 48V49H128.11V48H127.11ZM117.75 48H116.75V49H117.75V48ZM117.75 4.48H127.11V2.48H117.75V4.48ZM126.11 3.48V48H128.11V3.48H126.11ZM127.11 47H117.75V49H127.11V47ZM118.75 48V3.48H116.75V48H118.75ZM135.797 15.72V14.72H134.797V15.72H135.797ZM145.157 15.72H146.157V14.72H145.157V15.72ZM145.157 48V49H146.157V48H145.157ZM135.797 48H134.797V49H135.797V48ZM136.277 9.72L135.597 10.4538L136.277 9.72ZM136.277 2.28L136.956 3.01376L136.956 3.01376L136.277 2.28ZM144.677 2.22L144.012 2.96741L144.012 2.96741L144.677 2.22ZM144.677 9.72L145.356 10.4538L145.363 10.4471L145.37 10.4403L144.677 9.72ZM135.797 16.72H145.157V14.72H135.797V16.72ZM144.157 15.72V48H146.157V15.72H144.157ZM145.157 47H135.797V49H145.157V47ZM136.797 48V15.72H134.797V48H136.797ZM140.477 10.22C138.963 10.22 137.82 9.78661 136.956 8.98624L135.597 10.4538C136.893 11.6534 138.55 12.22 140.477 12.22V10.22ZM136.956 8.98624C136.082 8.17668 135.657 7.20319 135.657 6H133.657C133.657 7.75681 134.311 9.26331 135.597 10.4538L136.956 8.98624ZM135.657 6C135.657 4.79681 136.082 3.82331 136.956 3.01376L135.597 1.54624C134.311 2.73668 133.657 4.24319 133.657 6H135.657ZM136.956 3.01376C137.82 2.21339 138.963 1.78 140.477 1.78V-0.220003C138.55 -0.220003 136.893 0.346606 135.597 1.54624L136.956 3.01376ZM140.477 1.78C142.001 1.78 143.149 2.20005 144.012 2.96741L145.341 1.47259C144.044 0.319945 142.392 -0.220003 140.477 -0.220003V1.78ZM144.012 2.96741C144.88 3.7384 145.297 4.66677 145.297 5.82H147.297C147.297 4.09323 146.634 2.6216 145.341 1.47259L144.012 2.96741ZM145.297 5.82C145.297 7.12058 144.858 8.15657 143.983 8.99968L145.37 10.4403C146.655 9.20342 147.297 7.63942 147.297 5.82H145.297ZM143.997 8.98624C143.133 9.78661 141.99 10.22 140.477 10.22V12.22C142.403 12.22 144.06 11.6534 145.356 10.4538L143.997 8.98624ZM156.843 47.52L156.587 48.4865L156.594 48.4884L156.601 48.4901L156.843 47.52ZM150.723 45L149.816 44.5789L149.453 45.3613L150.174 45.8354L150.723 45ZM153.843 38.28L154.382 37.4373L153.418 36.8216L152.936 37.8589L153.843 38.28ZM159.063 40.56L158.781 41.5194L158.79 41.5219L158.799 41.5243L159.063 40.56ZM169.383 36.48L169.036 37.4177L169.383 36.48ZM164.403 35.46L164.254 36.4487L164.266 36.4507L164.279 36.4523L164.403 35.46ZM157.863 34.08L158.153 33.1228L157.863 34.08ZM153.363 31.32L152.635 32.0047L152.64 32.0105L152.646 32.0161L153.363 31.32ZM153.243 20.28L152.443 19.68L152.441 19.6833L153.243 20.28ZM158.403 16.56L158.043 15.6271L158.038 15.6292L158.403 16.56ZM173.223 16.02L172.997 16.9941L173.007 16.9964L173.017 16.9985L173.223 16.02ZM178.863 18.06L179.769 18.4842L180.153 17.6636L179.375 17.2005L178.863 18.06ZM175.743 24.72L175.253 25.5912L176.192 26.1203L176.649 25.1442L175.743 24.72ZM161.943 23.16L161.455 22.2875L161.943 23.16ZM162.063 27.42L162.411 26.4823L162.063 27.42ZM167.223 28.56L167.388 27.5735L167.374 27.5714L167.223 28.56ZM173.703 30L173.408 30.9553L173.418 30.9585L173.429 30.9615L173.703 30ZM178.083 32.7L177.355 33.3847L178.083 32.7ZM178.143 43.56L178.936 44.1697L178.143 43.56ZM172.863 47.22L173.209 48.1584L173.218 48.155L172.863 47.22ZM164.703 47.48C162.104 47.48 159.565 47.1697 157.086 46.5499L156.601 48.4901C159.241 49.1503 161.943 49.48 164.703 49.48V47.48ZM157.1 46.5535C154.601 45.8897 152.672 45.0851 151.273 44.1646L150.174 45.8354C151.815 46.9149 153.966 47.7903 156.587 48.4865L157.1 46.5535ZM151.63 45.4211L154.75 38.7011L152.936 37.8589L149.816 44.5789L151.63 45.4211ZM153.305 39.1227C154.841 40.1041 156.672 40.899 158.781 41.5194L159.346 39.6006C157.375 39.021 155.726 38.2959 154.382 37.4373L153.305 39.1227ZM158.799 41.5243C160.918 42.1061 163.007 42.4 165.063 42.4V40.4C163.2 40.4 161.289 40.1339 159.328 39.5957L158.799 41.5243ZM165.063 42.4C167.094 42.4 168.764 42.154 169.962 41.5612C170.575 41.2579 171.096 40.848 171.462 40.3049C171.832 39.755 172.003 39.1271 172.003 38.46H170.003C170.003 38.7729 169.927 39.0025 169.803 39.1876C169.674 39.3795 169.452 39.5821 169.075 39.7688C168.293 40.156 166.993 40.4 165.063 40.4V42.4ZM172.003 38.46C172.003 37.7887 171.8 37.165 171.372 36.6418C170.957 36.1341 170.381 35.7831 169.731 35.5423L169.036 37.4177C169.466 37.5769 169.7 37.7559 169.824 37.9082C169.936 38.045 170.003 38.2113 170.003 38.46H172.003ZM169.731 35.5423C168.539 35.1009 166.786 34.75 164.527 34.4677L164.279 36.4523C166.501 36.73 168.068 37.0591 169.036 37.4177L169.731 35.5423ZM164.553 34.4713C161.94 34.0754 159.811 33.6241 158.153 33.1228L157.574 35.0372C159.356 35.5759 161.587 36.0446 164.254 36.4487L164.553 34.4713ZM158.153 33.1228C156.599 32.6532 155.246 31.8248 154.081 30.6239L152.646 32.0161C154.041 33.4552 155.687 34.4668 157.574 35.0372L158.153 33.1228ZM154.092 30.6353C153.08 29.5574 152.503 27.9557 152.503 25.68H150.503C150.503 28.2843 151.167 30.4426 152.635 32.0047L154.092 30.6353ZM152.503 25.68C152.503 23.8436 153.021 22.2553 154.046 20.8767L152.441 19.6833C151.146 21.4247 150.503 23.4364 150.503 25.68H152.503ZM154.043 20.88C155.111 19.4561 156.666 18.3168 158.769 17.4907L158.038 15.6292C155.66 16.5632 153.775 17.9039 152.443 19.68L154.043 20.88ZM158.764 17.4929C160.903 16.6671 163.456 16.24 166.443 16.24V14.24C163.271 14.24 160.464 14.6929 158.043 15.6271L158.764 17.4929ZM166.443 16.24C168.647 16.24 170.831 16.4912 172.997 16.9941L173.45 15.0459C171.136 14.5088 168.8 14.24 166.443 14.24V16.24ZM173.017 16.9985C175.225 17.4634 176.994 18.1116 178.352 18.9195L179.375 17.2005C177.773 16.2484 175.782 15.5366 173.429 15.0414L173.017 16.9985ZM177.958 17.6358L174.838 24.2958L176.649 25.1442L179.769 18.4842L177.958 17.6358ZM176.234 23.8488C173.24 22.1617 169.97 21.32 166.443 21.32V23.32C169.637 23.32 172.567 24.0783 175.253 25.5912L176.234 23.8488ZM166.443 21.32C164.383 21.32 162.678 21.6028 161.455 22.2875L162.432 24.0325C163.209 23.5972 164.504 23.32 166.443 23.32V21.32ZM161.455 22.2875C160.249 22.9626 159.443 23.9672 159.443 25.32H161.443C161.443 24.9128 161.638 24.4774 162.432 24.0325L161.455 22.2875ZM159.443 25.32C159.443 26.0106 159.634 26.6581 160.057 27.2058C160.471 27.743 161.053 28.112 161.716 28.3577L162.411 26.4823C161.994 26.328 161.766 26.147 161.64 25.9842C161.523 25.8319 161.443 25.6294 161.443 25.32H159.443ZM161.716 28.3577C162.897 28.795 164.701 29.1868 167.073 29.5486L167.374 27.5714C165.026 27.2132 163.39 26.845 162.411 26.4823L161.716 28.3577ZM167.059 29.5464C169.675 29.9824 171.787 30.4536 173.408 30.9553L173.999 29.0447C172.26 28.5064 170.052 28.0176 167.388 27.5736L167.059 29.5464ZM173.429 30.9615C174.929 31.3901 176.233 32.1912 177.355 33.3847L178.812 32.0153C177.453 30.5688 175.838 29.5699 173.978 29.0385L173.429 30.9615ZM177.355 33.3847C178.373 34.4684 178.943 36.0349 178.943 38.22H180.943C180.943 35.6851 180.274 33.5716 178.812 32.0153L177.355 33.3847ZM178.943 38.22C178.943 40.0033 178.414 41.5681 177.351 42.9503L178.936 44.1697C180.273 42.4319 180.943 40.4367 180.943 38.22H178.943ZM177.351 42.9503C176.29 44.3295 174.7 45.4538 172.509 46.285L173.218 48.155C175.667 47.2262 177.597 45.9105 178.936 44.1697L177.351 42.9503ZM172.518 46.2817C170.376 47.0707 167.779 47.48 164.703 47.48V49.48C167.948 49.48 170.791 49.0493 173.209 48.1583L172.518 46.2817ZM206.538 46.44L207.133 47.2442L207.744 46.7928L207.473 46.0833L206.538 46.44ZM203.118 48L203.354 48.9719L203.364 48.9694L203.374 48.9667L203.118 48ZM189.978 45.54L189.293 46.2678L189.3 46.2743L189.978 45.54ZM186.858 23.64H187.858V22.64H186.858V23.64ZM181.878 23.64H180.878V24.64H181.878V23.64ZM181.878 16.44V15.44H180.878V16.44H181.878ZM186.858 16.44V17.44H187.858V16.44H186.858ZM186.858 8.58V7.58H185.858V8.58H186.858ZM196.218 8.58H197.218V7.58H196.218V8.58ZM196.218 16.44H195.218V17.44H196.218V16.44ZM204.258 16.44H205.258V15.44H204.258V16.44ZM204.258 23.64V24.64H205.258V23.64H204.258ZM196.218 23.64V22.64H195.218V23.64H196.218ZM197.238 39.96L196.493 40.6268L196.512 40.6475L196.531 40.6671L197.238 39.96ZM204.018 39.84L204.953 39.4833L204.473 38.2283L203.409 39.0474L204.018 39.84ZM205.944 45.6358C205.146 46.2257 204.128 46.6984 202.863 47.0333L203.374 48.9667C204.829 48.5816 206.091 48.0143 207.133 47.2442L205.944 45.6358ZM202.883 47.0281C201.647 47.3279 200.326 47.48 198.918 47.48V49.48C200.471 49.48 201.95 49.3121 203.354 48.9719L202.883 47.0281ZM198.918 47.48C195.245 47.48 192.538 46.5449 190.657 44.8057L189.3 46.2743C191.658 48.4551 194.912 49.48 198.918 49.48V47.48ZM190.664 44.8122C188.845 43.0976 187.858 40.5193 187.858 36.9H185.858C185.858 40.8807 186.952 44.0624 189.293 46.2678L190.664 44.8122ZM187.858 36.9V23.64H185.858V36.9H187.858ZM186.858 22.64H181.878V24.64H186.858V22.64ZM182.878 23.64V16.44H180.878V23.64H182.878ZM181.878 17.44H186.858V15.44H181.878V17.44ZM187.858 16.44V8.58H185.858V16.44H187.858ZM186.858 9.58H196.218V7.58H186.858V9.58ZM195.218 8.58V16.44H197.218V8.58H195.218ZM196.218 17.44H204.258V15.44H196.218V17.44ZM203.258 16.44V23.64H205.258V16.44H203.258ZM204.258 22.64H196.218V24.64H204.258V22.64ZM195.218 23.64V36.78H197.218V23.64H195.218ZM195.218 36.78C195.218 38.3026 195.601 39.6296 196.493 40.6268L197.984 39.2932C197.516 38.7704 197.218 37.9774 197.218 36.78H195.218ZM196.531 40.6671C197.484 41.62 198.765 42.04 200.238 42.04V40.04C199.152 40.04 198.433 39.74 197.946 39.2529L196.531 40.6671ZM200.238 42.04C201.909 42.04 203.391 41.5841 204.628 40.6326L203.409 39.0474C202.566 39.6959 201.528 40.04 200.238 40.04V42.04ZM203.084 40.1967L205.604 46.7967L207.473 46.0833L204.953 39.4833L203.084 40.1967ZM211.793 15.72V14.72H210.793V15.72H211.793ZM221.153 15.72H222.153V14.72H221.153V15.72ZM221.153 48V49H222.153V48H221.153ZM211.793 48H210.793V49H211.793V48ZM212.273 9.72L211.593 10.4538L212.273 9.72ZM212.273 2.28L212.952 3.01376L212.952 3.01376L212.273 2.28ZM220.673 2.22L220.008 2.96741L220.008 2.96741L220.673 2.22ZM220.673 9.72L221.352 10.4538L221.359 10.4471L221.366 10.4403L220.673 9.72ZM211.793 16.72H221.153V14.72H211.793V16.72ZM220.153 15.72V48H222.153V15.72H220.153ZM221.153 47H211.793V49H221.153V47ZM212.793 48V15.72H210.793V48H212.793ZM216.473 10.22C214.959 10.22 213.816 9.78661 212.952 8.98624L211.593 10.4538C212.889 11.6534 214.546 12.22 216.473 12.22V10.22ZM212.952 8.98624C212.078 8.17668 211.653 7.20319 211.653 6H209.653C209.653 7.75681 210.308 9.26331 211.593 10.4538L212.952 8.98624ZM211.653 6C211.653 4.79681 212.078 3.82331 212.952 3.01376L211.593 1.54624C210.308 2.73668 209.653 4.24319 209.653 6H211.653ZM212.952 3.01376C213.816 2.21339 214.959 1.78 216.473 1.78V-0.220003C214.546 -0.220003 212.889 0.346606 211.593 1.54624L212.952 3.01376ZM216.473 1.78C217.997 1.78 219.145 2.20005 220.008 2.96741L221.337 1.47259C220.04 0.319945 218.388 -0.220003 216.473 -0.220003V1.78ZM220.008 2.96741C220.876 3.7384 221.293 4.66677 221.293 5.82H223.293C223.293 4.09323 222.63 2.6216 221.337 1.47259L220.008 2.96741ZM221.293 5.82C221.293 7.12058 220.855 8.15657 219.979 8.99968L221.366 10.4403C222.651 9.20342 223.293 7.63942 223.293 5.82H221.293ZM219.993 8.98624C219.129 9.78661 217.986 10.22 216.473 10.22V12.22C218.399 12.22 220.056 11.6534 221.352 10.4538L219.993 8.98624ZM236.14 46.38L235.672 47.2638L235.679 47.2679L235.687 47.2718L236.14 46.38ZM229.72 40.44L228.863 40.9565L228.869 40.9664L229.72 40.44ZM229.72 23.28L228.869 22.7536L228.863 22.7635L229.72 23.28ZM236.14 17.4L236.597 18.2891L236.602 18.2866L236.14 17.4ZM254.32 17.4L253.823 18.2682L253.832 18.2729L253.84 18.2774L254.32 17.4ZM259.9 23.46L260.373 24.3409L261.187 23.9037L260.815 23.0577L259.9 23.46ZM252.64 27.36L251.77 27.8536L252.252 28.7033L253.113 28.2409L252.64 27.36ZM239.32 25.32L238.612 24.6129L239.32 25.32ZM252.64 36.36L253.118 35.4821L252.246 35.0064L251.765 35.8754L252.64 36.36ZM259.9 40.32L260.81 40.7327L261.194 39.8868L260.378 39.4421L259.9 40.32ZM254.32 46.32L253.829 45.4484L253.823 45.4518L254.32 46.32ZM245.44 47.48C242.139 47.48 239.197 46.8094 236.592 45.4882L235.687 47.2718C238.602 48.7506 241.86 49.48 245.44 49.48V47.48ZM236.607 45.4962C234.038 44.136 232.033 42.2767 230.57 39.9136L228.869 40.9664C230.526 43.6433 232.801 45.744 235.672 47.2638L236.607 45.4962ZM230.576 39.9235C229.158 37.5729 228.44 34.8944 228.44 31.86H226.44C226.44 35.2256 227.241 38.2671 228.863 40.9565L230.576 39.9235ZM228.44 31.86C228.44 28.8256 229.158 26.1471 230.576 23.7965L228.863 22.7635C227.241 25.4529 226.44 28.4944 226.44 31.86H228.44ZM230.57 23.8064C232.031 21.4458 234.033 19.6089 236.597 18.2891L235.682 16.5109C232.806 17.9911 230.528 20.0742 228.869 22.7536L230.57 23.8064ZM236.602 18.2866C239.205 16.9287 242.143 16.24 245.44 16.24V14.24C241.856 14.24 238.594 14.9913 235.677 16.5134L236.602 18.2866ZM245.44 16.24C248.696 16.24 251.479 16.9284 253.823 18.2682L254.816 16.5318C252.12 14.9916 248.984 14.24 245.44 14.24V16.24ZM253.84 18.2774C256.208 19.5728 257.914 21.427 258.984 23.8623L260.815 23.0577C259.565 20.213 257.551 18.0272 254.799 16.5226L253.84 18.2774ZM259.426 22.5791L252.166 26.4791L253.113 28.2409L260.373 24.3409L259.426 22.5791ZM253.509 26.8664C251.668 23.6229 248.932 21.92 245.38 21.92V23.92C248.147 23.92 250.251 25.1771 251.77 27.8536L253.509 26.8664ZM245.38 21.92C242.697 21.92 240.416 22.8097 238.612 24.6129L240.027 26.0271C241.423 24.6303 243.182 23.92 245.38 23.92V21.92ZM238.612 24.6129C236.785 26.4402 235.92 28.8968 235.92 31.86H237.92C237.92 29.3032 238.654 27.3998 240.027 26.0271L238.612 24.6129ZM235.92 31.86C235.92 34.8232 236.785 37.2798 238.612 39.1071L240.027 37.6929C238.654 36.3202 237.92 34.4168 237.92 31.86H235.92ZM238.612 39.1071C240.416 40.9103 242.697 41.8 245.38 41.8V39.8C243.182 39.8 241.423 39.0897 240.027 37.6929L238.612 39.1071ZM245.38 41.8C247.139 41.8 248.73 41.391 250.116 40.5431C251.5 39.6969 252.627 38.4467 253.514 36.8446L251.765 35.8754C251.012 37.2333 250.109 38.2031 249.073 38.8369C248.039 39.469 246.82 39.8 245.38 39.8V41.8ZM252.161 37.2379L259.421 41.1979L260.378 39.4421L253.118 35.4821L252.161 37.2379ZM258.989 39.9073C257.921 42.2644 256.213 44.1077 253.829 45.4484L254.81 47.1916C257.546 45.6523 259.558 43.4956 260.81 40.7327L258.989 39.9073ZM253.823 45.4518C251.479 46.7916 248.696 47.48 245.44 47.48V49.48C248.984 49.48 252.12 48.7284 254.816 47.1882L253.823 45.4518ZM323.321 6L324.239 6.39724L324.843 5H323.321V6ZM305.141 48V49H305.798L306.059 48.3972L305.141 48ZM295.541 48L294.623 48.3961L294.883 49H295.541V48ZM277.421 6V5H275.9L276.503 6.39613L277.421 6ZM287.921 6L288.841 5.60808L288.582 5H287.921V6ZM300.701 36L299.781 36.3919L300.695 38.5365L301.619 36.3966L300.701 36ZM313.661 6V5H313.004L312.743 5.60342L313.661 6ZM322.403 5.60276L304.223 47.6028L306.059 48.3972L324.239 6.39724L322.403 5.60276ZM305.141 47H295.541V49H305.141V47ZM296.459 47.6039L278.339 5.60386L276.503 6.39613L294.623 48.3961L296.459 47.6039ZM277.421 7H287.921V5H277.421V7ZM287.001 6.39192L299.781 36.3919L301.621 35.6081L288.841 5.60808L287.001 6.39192ZM301.619 36.3966L314.579 6.39657L312.743 5.60342L299.783 35.6034L301.619 36.3966ZM313.661 7H323.321V5H313.661V7ZM326.754 15.72V14.72H325.754V15.72H326.754ZM336.114 15.72H337.114V14.72H336.114V15.72ZM336.114 48V49H337.114V48H336.114ZM326.754 48H325.754V49H326.754V48ZM327.234 9.72L326.554 10.4538L327.234 9.72ZM327.234 2.28L327.913 3.01376V3.01376L327.234 2.28ZM335.634 2.22L334.969 2.96741V2.96741L335.634 2.22ZM335.634 9.72L336.313 10.4538L336.32 10.4471L336.327 10.4403L335.634 9.72ZM326.754 16.72H336.114V14.72H326.754V16.72ZM335.114 15.72V48H337.114V15.72H335.114ZM336.114 47H326.754V49H336.114V47ZM327.754 48V15.72H325.754V48H327.754ZM331.434 10.22C329.92 10.22 328.777 9.78661 327.913 8.98624L326.554 10.4538C327.85 11.6534 329.507 12.22 331.434 12.22V10.22ZM327.913 8.98624C327.039 8.17668 326.614 7.20319 326.614 6H324.614C324.614 7.75681 325.268 9.26331 326.554 10.4538L327.913 8.98624ZM326.614 6C326.614 4.79681 327.039 3.82331 327.913 3.01376L326.554 1.54624C325.268 2.73668 324.614 4.24319 324.614 6H326.614ZM327.913 3.01376C328.777 2.21339 329.92 1.78 331.434 1.78V-0.220003C329.507 -0.220003 327.85 0.346606 326.554 1.54624L327.913 3.01376ZM331.434 1.78C332.958 1.78 334.106 2.20005 334.969 2.96741L336.298 1.47259C335.001 0.319945 333.349 -0.220003 331.434 -0.220003V1.78ZM334.969 2.96741C335.837 3.7384 336.254 4.66677 336.254 5.82H338.254C338.254 4.09323 337.591 2.6216 336.298 1.47259L334.969 2.96741ZM336.254 5.82C336.254 7.12058 335.815 8.15657 334.94 8.99968L336.327 10.4403C337.612 9.20342 338.254 7.63942 338.254 5.82H336.254ZM334.954 8.98624C334.09 9.78661 332.947 10.22 331.434 10.22V12.22C333.36 12.22 335.017 11.6534 336.313 10.4538L334.954 8.98624ZM347.8 47.52L347.544 48.4865L347.551 48.4884L347.558 48.4901L347.8 47.52ZM341.68 45L340.773 44.5789L340.41 45.3613L341.131 45.8354L341.68 45ZM344.8 38.28L345.339 37.4373L344.375 36.8216L343.893 37.8589L344.8 38.28ZM350.02 40.56L349.738 41.5194L349.747 41.5219L349.756 41.5243L350.02 40.56ZM360.34 36.48L359.993 37.4177L360.34 36.48ZM355.36 35.46L355.211 36.4487L355.224 36.4507L355.236 36.4523L355.36 35.46ZM348.82 34.08L349.11 33.1228L348.82 34.08ZM344.32 31.32L343.592 32.0047L343.597 32.0105L343.603 32.0161L344.32 31.32ZM344.2 20.28L343.4 19.68L343.398 19.6833L344.2 20.28ZM349.36 16.56L349 15.6271L348.995 15.6292L349.36 16.56ZM364.18 16.02L363.954 16.9941L363.964 16.9964L363.974 16.9985L364.18 16.02ZM369.82 18.06L370.726 18.4842L371.11 17.6636L370.332 17.2005L369.82 18.06ZM366.7 24.72L366.21 25.5912L367.149 26.1203L367.606 25.1442L366.7 24.72ZM352.9 23.16L352.412 22.2875L352.9 23.16ZM353.02 27.42L353.368 26.4823L353.02 27.42ZM358.18 28.56L358.345 27.5735L358.331 27.5714L358.18 28.56ZM364.66 30L364.365 30.9553L364.375 30.9585L364.386 30.9615L364.66 30ZM369.04 32.7L368.312 33.3847L369.04 32.7ZM369.1 43.56L369.893 44.1697L369.1 43.56ZM363.82 47.22L364.166 48.1584L364.175 48.155L363.82 47.22ZM355.66 47.48C353.061 47.48 350.522 47.1697 348.043 46.5499L347.558 48.4901C350.198 49.1503 352.9 49.48 355.66 49.48V47.48ZM348.057 46.5535C345.558 45.8897 343.629 45.0851 342.23 44.1646L341.131 45.8354C342.772 46.9149 344.923 47.7903 347.544 48.4865L348.057 46.5535ZM342.587 45.4211L345.707 38.7011L343.893 37.8589L340.773 44.5789L342.587 45.4211ZM344.262 39.1227C345.798 40.1041 347.629 40.899 349.738 41.5194L350.303 39.6006C348.332 39.021 346.683 38.2959 345.339 37.4373L344.262 39.1227ZM349.756 41.5243C351.875 42.1061 353.964 42.4 356.02 42.4V40.4C354.157 40.4 352.246 40.1339 350.285 39.5957L349.756 41.5243ZM356.02 42.4C358.051 42.4 359.721 42.154 360.919 41.5612C361.532 41.2579 362.053 40.848 362.419 40.3049C362.789 39.755 362.96 39.1271 362.96 38.46H360.96C360.96 38.7729 360.884 39.0025 360.76 39.1876C360.631 39.3795 360.409 39.5821 360.032 39.7688C359.25 40.156 357.95 40.4 356.02 40.4V42.4ZM362.96 38.46C362.96 37.7887 362.758 37.165 362.329 36.6418C361.914 36.1341 361.338 35.7831 360.688 35.5423L359.993 37.4177C360.423 37.5769 360.657 37.7559 360.782 37.9082C360.893 38.045 360.96 38.2113 360.96 38.46H362.96ZM360.688 35.5423C359.496 35.1009 357.743 34.75 355.484 34.4677L355.236 36.4523C357.458 36.73 359.025 37.0591 359.993 37.4177L360.688 35.5423ZM355.51 34.4713C352.897 34.0754 350.768 33.6241 349.11 33.1228L348.531 35.0372C350.313 35.5759 352.544 36.0446 355.211 36.4487L355.51 34.4713ZM349.11 33.1228C347.556 32.6532 346.203 31.8248 345.038 30.6239L343.603 32.0161C344.998 33.4552 346.644 34.4668 348.531 35.0372L349.11 33.1228ZM345.049 30.6353C344.037 29.5574 343.46 27.9557 343.46 25.68H341.46C341.46 28.2843 342.124 30.4426 343.592 32.0047L345.049 30.6353ZM343.46 25.68C343.46 23.8436 343.978 22.2553 345.003 20.8767L343.398 19.6833C342.103 21.4247 341.46 23.4364 341.46 25.68H343.46ZM345 20.88C346.068 19.4561 347.623 18.3168 349.726 17.4907L348.995 15.6292C346.617 16.5632 344.733 17.9039 343.4 19.68L345 20.88ZM349.721 17.4929C351.86 16.6671 354.413 16.24 357.4 16.24V14.24C354.228 14.24 351.421 14.6929 349 15.6271L349.721 17.4929ZM357.4 16.24C359.604 16.24 361.788 16.4912 363.954 16.9941L364.407 15.0459C362.093 14.5088 359.757 14.24 357.4 14.24V16.24ZM363.974 16.9985C366.182 17.4634 367.951 18.1116 369.309 18.9195L370.332 17.2005C368.73 16.2484 366.739 15.5366 364.386 15.0414L363.974 16.9985ZM368.915 17.6358L365.795 24.2958L367.606 25.1442L370.726 18.4842L368.915 17.6358ZM367.191 23.8488C364.197 22.1617 360.927 21.32 357.4 21.32V23.32C360.594 23.32 363.524 24.0783 366.21 25.5912L367.191 23.8488ZM357.4 21.32C355.34 21.32 353.635 21.6028 352.412 22.2875L353.389 24.0325C354.166 23.5972 355.461 23.32 357.4 23.32V21.32ZM352.412 22.2875C351.206 22.9626 350.4 23.9672 350.4 25.32H352.4C352.4 24.9128 352.595 24.4774 353.389 24.0325L352.412 22.2875ZM350.4 25.32C350.4 26.0106 350.591 26.6581 351.014 27.2058C351.428 27.743 352.01 28.112 352.673 28.3577L353.368 26.4823C352.951 26.328 352.723 26.147 352.597 25.9842C352.48 25.8319 352.4 25.6294 352.4 25.32H350.4ZM352.673 28.3577C353.854 28.795 355.658 29.1868 358.03 29.5486L358.331 27.5714C355.983 27.2132 354.347 26.845 353.368 26.4823L352.673 28.3577ZM358.016 29.5464C360.632 29.9824 362.744 30.4536 364.365 30.9553L364.956 29.0447C363.217 28.5064 361.009 28.0176 358.345 27.5736L358.016 29.5464ZM364.386 30.9615C365.886 31.3901 367.19 32.1912 368.312 33.3847L369.769 32.0153C368.41 30.5688 366.795 29.5699 364.935 29.0385L364.386 30.9615ZM368.312 33.3847C369.33 34.4684 369.9 36.0349 369.9 38.22H371.9C371.9 35.6851 371.231 33.5716 369.769 32.0153L368.312 33.3847ZM369.9 38.22C369.9 40.0033 369.371 41.5681 368.308 42.9503L369.893 44.1697C371.23 42.4319 371.9 40.4367 371.9 38.22H369.9ZM368.308 42.9503C367.247 44.3295 365.657 45.4538 363.466 46.285L364.175 48.155C366.624 47.2262 368.554 45.9105 369.893 44.1697L368.308 42.9503ZM363.475 46.2817C361.333 47.0707 358.736 47.48 355.66 47.48V49.48C358.905 49.48 361.748 49.0493 364.166 48.1583L363.475 46.2817ZM376.675 15.72V14.72H375.675V15.72H376.675ZM386.035 15.72H387.035V14.72H386.035V15.72ZM386.035 48V49H387.035V48H386.035ZM376.675 48H375.675V49H376.675V48ZM377.155 9.72L376.476 10.4538L377.155 9.72ZM377.155 2.28L377.835 3.01376V3.01376L377.155 2.28ZM385.555 2.22L384.891 2.96741V2.96741L385.555 2.22ZM385.555 9.72L386.235 10.4538L386.242 10.4471L386.249 10.4403L385.555 9.72ZM376.675 16.72H386.035V14.72H376.675V16.72ZM385.035 15.72V48H387.035V15.72H385.035ZM386.035 47H376.675V49H386.035V47ZM377.675 48V15.72H375.675V48H377.675ZM381.355 10.22C379.842 10.22 378.699 9.78661 377.835 8.98624L376.476 10.4538C377.772 11.6534 379.429 12.22 381.355 12.22V10.22ZM377.835 8.98624C376.961 8.17668 376.535 7.20319 376.535 6H374.535C374.535 7.75681 375.19 9.26331 376.476 10.4538L377.835 8.98624ZM376.535 6C376.535 4.79681 376.961 3.82331 377.835 3.01376L376.476 1.54624C375.19 2.73668 374.535 4.24319 374.535 6H376.535ZM377.835 3.01376C378.699 2.21339 379.842 1.78 381.355 1.78V-0.220003C379.429 -0.220003 377.772 0.346606 376.476 1.54624L377.835 3.01376ZM381.355 1.78C382.88 1.78 384.028 2.20005 384.891 2.96741L386.22 1.47259C384.923 0.319945 383.271 -0.220003 381.355 -0.220003V1.78ZM384.891 2.96741C385.758 3.7384 386.175 4.66677 386.175 5.82H388.175C388.175 4.09323 387.512 2.6216 386.22 1.47259L384.891 2.96741ZM386.175 5.82C386.175 7.12058 385.737 8.15657 384.862 8.99968L386.249 10.4403C387.534 9.20342 388.175 7.63942 388.175 5.82H386.175ZM384.876 8.98624C384.012 9.78661 382.869 10.22 381.355 10.22V12.22C383.282 12.22 384.939 11.6534 386.235 10.4538L384.876 8.98624ZM400.902 46.38L400.429 47.2609L400.437 47.2651L400.445 47.2691L400.902 46.38ZM394.602 40.44L393.746 40.9565L394.602 40.44ZM394.602 23.28L393.746 22.7635L394.602 23.28ZM400.902 17.4L401.365 18.2864L401.37 18.2838L400.902 17.4ZM419.202 17.4L418.729 18.281L418.739 18.2863L419.202 17.4ZM425.502 23.28L426.359 22.7635L425.502 23.28ZM425.502 40.44L426.359 40.9565L425.502 40.44ZM419.202 46.38L419.665 47.2664L419.676 47.2609L419.202 46.38ZM415.962 38.4L415.238 37.7108L415.237 37.7113L415.962 38.4ZM415.962 25.38L415.229 26.0598L415.238 26.069L415.246 26.0781L415.962 25.38ZM404.142 25.38L404.858 26.0782L404.867 26.0692L404.142 25.38ZM404.142 38.4L403.418 39.0893L403.426 39.0981L404.142 38.4ZM410.082 47.48C406.824 47.48 403.923 46.8102 401.36 45.4909L400.445 47.2691C403.321 48.7498 406.541 49.48 410.082 49.48V47.48ZM401.376 45.4991C398.848 44.141 396.883 42.2845 395.459 39.9235L393.746 40.9565C395.362 43.6355 397.597 45.739 400.429 47.2609L401.376 45.4991ZM395.459 39.9235C394.041 37.5729 393.322 34.8944 393.322 31.86H391.322C391.322 35.2256 392.124 38.2671 393.746 40.9565L395.459 39.9235ZM393.322 31.86C393.322 28.8256 394.041 26.1471 395.459 23.7965L393.746 22.7635C392.124 25.4529 391.322 28.4944 391.322 31.86H393.322ZM395.459 23.7965C396.881 21.438 398.843 19.6039 401.365 18.2863L400.439 16.5136C397.602 17.9961 395.363 20.082 393.746 22.7635L395.459 23.7965ZM401.37 18.2838C403.931 16.9278 406.828 16.24 410.082 16.24V14.24C406.537 14.24 403.313 14.9921 400.434 16.5162L401.37 18.2838ZM410.082 16.24C413.337 16.24 416.211 16.9279 418.729 18.2809L419.676 16.5191C416.834 14.9921 413.628 14.24 410.082 14.24V16.24ZM418.739 18.2863C421.262 19.6039 423.223 21.438 424.646 23.7965L426.359 22.7635C424.741 20.082 422.503 17.9961 419.665 16.5136L418.739 18.2863ZM424.646 23.7965C426.064 26.1471 426.782 28.8256 426.782 31.86H428.782C428.782 28.4944 427.981 25.4529 426.359 22.7635L424.646 23.7965ZM426.782 31.86C426.782 34.8944 426.064 37.5729 424.646 39.9235L426.359 40.9565C427.981 38.2671 428.782 35.2256 428.782 31.86H426.782ZM424.646 39.9235C423.222 42.2845 421.257 44.141 418.729 45.4991L419.676 47.2609C422.508 45.739 424.743 43.6355 426.359 40.9565L424.646 39.9235ZM418.739 45.4937C416.219 46.8101 413.341 47.48 410.082 47.48V49.48C413.623 49.48 416.825 48.7499 419.665 47.2663L418.739 45.4937ZM410.082 41.8C412.73 41.8 414.961 40.906 416.687 39.0887L415.237 37.7113C413.924 39.094 412.235 39.8 410.082 39.8V41.8ZM416.687 39.0892C418.458 37.227 419.302 34.7816 419.302 31.86H417.302C417.302 34.3784 416.586 36.293 415.238 37.7108L416.687 39.0892ZM419.302 31.86C419.302 28.9393 418.458 26.5077 416.678 24.6819L415.246 26.0781C416.586 27.4523 417.302 29.3407 417.302 31.86H419.302ZM416.696 24.7002C414.972 22.8399 412.738 21.92 410.082 21.92V23.92C412.227 23.92 413.913 24.6401 415.229 26.0598L416.696 24.7002ZM410.082 21.92C407.427 21.92 405.179 22.8393 403.418 24.6908L404.867 26.0692C406.226 24.6407 407.938 23.92 410.082 23.92V21.92ZM403.426 24.6819C401.646 26.5077 400.802 28.9393 400.802 31.86H402.802C402.802 29.3407 403.518 27.4523 404.858 26.0781L403.426 24.6819ZM400.802 31.86C400.802 34.7816 401.646 37.227 403.418 39.0892L404.867 37.7108C403.518 36.293 402.802 34.3784 402.802 31.86H400.802ZM403.426 39.0981C405.189 40.9064 407.435 41.8 410.082 41.8V39.8C407.93 39.8 406.215 39.0936 404.858 37.7019L403.426 39.0981ZM463.319 18.84L462.617 19.5529L462.623 19.5586L463.319 18.84ZM467.039 48V49H468.039V48H467.039ZM457.679 48H456.679V49H457.679V48ZM455.999 25.26L455.246 25.9185L455.251 25.9244L455.257 25.9303L455.999 25.26ZM445.499 25.56L446.216 26.2571L446.225 26.2472L445.499 25.56ZM443.399 48V49H444.399V48H443.399ZM434.039 48H433.039V49H434.039V48ZM434.039 15.72V14.72H433.039V15.72H434.039ZM442.979 15.72H443.979V14.72H442.979V15.72ZM442.979 19.5H441.979V22.081L443.718 20.1738L442.979 19.5ZM447.599 16.38L447.963 17.3112L447.972 17.3078L447.98 17.3043L447.599 16.38ZM453.659 16.24C457.444 16.24 460.396 17.3678 462.618 19.5529L464.02 18.1271C461.362 15.5122 457.873 14.24 453.659 14.24V16.24ZM462.623 19.5586C464.846 21.7092 466.039 24.9684 466.039 29.52H468.039C468.039 24.6316 466.752 20.7708 464.014 18.1214L462.623 19.5586ZM466.039 29.52V48H468.039V29.52H466.039ZM467.039 47H457.679V49H467.039V47ZM458.679 48V30.96H456.679V48H458.679ZM458.679 30.96C458.679 28.2796 458.096 26.09 456.741 24.5897L455.257 25.9303C456.142 26.91 456.679 28.5204 456.679 30.96H458.679ZM456.751 24.6015C455.396 23.0527 453.47 22.34 451.139 22.34V24.34C453.047 24.34 454.361 24.9073 455.246 25.9185L456.751 24.6015ZM451.139 22.34C448.551 22.34 446.392 23.161 444.772 24.8728L446.225 26.2472C447.406 24.999 449.006 24.34 451.139 24.34V22.34ZM444.782 24.8629C443.134 26.5574 442.399 29.0128 442.399 32.04H444.399C444.399 29.3072 445.063 27.4426 446.216 26.2571L444.782 24.8629ZM442.399 32.04V48H444.399V32.04H442.399ZM443.399 47H434.039V49H443.399V47ZM435.039 48V15.72H433.039V48H435.039ZM434.039 16.72H442.979V14.72H434.039V16.72ZM441.979 15.72V19.5H443.979V15.72H441.979ZM443.718 20.1738C444.847 18.9354 446.255 17.9795 447.963 17.3112L447.234 15.4488C445.262 16.2205 443.591 17.3446 442.24 18.8262L443.718 20.1738ZM447.98 17.3043C449.687 16.5993 451.576 16.24 453.659 16.24V14.24C451.342 14.24 449.19 14.6407 447.217 15.4557L447.98 17.3043ZM483.263 38.46L482.556 39.1671L482.563 39.1738L482.569 39.1803L483.263 38.46ZM484.583 45L483.613 44.7575L484.583 45ZM483.263 48.6L482.343 48.2089L482.338 48.2203L482.333 48.232L483.263 48.6ZM479.843 57.24V58.24H480.523L480.773 57.608L479.843 57.24ZM473.903 57.24L472.939 56.9733L472.589 58.24H473.903V57.24ZM476.543 47.7L477.507 47.9667L477.746 47.104L476.915 46.7715L476.543 47.7ZM474.143 45.78L473.289 46.2999L473.302 46.322L473.317 46.3433L474.143 45.78ZM474.923 38.46L475.617 39.1803L475.617 39.1798L474.923 38.46ZM479.123 37.84C480.567 37.84 481.683 38.2943 482.556 39.1671L483.97 37.7529C482.683 36.4657 481.039 35.84 479.123 35.84V37.84ZM482.569 39.1803C483.424 40.0035 483.883 41.1081 483.883 42.6H485.883C485.883 40.6519 485.262 38.9965 483.957 37.7397L482.569 39.1803ZM483.883 42.6C483.883 43.3158 483.794 44.0343 483.613 44.7575L485.553 45.2425C485.772 44.3657 485.883 43.4842 485.883 42.6H483.883ZM483.613 44.7575C483.433 45.4768 483.02 46.6164 482.343 48.2089L484.183 48.9911C484.867 47.3836 485.333 46.1232 485.553 45.2425L483.613 44.7575ZM482.333 48.232L478.913 56.872L480.773 57.608L484.193 48.968L482.333 48.232ZM479.843 56.24H473.903V58.24H479.843V56.24ZM474.867 57.5067L477.507 47.9667L475.579 47.4333L472.939 56.9733L474.867 57.5067ZM476.915 46.7715C476.097 46.4445 475.456 45.9305 474.969 45.2167L473.317 46.3433C474.03 47.3895 474.989 48.1555 476.172 48.6285L476.915 46.7715ZM474.997 45.2601C474.543 44.5141 474.303 43.6381 474.303 42.6H472.303C472.303 43.9619 472.623 45.2059 473.289 46.2999L474.997 45.2601ZM474.303 42.6C474.303 41.1081 474.762 40.0035 475.617 39.1803L474.229 37.7397C472.924 38.9965 472.303 40.6519 472.303 42.6H474.303ZM475.617 39.1798C476.535 38.2947 477.679 37.84 479.123 37.84V35.84C477.207 35.84 475.551 36.4653 474.229 37.7402L475.617 39.1798ZM541.398 40.2H542.398V39.2H541.398V40.2ZM541.398 48V49H542.398V48H541.398ZM508.878 48H507.878V49H508.878V48ZM508.878 6V5H507.878V6H508.878ZM540.618 6H541.618V5H540.618V6ZM540.618 13.8V14.8H541.618V13.8H540.618ZM518.538 13.8V12.8H517.538V13.8H518.538ZM518.538 22.92H517.538V23.92H518.538V22.92ZM538.038 22.92H539.038V21.92H538.038V22.92ZM538.038 30.48V31.48H539.038V30.48H538.038ZM518.538 30.48V29.48H517.538V30.48H518.538ZM518.538 40.2H517.538V41.2H518.538V40.2ZM540.398 40.2V48H542.398V40.2H540.398ZM541.398 47H508.878V49H541.398V47ZM509.878 48V6H507.878V48H509.878ZM508.878 7H540.618V5H508.878V7ZM539.618 6V13.8H541.618V6H539.618ZM540.618 12.8H518.538V14.8H540.618V12.8ZM517.538 13.8V22.92H519.538V13.8H517.538ZM518.538 23.92H538.038V21.92H518.538V23.92ZM537.038 22.92V30.48H539.038V22.92H537.038ZM538.038 29.48H518.538V31.48H538.038V29.48ZM517.538 30.48V40.2H519.538V30.48H517.538ZM518.538 41.2H541.398V39.2H518.538V41.2ZM568.582 48L567.769 48.5817L568.068 49H568.582V48ZM561.502 38.1L562.316 37.5183L561.516 36.3998L560.698 37.5055L561.502 38.1ZM554.182 48V49H554.686L554.986 48.5945L554.182 48ZM543.982 48L543.188 47.393L541.96 49H543.982V48ZM556.402 31.74L557.197 32.347L557.656 31.7459L557.203 31.1405L556.402 31.74ZM544.402 15.72V14.72H542.404L543.602 16.3195L544.402 15.72ZM554.902 15.72L555.711 15.1324L555.412 14.72H554.902V15.72ZM561.742 25.14L560.933 25.7276L561.732 26.8275L562.544 25.7375L561.742 25.14ZM568.762 15.72V14.72H568.26L567.96 15.1225L568.762 15.72ZM578.722 15.72L579.518 16.3253L580.739 14.72H578.722V15.72ZM566.722 31.5L565.926 30.8947L565.467 31.4984L565.925 32.1032L566.722 31.5ZM579.202 48V49H581.212L580 47.3968L579.202 48ZM569.396 47.4183L562.316 37.5183L560.689 38.6817L567.769 48.5817L569.396 47.4183ZM560.698 37.5055L553.378 47.4055L554.986 48.5945L562.306 38.6945L560.698 37.5055ZM554.182 47H543.982V49H554.182V47ZM544.777 48.607L557.197 32.347L555.607 31.133L543.188 47.393L544.777 48.607ZM557.203 31.1405L545.203 15.1205L543.602 16.3195L555.602 32.3395L557.203 31.1405ZM544.402 16.72H554.902V14.72H544.402V16.72ZM554.093 16.3076L560.933 25.7276L562.551 24.5524L555.711 15.1324L554.093 16.3076ZM562.544 25.7375L569.564 16.3175L567.96 15.1225L560.94 24.5425L562.544 25.7375ZM568.762 16.72H578.722V14.72H568.762V16.72ZM577.926 15.1147L565.926 30.8947L567.518 32.1053L579.518 16.3253L577.926 15.1147ZM565.925 32.1032L578.405 48.6032L580 47.3968L567.52 30.8968L565.925 32.1032ZM579.202 47H568.582V49H579.202V47ZM589.05 46.38L588.582 47.2638L588.59 47.2679L588.597 47.2718L589.05 46.38ZM582.63 40.44L581.773 40.9565L581.779 40.9664L582.63 40.44ZM582.63 23.28L581.779 22.7536L581.773 22.7635L582.63 23.28ZM589.05 17.4L589.507 18.2891L589.512 18.2866L589.05 17.4ZM607.23 17.4L606.734 18.2682L606.742 18.2729L606.75 18.2774L607.23 17.4ZM612.81 23.46L613.283 24.3409L614.097 23.9037L613.725 23.0577L612.81 23.46ZM605.55 27.36L604.68 27.8536L605.162 28.7033L606.023 28.2409L605.55 27.36ZM592.23 25.32L591.523 24.6129L592.23 25.32ZM605.55 36.36L606.029 35.4821L605.156 35.0064L604.675 35.8754L605.55 36.36ZM612.81 40.32L613.721 40.7327L614.104 39.8868L613.289 39.4421L612.81 40.32ZM607.23 46.32L606.739 45.4484L606.734 45.4518L607.23 46.32ZM598.35 47.48C595.049 47.48 592.107 46.8094 589.502 45.4882L588.597 47.2718C591.513 48.7506 594.77 49.48 598.35 49.48V47.48ZM589.518 45.4962C586.948 44.136 584.943 42.2767 583.48 39.9136L581.779 40.9664C583.437 43.6433 585.711 45.744 588.582 47.2638L589.518 45.4962ZM583.486 39.9235C582.068 37.5729 581.35 34.8944 581.35 31.86H579.35C579.35 35.2256 580.151 38.2671 581.773 40.9565L583.486 39.9235ZM581.35 31.86C581.35 28.8256 582.068 26.1471 583.486 23.7965L581.773 22.7635C580.151 25.4529 579.35 28.4944 579.35 31.86H581.35ZM583.48 23.8064C584.941 21.4458 586.943 19.6089 589.507 18.2891L588.592 16.5109C585.716 17.9911 583.438 20.0742 581.779 22.7536L583.48 23.8064ZM589.512 18.2866C592.115 16.9287 595.054 16.24 598.35 16.24V14.24C594.766 14.24 591.504 14.9913 588.587 16.5134L589.512 18.2866ZM598.35 16.24C601.606 16.24 604.389 16.9284 606.734 18.2682L607.726 16.5318C605.031 14.9916 601.894 14.24 598.35 14.24V16.24ZM606.75 18.2774C609.119 19.5728 610.824 21.427 611.894 23.8623L613.725 23.0577C612.475 20.213 610.461 18.0272 607.709 16.5226L606.75 18.2774ZM612.336 22.5791L605.076 26.4791L606.023 28.2409L613.283 24.3409L612.336 22.5791ZM606.419 26.8664C604.578 23.6229 601.842 21.92 598.29 21.92V23.92C601.057 23.92 603.161 25.1771 604.68 27.8536L606.419 26.8664ZM598.29 21.92C595.607 21.92 593.326 22.8097 591.523 24.6129L592.937 26.0271C594.334 24.6303 596.092 23.92 598.29 23.92V21.92ZM591.523 24.6129C589.695 26.4402 588.83 28.8968 588.83 31.86H590.83C590.83 29.3032 591.564 27.3998 592.937 26.0271L591.523 24.6129ZM588.83 31.86C588.83 34.8232 589.695 37.2798 591.523 39.1071L592.937 37.6929C591.564 36.3202 590.83 34.4168 590.83 31.86H588.83ZM591.523 39.1071C593.326 40.9103 595.607 41.8 598.29 41.8V39.8C596.092 39.8 594.334 39.0897 592.937 37.6929L591.523 39.1071ZM598.29 41.8C600.05 41.8 601.64 41.391 603.026 40.5431C604.41 39.6969 605.537 38.4467 606.424 36.8446L604.675 35.8754C603.923 37.2333 603.019 38.2031 601.983 38.8369C600.949 39.469 599.73 39.8 598.29 39.8V41.8ZM605.071 37.2379L612.331 41.1979L613.289 39.4421L606.029 35.4821L605.071 37.2379ZM611.899 39.9073C610.831 42.2644 609.123 44.1077 606.739 45.4484L607.72 47.1916C610.456 45.6523 612.469 43.4956 613.721 40.7327L611.899 39.9073ZM606.734 45.4518C604.389 46.7916 601.606 47.48 598.35 47.48V49.48C601.894 49.48 605.031 48.7284 607.726 47.1882L606.734 45.4518ZM618.199 15.72V14.72H617.199V15.72H618.199ZM627.559 15.72H628.559V14.72H627.559V15.72ZM627.559 48V49H628.559V48H627.559ZM618.199 48H617.199V49H618.199V48ZM618.679 9.72L618 10.4538L618.679 9.72ZM618.679 2.28L619.358 3.01376V3.01376L618.679 2.28ZM627.079 2.22L626.415 2.96741V2.96741L627.079 2.22ZM627.079 9.72L627.758 10.4538L627.766 10.4471L627.773 10.4403L627.079 9.72ZM618.199 16.72H627.559V14.72H618.199V16.72ZM626.559 15.72V48H628.559V15.72H626.559ZM627.559 47H618.199V49H627.559V47ZM619.199 48V15.72H617.199V48H619.199ZM622.879 10.22C621.366 10.22 620.223 9.78661 619.358 8.98624L618 10.4538C619.295 11.6534 620.952 12.22 622.879 12.22V10.22ZM619.358 8.98624C618.484 8.17668 618.059 7.20319 618.059 6H616.059C616.059 7.75681 616.714 9.26331 618 10.4538L619.358 8.98624ZM618.059 6C618.059 4.79681 618.484 3.82331 619.358 3.01376L618 1.54624C616.714 2.73668 616.059 4.24319 616.059 6H618.059ZM619.358 3.01376C620.223 2.21339 621.366 1.78 622.879 1.78V-0.220003C620.952 -0.220003 619.295 0.346606 618 1.54624L619.358 3.01376ZM622.879 1.78C624.403 1.78 625.551 2.20005 626.415 2.96741L627.743 1.47259C626.447 0.319945 624.795 -0.220003 622.879 -0.220003V1.78ZM626.415 2.96741C627.282 3.7384 627.699 4.66677 627.699 5.82H629.699C629.699 4.09323 629.036 2.6216 627.743 1.47259L626.415 2.96741ZM627.699 5.82C627.699 7.12058 627.261 8.15657 626.385 8.99968L627.773 10.4403C629.057 9.20342 629.699 7.63942 629.699 5.82H627.699ZM626.399 8.98624C625.535 9.78661 624.392 10.22 622.879 10.22V12.22C624.806 12.22 626.463 11.6534 627.758 10.4538L626.399 8.98624ZM657.066 46.44L657.66 47.2442L658.271 46.7928L658 46.0833L657.066 46.44ZM653.646 48L653.881 48.9719L653.892 48.9694L653.902 48.9667L653.646 48ZM640.506 45.54L639.82 46.2678L639.827 46.2743L640.506 45.54ZM637.386 23.64H638.386V22.64H637.386V23.64ZM632.406 23.64H631.406V24.64H632.406V23.64ZM632.406 16.44V15.44H631.406V16.44H632.406ZM637.386 16.44V17.44H638.386V16.44H637.386ZM637.386 8.58V7.58H636.386V8.58H637.386ZM646.746 8.58H647.746V7.58H646.746V8.58ZM646.746 16.44H645.746V17.44H646.746V16.44ZM654.786 16.44H655.786V15.44H654.786V16.44ZM654.786 23.64V24.64H655.786V23.64H654.786ZM646.746 23.64V22.64H645.746V23.64H646.746ZM647.766 39.96L647.021 40.6268L647.039 40.6475L647.059 40.6671L647.766 39.96ZM654.546 39.84L655.48 39.4833L655.001 38.2283L653.936 39.0474L654.546 39.84ZM656.471 45.6358C655.673 46.2257 654.655 46.6984 653.39 47.0333L653.902 48.9667C655.357 48.5816 656.618 48.0143 657.66 47.2442L656.471 45.6358ZM653.41 47.0281C652.174 47.3279 650.853 47.48 649.446 47.48V49.48C650.998 49.48 652.478 49.3121 653.881 48.9719L653.41 47.0281ZM649.446 47.48C645.773 47.48 643.066 46.5449 641.185 44.8057L639.827 46.2743C642.186 48.4551 645.439 49.48 649.446 49.48V47.48ZM641.192 44.8122C639.372 43.0976 638.386 40.5193 638.386 36.9H636.386C636.386 40.8807 637.48 44.0624 639.82 46.2678L641.192 44.8122ZM638.386 36.9V23.64H636.386V36.9H638.386ZM637.386 22.64H632.406V24.64H637.386V22.64ZM633.406 23.64V16.44H631.406V23.64H633.406ZM632.406 17.44H637.386V15.44H632.406V17.44ZM638.386 16.44V8.58H636.386V16.44H638.386ZM637.386 9.58H646.746V7.58H637.386V9.58ZM645.746 8.58V16.44H647.746V8.58H645.746ZM646.746 17.44H654.786V15.44H646.746V17.44ZM653.786 16.44V23.64H655.786V16.44H653.786ZM654.786 22.64H646.746V24.64H654.786V22.64ZM645.746 23.64V36.78H647.746V23.64H645.746ZM645.746 36.78C645.746 38.3026 646.128 39.6296 647.021 40.6268L648.511 39.2932C648.043 38.7704 647.746 37.9774 647.746 36.78H645.746ZM647.059 40.6671C648.012 41.62 649.292 42.04 650.766 42.04V40.04C649.679 40.04 648.96 39.74 648.473 39.2529L647.059 40.6671ZM650.766 42.04C652.437 42.04 653.919 41.5841 655.156 40.6326L653.936 39.0474C653.093 39.6959 652.055 40.04 650.766 40.04V42.04ZM653.612 40.1967L656.132 46.7967L658 46.0833L655.48 39.4833L653.612 40.1967ZM662.32 15.72V14.72H661.32V15.72H662.32ZM671.68 15.72H672.68V14.72H671.68V15.72ZM671.68 48V49H672.68V48H671.68ZM662.32 48H661.32V49H662.32V48ZM662.8 9.72L662.121 10.4538L662.8 9.72ZM662.8 2.28L663.479 3.01376V3.01376L662.8 2.28ZM671.2 2.22L670.536 2.96741V2.96741L671.2 2.22ZM671.2 9.72L671.879 10.4538L671.887 10.4471L671.894 10.4403L671.2 9.72ZM662.32 16.72H671.68V14.72H662.32V16.72ZM670.68 15.72V48H672.68V15.72H670.68ZM671.68 47H662.32V49H671.68V47ZM663.32 48V15.72H661.32V48H663.32ZM667 10.22C665.487 10.22 664.344 9.78661 663.479 8.98624L662.121 10.4538C663.416 11.6534 665.073 12.22 667 12.22V10.22ZM663.479 8.98624C662.605 8.17668 662.18 7.20319 662.18 6H660.18C660.18 7.75681 660.835 9.26331 662.121 10.4538L663.479 8.98624ZM662.18 6C662.18 4.79681 662.605 3.82331 663.479 3.01376L662.121 1.54624C660.835 2.73668 660.18 4.24319 660.18 6H662.18ZM663.479 3.01376C664.344 2.21339 665.487 1.78 667 1.78V-0.220003C665.073 -0.220003 663.416 0.346606 662.121 1.54624L663.479 3.01376ZM667 1.78C668.524 1.78 669.672 2.20005 670.536 2.96741L671.864 1.47259C670.568 0.319945 668.916 -0.220003 667 -0.220003V1.78ZM670.536 2.96741C671.403 3.7384 671.82 4.66677 671.82 5.82H673.82C673.82 4.09323 673.157 2.6216 671.864 1.47259L670.536 2.96741ZM671.82 5.82C671.82 7.12058 671.382 8.15657 670.506 8.99968L671.894 10.4403C673.178 9.20342 673.82 7.63942 673.82 5.82H671.82ZM670.521 8.98624C669.656 9.78661 668.513 10.22 667 10.22V12.22C668.927 12.22 670.584 11.6534 671.879 10.4538L670.521 8.98624ZM709.647 18.84L708.946 19.5529L708.951 19.5586L709.647 18.84ZM713.367 48V49H714.367V48H713.367ZM704.007 48H703.007V49H704.007V48ZM702.327 25.26L701.574 25.9185L701.579 25.9244L701.585 25.9303L702.327 25.26ZM691.827 25.56L692.544 26.2571L692.553 26.2472L691.827 25.56ZM689.727 48V49H690.727V48H689.727ZM680.367 48H679.367V49H680.367V48ZM680.367 15.72V14.72H679.367V15.72H680.367ZM689.307 15.72H690.307V14.72H689.307V15.72ZM689.307 19.5H688.307V22.081L690.046 20.1738L689.307 19.5ZM693.927 16.38L694.291 17.3112L694.3 17.3078L694.309 17.3043L693.927 16.38ZM699.987 16.24C703.772 16.24 706.724 17.3678 708.946 19.5529L710.348 18.1271C707.69 15.5122 704.202 14.24 699.987 14.24V16.24ZM708.951 19.5586C711.174 21.7092 712.367 24.9684 712.367 29.52H714.367C714.367 24.6316 713.08 20.7708 710.342 18.1214L708.951 19.5586ZM712.367 29.52V48H714.367V29.52H712.367ZM713.367 47H704.007V49H713.367V47ZM705.007 48V30.96H703.007V48H705.007ZM705.007 30.96C705.007 28.2796 704.424 26.09 703.069 24.5897L701.585 25.9303C702.47 26.91 703.007 28.5204 703.007 30.96H705.007ZM703.079 24.6015C701.724 23.0527 699.798 22.34 697.467 22.34V24.34C699.375 24.34 700.69 24.9073 701.574 25.9185L703.079 24.6015ZM697.467 22.34C694.88 22.34 692.72 23.161 691.1 24.8728L692.553 26.2472C693.734 24.999 695.334 24.34 697.467 24.34V22.34ZM691.11 24.8629C689.462 26.5574 688.727 29.0128 688.727 32.04H690.727C690.727 29.3072 691.391 27.4426 692.544 26.2571L691.11 24.8629ZM688.727 32.04V48H690.727V32.04H688.727ZM689.727 47H680.367V49H689.727V47ZM681.367 48V15.72H679.367V48H681.367ZM680.367 16.72H689.307V14.72H680.367V16.72ZM688.307 15.72V19.5H690.307V15.72H688.307ZM690.046 20.1738C691.175 18.9354 692.583 17.9795 694.291 17.3112L693.562 15.4488C691.59 16.2205 689.919 17.3446 688.568 18.8262L690.046 20.1738ZM694.309 17.3043C696.015 16.5993 697.904 16.24 699.987 16.24V14.24C697.67 14.24 695.518 14.6407 693.545 15.4557L694.309 17.3043ZM755.503 15.72H756.503V14.72H755.503V15.72ZM750.883 55.8L750.2 55.0696L750.883 55.8ZM728.503 58.98L728.241 59.9451L728.503 58.98ZM721.543 55.68L720.668 55.1957L720.255 55.9419L720.927 56.4675L721.543 55.68ZM725.263 48.96L725.898 48.1881L724.97 47.4236L724.388 48.4757L725.263 48.96ZM730.423 51.6L730.734 50.6495L730.725 50.6468L730.717 50.6442L730.423 51.6ZM743.803 50.4L743.125 49.6652L743.115 49.6742L743.105 49.6835L743.803 50.4ZM746.143 42.42H747.143V39.8362L745.403 41.7468L746.143 42.42ZM727.783 44.52L727.307 45.3995L727.316 45.4042L727.324 45.4086L727.783 44.52ZM721.963 39L722.816 38.4791L721.963 39ZM721.963 22.68L722.816 23.2009L721.963 22.68ZM727.783 17.22L728.247 18.1056L728.253 18.1027L727.783 17.22ZM746.623 19.86L745.839 20.481L747.623 22.7327V19.86H746.623ZM746.623 15.72V14.72H745.623V15.72H746.623ZM743.863 36.6L744.541 37.3348L744.542 37.3341L743.863 36.6ZM743.863 25.14L743.175 25.8655L743.184 25.8745L743.194 25.8833L743.863 25.14ZM731.683 25.14L732.352 25.8834L732.362 25.8741L731.683 25.14ZM731.683 36.6L731.004 37.3342L731.014 37.3433L731.683 36.6ZM754.503 15.72V42.6H756.503V15.72H754.503ZM754.503 42.6C754.503 48.3577 753.007 52.4448 750.2 55.0696L751.566 56.5304C754.919 53.3952 756.503 48.6823 756.503 42.6H754.503ZM750.2 55.0696C747.369 57.717 743.152 59.12 737.383 59.12V61.12C743.454 61.12 748.237 59.643 751.566 56.5304L750.2 55.0696ZM737.383 59.12C734.345 59.12 731.473 58.7501 728.765 58.0149L728.241 59.9451C731.132 60.7299 734.181 61.12 737.383 61.12V59.12ZM728.765 58.0149C726.063 57.2817 723.872 56.233 722.159 54.8925L720.927 56.4675C722.894 58.007 725.342 59.1583 728.241 59.9451L728.765 58.0149ZM722.418 56.1643L726.138 49.4443L724.388 48.4757L720.668 55.1957L722.418 56.1643ZM724.627 49.7319C726.109 50.952 727.952 51.8861 730.129 52.5558L730.717 50.6442C728.733 50.0339 727.137 49.208 725.898 48.1881L724.627 49.7319ZM730.112 52.5505C732.287 53.2616 734.472 53.62 736.663 53.62V51.62C734.694 51.62 732.719 51.2984 730.734 50.6495L730.112 52.5505ZM736.663 53.62C740.029 53.62 742.716 52.8543 744.5 51.1165L743.105 49.6835C741.85 50.9057 739.776 51.62 736.663 51.62V53.62ZM744.481 51.1348C746.317 49.4403 747.143 46.9258 747.143 43.8H745.143C745.143 46.5942 744.409 48.4797 743.125 49.6652L744.481 51.1348ZM747.143 43.8V42.42H745.143V43.8H747.143ZM745.403 41.7468C743.191 44.1768 740.083 45.44 735.943 45.44V47.44C740.522 47.44 744.215 46.0232 746.882 43.0932L745.403 41.7468ZM735.943 45.44C733.132 45.44 730.571 44.8338 728.241 43.6314L727.324 45.4086C729.955 46.7662 732.833 47.44 735.943 47.44V45.44ZM728.259 43.6405C725.974 42.4042 724.164 40.6877 722.816 38.4791L721.109 39.5209C722.642 42.0323 724.712 43.9958 727.307 45.3995L728.259 43.6405ZM722.816 38.4791C721.483 36.2934 720.803 33.7578 720.803 30.84H718.803C718.803 34.0822 719.563 36.9865 721.109 39.5209L722.816 38.4791ZM720.803 30.84C720.803 27.9222 721.483 25.3866 722.816 23.2009L721.109 22.1591C719.563 24.6935 718.803 27.5978 718.803 30.84H720.803ZM722.816 23.2009C724.162 20.9949 725.968 19.3011 728.247 18.1055L727.318 16.3345C724.717 17.6989 722.643 19.6451 721.109 22.1591L722.816 23.2009ZM728.253 18.1027C730.58 16.8639 733.138 16.24 735.943 16.24V14.24C732.828 14.24 729.945 14.9361 727.313 16.3373L728.253 18.1027ZM735.943 16.24C740.382 16.24 743.626 17.6872 745.839 20.481L747.407 19.239C744.74 15.8728 740.863 14.24 735.943 14.24V16.24ZM747.623 19.86V15.72H745.623V19.86H747.623ZM746.623 16.72H755.503V14.72H746.623V16.72ZM737.803 39.76C740.489 39.76 742.766 38.9736 744.541 37.3348L743.185 35.8652C741.84 37.1064 740.076 37.76 737.803 37.76V39.76ZM744.542 37.3341C746.365 35.648 747.263 33.4529 747.263 30.84H745.263C745.263 32.9471 744.561 34.592 743.184 35.8659L744.542 37.3341ZM747.263 30.84C747.263 28.2271 746.364 26.0459 744.532 24.3967L743.194 25.8833C744.561 27.1141 745.263 28.7329 745.263 30.84H747.263ZM744.551 24.4145C742.777 22.7312 740.497 21.92 737.803 21.92V23.92C740.069 23.92 741.829 24.5888 743.175 25.8655L744.551 24.4145ZM737.803 21.92C735.108 21.92 732.814 22.7312 731.004 24.4059L732.362 25.8741C733.751 24.5888 735.537 23.92 737.803 23.92V21.92ZM731.014 24.3967C729.181 26.0459 728.283 28.2271 728.283 30.84H730.283C730.283 28.7329 730.984 27.1141 732.352 25.8833L731.014 24.3967ZM728.283 30.84C728.283 33.4529 729.181 35.648 731.004 37.3341L732.362 35.8659C730.985 34.592 730.283 32.9471 730.283 30.84H728.283ZM731.014 37.3433C732.825 38.9735 735.116 39.76 737.803 39.76V37.76C735.53 37.76 733.74 37.1065 732.352 35.8567L731.014 37.3433ZM791.587 13.8V12.8H790.587V13.8H791.587ZM791.587 24.9H790.587V25.9H791.587V24.9ZM811.027 24.9H812.027V23.9H811.027V24.9ZM811.027 32.7V33.7H812.027V32.7H811.027ZM791.587 32.7V31.7H790.587V32.7H791.587ZM791.587 48V49H792.587V48H791.587ZM781.867 48H780.867V49H781.867V48ZM781.867 6V5H780.867V6H781.867ZM813.607 6H814.607V5H813.607V6ZM813.607 13.8V14.8H814.607V13.8H813.607ZM790.587 13.8V24.9H792.587V13.8H790.587ZM791.587 25.9H811.027V23.9H791.587V25.9ZM810.027 24.9V32.7H812.027V24.9H810.027ZM811.027 31.7H791.587V33.7H811.027V31.7ZM790.587 32.7V48H792.587V32.7H790.587ZM791.587 47H781.867V49H791.587V47ZM782.867 48V6H780.867V48H782.867ZM781.867 7H813.607V5H781.867V7ZM812.607 6V13.8H814.607V6H812.607ZM813.607 12.8H791.587V14.8H813.607V12.8ZM850.147 34.5V35.5H851.073L851.144 34.5767L850.147 34.5ZM825.727 34.5V33.5H824.483L824.75 34.7149L825.727 34.5ZM828.847 39.24L829.424 38.4236L828.847 39.24ZM839.407 40.26L839.758 41.1963L839.766 41.1934L839.773 41.1904L839.407 40.26ZM843.067 37.86L843.802 37.1821L843.109 36.4304L842.373 37.1402L843.067 37.86ZM848.047 43.26L848.8 43.9179L849.39 43.2419L848.782 42.5821L848.047 43.26ZM825.067 46.38L824.609 47.2693L824.62 47.2744L825.067 46.38ZM818.587 40.44L817.73 40.9565L818.587 40.44ZM818.527 23.34L817.667 22.8295L817.664 22.8336L818.527 23.34ZM824.707 17.4L825.181 18.2805L825.186 18.2779L824.707 17.4ZM842.107 17.28L842.576 16.3969L842.107 17.28ZM848.107 23.16L847.235 23.6503L847.24 23.6584L847.244 23.6664L848.107 23.16ZM828.247 24.12L827.607 23.3518L828.247 24.12ZM825.607 29.04L824.618 28.8879L824.441 30.04H825.607V29.04ZM841.507 29.04V30.04H842.676L842.495 28.885L841.507 29.04ZM838.867 24.18L838.214 24.9378L838.22 24.943L838.227 24.9482L838.867 24.18ZM849.327 31.98C849.327 31.9717 849.326 32.0109 849.317 32.1426C849.31 32.2583 849.299 32.4199 849.284 32.6288C849.254 33.046 849.21 33.6439 849.15 34.4233L851.144 34.5767C851.261 33.0537 851.327 32.1507 851.327 31.98H849.327ZM850.147 33.5H825.727V35.5H850.147V33.5ZM824.75 34.7149C825.242 36.9529 826.422 38.7495 828.269 40.0564L829.424 38.4236C827.992 37.4105 827.091 36.0471 826.703 34.2851L824.75 34.7149ZM828.269 40.0564C830.112 41.3595 832.365 41.98 834.967 41.98V39.98C832.688 39.98 830.862 39.4405 829.424 38.4236L828.269 40.0564ZM834.967 41.98C836.74 41.98 838.343 41.7268 839.758 41.1963L839.056 39.3237C837.91 39.7532 836.553 39.98 834.967 39.98V41.98ZM839.773 41.1904C841.227 40.6179 842.556 39.742 843.761 38.5798L842.373 37.1402C841.338 38.138 840.227 38.8621 839.04 39.3296L839.773 41.1904ZM842.332 38.5379L847.312 43.9379L848.782 42.5821L843.802 37.1821L842.332 38.5379ZM847.294 42.6021C844.491 45.8098 840.36 47.48 834.727 47.48V49.48C840.773 49.48 845.522 47.6702 848.8 43.9179L847.294 42.6021ZM834.727 47.48C831.217 47.48 828.154 46.8057 825.514 45.4856L824.62 47.2744C827.579 48.7543 830.957 49.48 834.727 49.48V47.48ZM825.524 45.4907C822.877 44.1294 820.86 42.2735 819.443 39.9235L817.73 40.9565C819.353 43.6465 821.656 45.7506 824.609 47.2693L825.524 45.4907ZM819.443 39.9235C818.025 37.5729 817.307 34.8944 817.307 31.86H815.307C815.307 35.2256 816.108 38.2671 817.73 40.9565L819.443 39.9235ZM817.307 31.86C817.307 28.8631 818.006 26.2005 819.389 23.8464L817.664 22.8336C816.087 25.5195 815.307 28.5369 815.307 31.86H817.307ZM819.387 23.8505C820.815 21.4452 822.742 19.5937 825.181 18.2805L824.233 16.5195C821.471 18.0063 819.279 20.1148 817.667 22.8295L819.387 23.8505ZM825.186 18.2779C827.667 16.9242 830.441 16.24 833.527 16.24V14.24C830.133 14.24 827.026 14.9958 824.228 16.5221L825.186 18.2779ZM833.527 16.24C836.538 16.24 839.235 16.8866 841.638 18.1631L842.576 16.3969C839.859 14.9534 836.835 14.24 833.527 14.24V16.24ZM841.638 18.1631C844.026 19.4321 845.888 21.2547 847.235 23.6503L848.978 22.6697C847.446 19.9453 845.307 17.8479 842.576 16.3969L841.638 18.1631ZM847.244 23.6664C848.621 26.0111 849.327 28.771 849.327 31.98H851.327C851.327 28.469 850.552 25.3489 848.969 22.6536L847.244 23.6664ZM833.587 21.32C831.265 21.32 829.25 21.9824 827.607 23.3518L828.887 24.8882C830.124 23.8576 831.668 23.32 833.587 23.32V21.32ZM827.607 23.3518C825.956 24.7272 824.971 26.5987 824.618 28.8879L826.595 29.1921C826.883 27.3213 827.657 25.9128 828.887 24.8882L827.607 23.3518ZM825.607 30.04H841.507V28.04H825.607V30.04ZM842.495 28.885C842.141 26.6314 841.153 24.7834 839.507 23.4118L838.227 24.9482C839.461 25.9766 840.232 27.3686 840.519 29.195L842.495 28.885ZM839.519 23.4222C837.88 22.0108 835.882 21.32 833.587 21.32V23.32C835.452 23.32 836.973 23.8692 838.214 24.9378L839.519 23.4222ZM880.219 18.84L879.552 19.585L879.558 19.5905L880.219 18.84ZM884.239 48V49H885.239V48H884.239ZM875.479 48H874.479V49H875.479V48ZM875.479 43.98H876.479V40.2992L874.617 43.474L875.479 43.98ZM859.159 47.22L858.736 48.1262L858.744 48.1297L859.159 47.22ZM855.019 43.74L855.858 43.1958L855.019 43.74ZM856.939 31.62L856.337 30.8217L856.33 30.8269L856.939 31.62ZM874.879 29.04V30.04H875.879V29.04H874.879ZM873.019 24.36L872.349 25.1021L872.356 25.1082L872.363 25.1141L873.019 24.36ZM862.339 23.52L862.642 24.4732L862.649 24.471L862.656 24.4687L862.339 23.52ZM858.139 25.68L857.25 26.137L857.806 27.2203L858.761 26.4635L858.139 25.68ZM854.779 19.14L854.203 18.3225L853.492 18.8234L853.89 19.597L854.779 19.14ZM861.079 16.26L860.815 15.2956L860.811 15.2967L861.079 16.26ZM872.239 41.1L872.742 41.9648L872.752 41.9588L872.762 41.9526L872.239 41.1ZM874.879 37.8L875.82 38.1396L875.879 37.975V37.8H874.879ZM874.879 34.5H875.879V33.5H874.879V34.5ZM864.079 41.16L863.463 41.9475L863.482 41.9622L863.501 41.976L864.079 41.16ZM868.699 16.24C873.549 16.24 877.116 17.4036 879.552 19.5849L880.886 18.095C877.962 15.4764 873.849 14.24 868.699 14.24V16.24ZM879.558 19.5905C881.956 21.7013 883.239 24.9633 883.239 29.58H885.239C885.239 24.5967 883.843 20.6987 880.88 18.0895L879.558 19.5905ZM883.239 29.58V48H885.239V29.58H883.239ZM884.239 47H875.479V49H884.239V47ZM876.479 48V43.98H874.479V48H876.479ZM874.617 43.474C873.102 46.0569 870.236 47.48 865.639 47.48V49.48C870.643 49.48 874.337 47.9031 876.342 44.486L874.617 43.474ZM865.639 47.48C863.271 47.48 861.258 47.0789 859.575 46.3103L858.744 48.1297C860.74 49.0411 863.048 49.48 865.639 49.48V47.48ZM859.582 46.3138C857.93 45.5428 856.704 44.4993 855.858 43.1958L854.18 44.2842C855.255 45.9407 856.789 47.2172 858.737 48.1262L859.582 46.3138ZM855.858 43.1958C855.01 41.8887 854.579 40.4002 854.579 38.7H852.579C852.579 40.7598 853.108 42.6313 854.18 44.2842L855.858 43.1958ZM854.579 38.7C854.579 35.9883 855.572 33.9306 857.548 32.4132L856.33 30.8269C853.827 32.7494 852.579 35.4117 852.579 38.7H854.579ZM857.542 32.4183C859.567 30.8902 862.807 30.04 867.439 30.04V28.04C862.632 28.04 858.872 28.9098 856.337 30.8217L857.542 32.4183ZM867.439 30.04H874.879V28.04H867.439V30.04ZM875.879 29.04C875.879 26.7862 875.185 24.9203 873.676 23.6059L872.363 25.1141C873.333 25.9597 873.879 27.2138 873.879 29.04H875.879ZM873.69 23.6179C872.194 22.2673 870.05 21.68 867.439 21.68V23.68C869.789 23.68 871.364 24.2127 872.349 25.1021L873.69 23.6179ZM867.439 21.68C865.609 21.68 863.802 21.9783 862.023 22.5713L862.656 24.4687C864.237 23.9417 865.83 23.68 867.439 23.68V21.68ZM862.037 22.5668C860.3 23.1176 858.787 23.8898 857.518 24.8965L858.761 26.4635C859.812 25.6302 861.099 24.9624 862.642 24.4732L862.037 22.5668ZM859.029 25.223L855.669 18.683L853.89 19.597L857.25 26.137L859.029 25.223ZM855.355 19.9575C857.007 18.7938 858.999 17.8779 861.348 17.2233L860.811 15.2967C858.28 16.0021 856.072 17.0062 854.203 18.3225L855.355 19.9575ZM861.344 17.2244C863.737 16.5683 866.188 16.24 868.699 16.24V14.24C866.011 14.24 863.382 14.5917 860.815 15.2956L861.344 17.2244ZM867.979 43.18C869.735 43.18 871.332 42.7833 872.742 41.9648L871.737 40.2352C870.667 40.8567 869.424 41.18 867.979 41.18V43.18ZM872.762 41.9526C874.206 41.0674 875.227 39.781 875.82 38.1396L873.939 37.4604C873.492 38.699 872.753 39.6126 871.717 40.2474L872.762 41.9526ZM875.879 37.8V34.5H873.879V37.8H875.879ZM874.879 33.5H868.459V35.5H874.879V33.5ZM868.459 33.5C866.462 33.5 864.79 33.8219 863.591 34.609C862.318 35.4441 861.699 36.7219 861.699 38.28H863.699C863.699 37.3181 864.041 36.7059 864.688 36.281C865.409 35.8081 866.617 35.5 868.459 35.5V33.5ZM861.699 38.28C861.699 39.7778 862.293 41.032 863.463 41.9475L864.696 40.3725C864.025 39.848 863.699 39.1822 863.699 38.28H861.699ZM863.501 41.976C864.685 42.8145 866.212 43.18 867.979 43.18V41.18C866.467 41.18 865.394 40.8655 864.657 40.344L863.501 41.976ZM913.531 46.44L914.125 47.2442L914.736 46.7928L914.465 46.0833L913.531 46.44ZM910.111 48L910.346 48.9719L910.356 48.9694L910.367 48.9667L910.111 48ZM896.971 45.54L896.285 46.2678L896.292 46.2743L896.971 45.54ZM893.851 23.64H894.851V22.64H893.851V23.64ZM888.871 23.64H887.871V24.64H888.871V23.64ZM888.871 16.44V15.44H887.871V16.44H888.871ZM893.851 16.44V17.44H894.851V16.44H893.851ZM893.851 8.58V7.58H892.851V8.58H893.851ZM903.211 8.58H904.211V7.58H903.211V8.58ZM903.211 16.44H902.211V17.44H903.211V16.44ZM911.251 16.44H912.251V15.44H911.251V16.44ZM911.251 23.64V24.64H912.251V23.64H911.251ZM903.211 23.64V22.64H902.211V23.64H903.211ZM904.231 39.96L903.485 40.6268L903.504 40.6475L903.523 40.6671L904.231 39.96ZM911.011 39.84L911.945 39.4833L911.466 38.2283L910.401 39.0474L911.011 39.84ZM912.936 45.6358C912.138 46.2257 911.12 46.6984 909.855 47.0333L910.367 48.9667C911.821 48.5816 913.083 48.0143 914.125 47.2442L912.936 45.6358ZM909.875 47.0281C908.639 47.3279 907.318 47.48 905.911 47.48V49.48C907.463 49.48 908.943 49.3121 910.346 48.9719L909.875 47.0281ZM905.911 47.48C902.237 47.48 899.531 46.5449 897.649 44.8057L896.292 46.2743C898.651 48.4551 901.904 49.48 905.911 49.48V47.48ZM897.656 44.8122C895.837 43.0976 894.851 40.5193 894.851 36.9H892.851C892.851 40.8807 893.944 44.0624 896.285 46.2678L897.656 44.8122ZM894.851 36.9V23.64H892.851V36.9H894.851ZM893.851 22.64H888.871V24.64H893.851V22.64ZM889.871 23.64V16.44H887.871V23.64H889.871ZM888.871 17.44H893.851V15.44H888.871V17.44ZM894.851 16.44V8.58H892.851V16.44H894.851ZM893.851 9.58H903.211V7.58H893.851V9.58ZM902.211 8.58V16.44H904.211V8.58H902.211ZM903.211 17.44H911.251V15.44H903.211V17.44ZM910.251 16.44V23.64H912.251V16.44H910.251ZM911.251 22.64H903.211V24.64H911.251V22.64ZM902.211 23.64V36.78H904.211V23.64H902.211ZM902.211 36.78C902.211 38.3026 902.593 39.6296 903.485 40.6268L904.976 39.2932C904.508 38.7704 904.211 37.9774 904.211 36.78H902.211ZM903.523 40.6671C904.476 41.62 905.757 42.04 907.231 42.04V40.04C906.144 40.04 905.425 39.74 904.938 39.2529L903.523 40.6671ZM907.231 42.04C908.901 42.04 910.383 41.5841 911.62 40.6326L910.401 39.0474C909.558 39.6959 908.52 40.04 907.231 40.04V42.04ZM910.076 40.1967L912.596 46.7967L914.465 46.0833L911.945 39.4833L910.076 40.1967ZM951.305 15.72H952.305V14.72H951.305V15.72ZM951.305 48V49H952.305V48H951.305ZM942.425 48H941.425V49H942.425V48ZM942.425 44.16H943.425V41.5228L941.676 43.497L942.425 44.16ZM937.985 47.4L938.371 48.3224L938.38 48.3187L938.389 48.3147L937.985 47.4ZM922.325 44.82L923.026 44.1072L922.325 44.82ZM918.605 15.72V14.72H917.605V15.72H918.605ZM927.965 15.72H928.965V14.72H927.965V15.72ZM939.905 38.22L940.632 38.9067L940.641 38.8966L939.905 38.22ZM941.945 15.72V14.72H940.945V15.72H941.945ZM950.305 15.72V48H952.305V15.72H950.305ZM951.305 47H942.425V49H951.305V47ZM943.425 48V44.16H941.425V48H943.425ZM941.676 43.497C940.532 44.7887 939.17 45.7831 937.581 46.4853L938.389 48.3147C940.24 47.4969 941.838 46.3313 943.173 44.823L941.676 43.497ZM937.599 46.4776C936.01 47.1427 934.282 47.48 932.405 47.48V49.48C934.528 49.48 936.52 49.0973 938.371 48.3224L937.599 46.4776ZM932.405 47.48C928.366 47.48 925.28 46.3244 923.026 44.1072L921.624 45.5328C924.33 48.1956 927.963 49.48 932.405 49.48V47.48ZM923.026 44.1072C920.8 41.9174 919.605 38.5961 919.605 33.96H917.605C917.605 38.9239 918.889 42.8426 921.624 45.5328L923.026 44.1072ZM919.605 33.96V15.72H917.605V33.96H919.605ZM918.605 16.72H927.965V14.72H918.605V16.72ZM926.965 15.72V32.58H928.965V15.72H926.965ZM926.965 32.58C926.965 35.2954 927.53 37.5182 928.834 39.0725C930.165 40.6605 932.12 41.38 934.505 41.38V39.38C932.53 39.38 931.215 38.7995 930.366 37.7875C929.489 36.7418 928.965 35.0646 928.965 32.58H926.965ZM934.505 41.38C936.98 41.38 939.057 40.5737 940.632 38.9066L939.178 37.5334C938.032 38.7463 936.509 39.38 934.505 39.38V41.38ZM940.641 38.8966C942.232 37.1657 942.945 34.7028 942.945 31.68H940.945C940.945 34.4172 940.298 36.3143 939.169 37.5434L940.641 38.8966ZM942.945 31.68V15.72H940.945V31.68H942.945ZM941.945 16.72H951.305V14.72H941.945V16.72ZM968.916 19.98H967.916V23.0875L969.729 20.5632L968.916 19.98ZM973.416 16.44L973.032 15.5169L973.025 15.5198L973.416 16.44ZM980.016 15.24H981.016V14.24H980.016V15.24ZM980.016 23.88L979.94 24.8771L981.016 24.9599V23.88H980.016ZM971.616 26.04L972.314 26.7565L972.323 26.7471L971.616 26.04ZM969.336 48V49H970.336V48H969.336ZM959.976 48H958.976V49H959.976V48ZM959.976 15.72V14.72H958.976V15.72H959.976ZM968.916 15.72H969.916V14.72H968.916V15.72ZM969.729 20.5632C970.735 19.1615 972.085 18.0932 973.808 17.3602L973.025 15.5198C970.987 16.3868 969.338 17.6785 968.104 19.3968L969.729 20.5632ZM973.801 17.3631C975.578 16.6226 977.643 16.24 980.016 16.24V14.24C977.429 14.24 975.095 14.6574 973.032 15.5169L973.801 17.3631ZM979.016 15.24V23.88H981.016V15.24H979.016ZM980.093 22.8829C979.058 22.8034 978.321 22.76 977.916 22.76V24.76C978.232 24.76 978.894 24.7966 979.94 24.8771L980.093 22.8829ZM977.916 22.76C975.04 22.76 972.661 23.5815 970.909 25.3329L972.323 26.7471C973.612 25.4585 975.432 24.76 977.916 24.76V22.76ZM970.919 25.3235C969.137 27.0584 968.336 29.6036 968.336 32.76H970.336C970.336 29.9164 971.056 27.9816 972.314 26.7565L970.919 25.3235ZM968.336 32.76V48H970.336V32.76H968.336ZM969.336 47H959.976V49H969.336V47ZM960.976 48V15.72H958.976V48H960.976ZM959.976 16.72H968.916V14.72H959.976V16.72ZM967.916 15.72V19.98H969.916V15.72H967.916ZM1016.73 34.5V35.5H1017.65L1017.73 34.5767L1016.73 34.5ZM992.309 34.5V33.5H991.065L991.332 34.7149L992.309 34.5ZM995.429 39.24L996.006 38.4236L995.429 39.24ZM1005.99 40.26L1006.34 41.1963L1006.35 41.1934L1006.36 41.1904L1005.99 40.26ZM1009.65 37.86L1010.38 37.1821L1009.69 36.4304L1008.95 37.1402L1009.65 37.86ZM1014.63 43.26L1015.38 43.9179L1015.97 43.2419L1015.36 42.5821L1014.63 43.26ZM991.649 46.38L991.191 47.2693L991.202 47.2744L991.649 46.38ZM985.169 40.44L984.312 40.9565L985.169 40.44ZM985.109 23.34L984.249 22.8295L984.246 22.8336L985.109 23.34ZM991.289 17.4L991.763 18.2805L991.768 18.2779L991.289 17.4ZM1008.69 17.28L1009.16 16.3969L1008.69 17.28ZM1014.69 23.16L1013.82 23.6503L1013.82 23.6584L1013.83 23.6664L1014.69 23.16ZM994.829 24.12L994.189 23.3518L994.829 24.12ZM992.189 29.04L991.2 28.8879L991.023 30.04H992.189V29.04ZM1008.09 29.04V30.04H1009.26L1009.08 28.885L1008.09 29.04ZM1005.45 24.18L1004.8 24.9378L1004.8 24.943L1004.81 24.9482L1005.45 24.18ZM1015.91 31.98C1015.91 31.9717 1015.91 32.0109 1015.9 32.1426C1015.89 32.2583 1015.88 32.4199 1015.87 32.6288C1015.84 33.046 1015.79 33.6439 1015.73 34.4233L1017.73 34.5767C1017.84 33.0537 1017.91 32.1507 1017.91 31.98H1015.91ZM1016.73 33.5H992.309V35.5H1016.73V33.5ZM991.332 34.7149C991.824 36.9529 993.004 38.7495 994.851 40.0564L996.006 38.4236C994.574 37.4105 993.673 36.0471 993.285 34.2851L991.332 34.7149ZM994.851 40.0564C996.694 41.3595 998.947 41.98 1001.55 41.98V39.98C999.27 39.98 997.444 39.4405 996.006 38.4236L994.851 40.0564ZM1001.55 41.98C1003.32 41.98 1004.93 41.7268 1006.34 41.1963L1005.64 39.3237C1004.49 39.7532 1003.14 39.98 1001.55 39.98V41.98ZM1006.36 41.1904C1007.81 40.6179 1009.14 39.742 1010.34 38.5798L1008.95 37.1402C1007.92 38.138 1006.81 38.8621 1005.62 39.3296L1006.36 41.1904ZM1008.91 38.5379L1013.89 43.9379L1015.36 42.5821L1010.38 37.1821L1008.91 38.5379ZM1013.88 42.6021C1011.07 45.8098 1006.94 47.48 1001.31 47.48V49.48C1007.36 49.48 1012.1 47.6702 1015.38 43.9179L1013.88 42.6021ZM1001.31 47.48C997.799 47.48 994.736 46.8057 992.096 45.4856L991.202 47.2744C994.161 48.7543 997.539 49.48 1001.31 49.48V47.48ZM992.106 45.4907C989.459 44.1294 987.443 42.2735 986.025 39.9235L984.312 40.9565C985.935 43.6465 988.238 45.7506 991.191 47.2693L992.106 45.4907ZM986.025 39.9235C984.607 37.5729 983.889 34.8944 983.889 31.86H981.889C981.889 35.2256 982.69 38.2671 984.312 40.9565L986.025 39.9235ZM983.889 31.86C983.889 28.8631 984.589 26.2005 985.971 23.8464L984.246 22.8336C982.669 25.5195 981.889 28.5369 981.889 31.86H983.889ZM985.969 23.8505C987.397 21.4452 989.324 19.5937 991.763 18.2805L990.815 16.5195C988.054 18.0063 985.861 20.1148 984.249 22.8295L985.969 23.8505ZM991.768 18.2779C994.249 16.9242 997.023 16.24 1000.11 16.24V14.24C996.715 14.24 993.608 14.9958 990.81 16.5221L991.768 18.2779ZM1000.11 16.24C1003.12 16.24 1005.82 16.8866 1008.22 18.1631L1009.16 16.3969C1006.44 14.9534 1003.42 14.24 1000.11 14.24V16.24ZM1008.22 18.1631C1010.61 19.4321 1012.47 21.2547 1013.82 23.6503L1015.56 22.6697C1014.03 19.9453 1011.89 17.8479 1009.16 16.3969L1008.22 18.1631ZM1013.83 23.6664C1015.2 26.0111 1015.91 28.771 1015.91 31.98H1017.91C1017.91 28.469 1017.13 25.3489 1015.55 22.6536L1013.83 23.6664ZM1000.17 21.32C997.847 21.32 995.832 21.9824 994.189 23.3518L995.469 24.8882C996.706 23.8576 998.25 23.32 1000.17 23.32V21.32ZM994.189 23.3518C992.538 24.7272 991.553 26.5987 991.2 28.8879L993.177 29.1921C993.465 27.3213 994.24 25.9128 995.469 24.8882L994.189 23.3518ZM992.189 30.04H1008.09V28.04H992.189V30.04ZM1009.08 28.885C1008.72 26.6314 1007.73 24.7834 1006.09 23.4118L1004.81 24.9482C1006.04 25.9766 1006.81 27.3686 1007.1 29.195L1009.08 28.885ZM1006.1 23.4222C1004.46 22.0108 1002.46 21.32 1000.17 21.32V23.32C1002.03 23.32 1003.56 23.8692 1004.8 24.9378L1006.1 23.4222ZM1026.14 47.52L1025.88 48.4865L1025.89 48.4884L1025.9 48.4901L1026.14 47.52ZM1020.02 45L1019.11 44.5789L1018.75 45.3613L1019.47 45.8354L1020.02 45ZM1023.14 38.28L1023.68 37.4373L1022.71 36.8216L1022.23 37.8589L1023.14 38.28ZM1028.36 40.56L1028.08 41.5194L1028.09 41.5219L1028.1 41.5243L1028.36 40.56ZM1038.68 36.48L1038.33 37.4177L1038.68 36.48ZM1033.7 35.46L1033.55 36.4487L1033.56 36.4507L1033.58 36.4523L1033.7 35.46ZM1027.16 34.08L1027.45 33.1228L1027.16 34.08ZM1022.66 31.32L1021.93 32.0047L1021.94 32.0105L1021.94 32.0161L1022.66 31.32ZM1022.54 20.28L1021.74 19.68L1021.74 19.6833L1022.54 20.28ZM1027.7 16.56L1027.34 15.6271L1027.33 15.6292L1027.7 16.56ZM1042.52 16.02L1042.29 16.9941L1042.3 16.9964L1042.31 16.9985L1042.52 16.02ZM1048.16 18.06L1049.07 18.4842L1049.45 17.6636L1048.67 17.2005L1048.16 18.06ZM1045.04 24.72L1044.55 25.5912L1045.49 26.1203L1045.95 25.1442L1045.04 24.72ZM1031.24 23.16L1030.75 22.2875L1031.24 23.16ZM1031.36 27.42L1031.71 26.4823L1031.36 27.42ZM1036.52 28.56L1036.68 27.5735L1036.67 27.5714L1036.52 28.56ZM1043 30L1042.7 30.9553L1042.72 30.9585L1042.73 30.9615L1043 30ZM1047.38 32.7L1046.65 33.3847L1047.38 32.7ZM1047.44 43.56L1048.23 44.1697L1047.44 43.56ZM1042.16 47.22L1042.51 48.1584L1042.52 48.155L1042.16 47.22ZM1034 47.48C1031.4 47.48 1028.86 47.1697 1026.38 46.5499L1025.9 48.4901C1028.54 49.1503 1031.24 49.48 1034 49.48V47.48ZM1026.4 46.5535C1023.9 45.8897 1021.97 45.0851 1020.57 44.1646L1019.47 45.8354C1021.11 46.9149 1023.26 47.7903 1025.88 48.4865L1026.4 46.5535ZM1020.93 45.4211L1024.05 38.7011L1022.23 37.8589L1019.11 44.5789L1020.93 45.4211ZM1022.6 39.1227C1024.14 40.1041 1025.97 40.899 1028.08 41.5194L1028.64 39.6006C1026.67 39.021 1025.02 38.2959 1023.68 37.4373L1022.6 39.1227ZM1028.1 41.5243C1030.22 42.1061 1032.3 42.4 1034.36 42.4V40.4C1032.5 40.4 1030.59 40.1339 1028.62 39.5957L1028.1 41.5243ZM1034.36 42.4C1036.39 42.4 1038.06 42.154 1039.26 41.5612C1039.87 41.2579 1040.39 40.848 1040.76 40.3049C1041.13 39.755 1041.3 39.1271 1041.3 38.46H1039.3C1039.3 38.7729 1039.22 39.0025 1039.1 39.1876C1038.97 39.3795 1038.75 39.5821 1038.37 39.7688C1037.59 40.156 1036.29 40.4 1034.36 40.4V42.4ZM1041.3 38.46C1041.3 37.7887 1041.1 37.165 1040.67 36.6418C1040.25 36.1341 1039.68 35.7831 1039.03 35.5423L1038.33 37.4177C1038.76 37.5769 1039 37.7559 1039.12 37.9082C1039.23 38.045 1039.3 38.2113 1039.3 38.46H1041.3ZM1039.03 35.5423C1037.84 35.1009 1036.08 34.75 1033.82 34.4677L1033.58 36.4523C1035.8 36.73 1037.36 37.0591 1038.33 37.4177L1039.03 35.5423ZM1033.85 34.4713C1031.24 34.0754 1029.11 33.6241 1027.45 33.1228L1026.87 35.0372C1028.65 35.5759 1030.88 36.0446 1033.55 36.4487L1033.85 34.4713ZM1027.45 33.1228C1025.9 32.6532 1024.54 31.8248 1023.38 30.6239L1021.94 32.0161C1023.34 33.4552 1024.98 34.4668 1026.87 35.0372L1027.45 33.1228ZM1023.39 30.6353C1022.38 29.5574 1021.8 27.9557 1021.8 25.68H1019.8C1019.8 28.2843 1020.46 30.4426 1021.93 32.0047L1023.39 30.6353ZM1021.8 25.68C1021.8 23.8436 1022.32 22.2553 1023.34 20.8767L1021.74 19.6833C1020.44 21.4247 1019.8 23.4364 1019.8 25.68H1021.8ZM1023.34 20.88C1024.41 19.4561 1025.96 18.3168 1028.07 17.4907L1027.33 15.6292C1024.96 16.5632 1023.07 17.9039 1021.74 19.68L1023.34 20.88ZM1028.06 17.4929C1030.2 16.6671 1032.75 16.24 1035.74 16.24V14.24C1032.57 14.24 1029.76 14.6929 1027.34 15.6271L1028.06 17.4929ZM1035.74 16.24C1037.94 16.24 1040.13 16.4912 1042.29 16.9941L1042.75 15.0459C1040.43 14.5088 1038.1 14.24 1035.74 14.24V16.24ZM1042.31 16.9985C1044.52 17.4634 1046.29 18.1116 1047.65 18.9195L1048.67 17.2005C1047.07 16.2484 1045.08 15.5366 1042.73 15.0414L1042.31 16.9985ZM1047.25 17.6358L1044.13 24.2958L1045.95 25.1442L1049.07 18.4842L1047.25 17.6358ZM1045.53 23.8488C1042.54 22.1617 1039.27 21.32 1035.74 21.32V23.32C1038.93 23.32 1041.86 24.0783 1044.55 25.5912L1045.53 23.8488ZM1035.74 21.32C1033.68 21.32 1031.97 21.6028 1030.75 22.2875L1031.73 24.0325C1032.51 23.5972 1033.8 23.32 1035.74 23.32V21.32ZM1030.75 22.2875C1029.55 22.9626 1028.74 23.9672 1028.74 25.32H1030.74C1030.74 24.9128 1030.93 24.4774 1031.73 24.0325L1030.75 22.2875ZM1028.74 25.32C1028.74 26.0106 1028.93 26.6581 1029.35 27.2058C1029.77 27.743 1030.35 28.112 1031.01 28.3577L1031.71 26.4823C1031.29 26.328 1031.06 26.147 1030.94 25.9842C1030.82 25.8319 1030.74 25.6294 1030.74 25.32H1028.74ZM1031.01 28.3577C1032.19 28.795 1034 29.1868 1036.37 29.5486L1036.67 27.5714C1034.32 27.2132 1032.69 26.845 1031.71 26.4823L1031.01 28.3577ZM1036.36 29.5464C1038.97 29.9824 1041.08 30.4536 1042.7 30.9553L1043.3 29.0447C1041.56 28.5064 1039.35 28.0176 1036.68 27.5736L1036.36 29.5464ZM1042.73 30.9615C1044.23 31.3901 1045.53 32.1912 1046.65 33.3847L1048.11 32.0153C1046.75 30.5688 1045.14 29.5699 1043.28 29.0385L1042.73 30.9615ZM1046.65 33.3847C1047.67 34.4684 1048.24 36.0349 1048.24 38.22H1050.24C1050.24 35.6851 1049.57 33.5716 1048.11 32.0153L1046.65 33.3847ZM1048.24 38.22C1048.24 40.0033 1047.71 41.5681 1046.65 42.9503L1048.23 44.1697C1049.57 42.4319 1050.24 40.4367 1050.24 38.22H1048.24ZM1046.65 42.9503C1045.59 44.3295 1044 45.4538 1041.81 46.285L1042.52 48.155C1044.96 47.2262 1046.89 45.9105 1048.23 44.1697L1046.65 42.9503ZM1041.81 46.2817C1039.67 47.0707 1037.08 47.48 1034 47.48V49.48C1037.24 49.48 1040.09 49.0493 1042.51 48.1583L1041.81 46.2817Z" fill="black"/>
<defs>
<linearGradient id="paint0_linear_27_16" x1="-5" y1="-10" x2="1051" y2="-10" gradientUnits="userSpaceOnUse">
<stop stop-color="#9328FF"/>
<stop offset="0.0001" stop-color="#9328FF"/>
<stop offset="1" stop-color="#AB58FF"/>
</linearGradient>
</defs>
</svg>
