<svg width="139" height="44" viewBox="0 0 139 44" fill="none" xmlns="http://www.w3.org/2000/svg">
<path d="M23.8044 43.72C19.4444 43.72 15.5044 42.78 11.9844 40.9C8.50438 39.02 5.76438 36.44 3.76438 33.16C1.80438 29.84 0.824375 26.12 0.824375 22C0.824375 17.88 1.80438 14.18 3.76438 10.9C5.76438 7.58 8.50438 4.98 11.9844 3.1C15.5044 1.22 19.4444 0.279999 23.8044 0.279999C28.1644 0.279999 32.0844 1.22 35.5644 3.1C39.0444 4.98 41.7844 7.58 43.7844 10.9C45.7844 14.18 46.7844 17.88 46.7844 22C46.7844 26.12 45.7844 29.84 43.7844 33.16C41.7844 36.44 39.0444 39.02 35.5644 40.9C32.0844 42.78 28.1644 43.72 23.8044 43.72ZM23.8044 35.44C26.2844 35.44 28.5244 34.88 30.5244 33.76C32.5244 32.6 34.0844 31 35.2044 28.96C36.3644 26.92 36.9444 24.6 36.9444 22C36.9444 19.4 36.3644 17.08 35.2044 15.04C34.0844 13 32.5244 11.42 30.5244 10.3C28.5244 9.14 26.2844 8.56 23.8044 8.56C21.3244 8.56 19.0844 9.14 17.0844 10.3C15.0844 11.42 13.5044 13 12.3444 15.04C11.2244 17.08 10.6644 19.4 10.6644 22C10.6644 24.6 11.2244 26.92 12.3444 28.96C13.5044 31 15.0844 32.6 17.0844 33.76C19.0844 34.88 21.3244 35.44 23.8044 35.44ZM72.7494 43.72C66.7494 43.72 62.0694 42.06 58.7094 38.74C55.3894 35.42 53.7294 30.68 53.7294 24.52V0.999997H63.4494V24.16C63.4494 31.68 66.5694 35.44 72.8094 35.44C75.8494 35.44 78.1694 34.54 79.7694 32.74C81.3694 30.9 82.1694 28.04 82.1694 24.16V0.999997H91.7694V24.52C91.7694 30.68 90.0894 35.42 86.7294 38.74C83.4094 42.06 78.7494 43.72 72.7494 43.72ZM128.135 43L120.035 31.3H119.555H111.095V43H101.375V0.999997H119.555C123.275 0.999997 126.495 1.62 129.215 2.86C131.975 4.1 134.095 5.86 135.575 8.14C137.055 10.42 137.795 13.12 137.795 16.24C137.795 19.36 137.035 22.06 135.515 24.34C134.035 26.58 131.915 28.3 129.155 29.5L138.575 43H128.135ZM127.955 16.24C127.955 13.88 127.195 12.08 125.675 10.84C124.155 9.56 121.935 8.92 119.015 8.92H111.095V23.56H119.015C121.935 23.56 124.155 22.92 125.675 21.64C127.195 20.36 127.955 18.56 127.955 16.24Z" fill="url(#paint0_linear_8:2)"/>
<defs>
<linearGradient id="paint0_linear_8:2" x1="-2" y1="-15" x2="141" y2="-15" gradientUnits="userSpaceOnUse">
<stop stop-color="#9328FF"/>
<stop offset="1" stop-color="#AB58FF"/>
</linearGradient>
</defs>
</svg>
