<svg width="331" height="44" viewBox="0 0 331 44" fill="none" xmlns="http://www.w3.org/2000/svg">
<path d="M27.74 43L26.0956 44.1384L26.6921 45H27.74V43ZM19.64 31.3L21.2844 30.1616L20.6879 29.3H19.64V31.3ZM10.7 31.3V29.3H8.7V31.3H10.7ZM10.7 43V45H12.7V43H10.7ZM0.98 43H-1.02V45H0.98V43ZM0.98 0.999997V-1H-1.02V0.999997H0.98ZM28.82 2.86L27.9904 4.67984L28.0004 4.68434L28.82 2.86ZM35.12 24.34L33.4559 23.2306L33.4513 23.2375L35.12 24.34ZM28.76 29.5L27.9625 27.6659L25.7214 28.6403L27.1198 30.6445L28.76 29.5ZM38.18 43V45H42.0143L39.8202 41.8555L38.18 43ZM25.28 10.84L23.9917 12.3698L24.0037 12.3799L24.0157 12.3897L25.28 10.84ZM10.7 8.92V6.92H8.7V8.92H10.7ZM10.7 23.56H8.7V25.56H10.7V23.56ZM25.28 21.64L26.5683 23.1698L25.28 21.64ZM29.3844 41.8616L21.2844 30.1616L17.9956 32.4384L26.0956 44.1384L29.3844 41.8616ZM19.64 29.3H19.16V33.3H19.64V29.3ZM19.16 29.3H10.7V33.3H19.16V29.3ZM8.7 31.3V43H12.7V31.3H8.7ZM10.7 41H0.98V45H10.7V41ZM2.98 43V0.999997H-1.02V43H2.98ZM0.98 3H19.16V-1H0.98V3ZM19.16 3C22.6618 3 25.5864 3.58386 27.9904 4.67981L29.6496 1.04018C26.6136 -0.343866 23.0982 -1 19.16 -1V3ZM28.0004 4.68434C30.4507 5.78521 32.255 7.30722 33.5024 9.22894L36.8576 7.05106C35.145 4.41278 32.7093 2.41479 29.6396 1.03566L28.0004 4.68434ZM33.5024 9.22894C34.7422 11.1389 35.4 13.4479 35.4 16.24H39.4C39.4 12.7921 38.5778 9.70114 36.8576 7.05106L33.5024 9.22894ZM35.4 16.24C35.4 19.0216 34.7275 21.3231 33.4559 23.2306L36.7841 25.4494C38.5525 22.7969 39.4 19.6984 39.4 16.24H35.4ZM33.4513 23.2375C32.21 25.1163 30.4118 26.601 27.9625 27.6659L29.5575 31.3341C32.6282 29.999 35.07 28.0437 36.7887 25.4425L33.4513 23.2375ZM27.1198 30.6445L36.5398 44.1445L39.8202 41.8555L30.4002 28.3555L27.1198 30.6445ZM38.18 41H27.74V45H38.18V41ZM29.56 16.24C29.56 13.4141 28.6252 10.9879 26.5443 9.29027L24.0157 12.3897C24.9748 13.1721 25.56 14.3459 25.56 16.24H29.56ZM26.5683 9.31018C24.5517 7.61198 21.7963 6.92 18.62 6.92V10.92C21.2837 10.92 22.9683 11.508 23.9917 12.3698L26.5683 9.31018ZM18.62 6.92H10.7V10.92H18.62V6.92ZM8.7 8.92V23.56H12.7V8.92H8.7ZM10.7 25.56H18.62V21.56H10.7V25.56ZM18.62 25.56C21.7963 25.56 24.5517 24.868 26.5683 23.1698L23.9917 20.1102C22.9683 20.972 21.2837 21.56 18.62 21.56V25.56ZM26.5683 23.1698C28.6172 21.4444 29.56 19.0402 29.56 16.24H25.56C25.56 18.0798 24.9828 19.2756 23.9917 20.1102L26.5683 23.1698ZM53.6211 40.9L52.6705 42.6597L52.6789 42.6642L53.6211 40.9ZM45.4011 33.16L43.6788 34.1768L43.6861 34.189L43.6935 34.2012L45.4011 33.16ZM45.4011 10.9L43.6879 9.86797L43.6843 9.87409L45.4011 10.9ZM53.6211 3.1L52.6789 1.33583L52.6705 1.34036L53.6211 3.1ZM85.4211 10.9L83.7079 11.932L83.7135 11.9412L85.4211 10.9ZM85.4211 33.16L87.1287 34.2012L87.1343 34.192L85.4211 33.16ZM77.2011 40.9L78.1517 42.6596L77.2011 40.9ZM72.1611 33.76L73.1383 35.505L73.1515 35.4976L73.1645 35.4901L72.1611 33.76ZM76.8411 28.96L75.1025 27.9714L75.0951 27.9844L75.0879 27.9975L76.8411 28.96ZM76.8411 15.04L75.0879 16.0025L75.0951 16.0156L75.1025 16.0286L76.8411 15.04ZM72.1611 10.3L71.1577 12.0301L71.1707 12.0376L71.1839 12.045L72.1611 10.3ZM58.7211 10.3L59.6983 12.045L59.7115 12.0376L59.7245 12.0301L58.7211 10.3ZM53.9811 15.04L52.2425 14.0514L52.2351 14.0644L52.2279 14.0775L53.9811 15.04ZM53.9811 28.96L52.2279 29.9225L52.2351 29.9356L52.2425 29.9486L53.9811 28.96ZM58.7211 33.76L57.7177 35.4901L57.7307 35.4976L57.7439 35.505L58.7211 33.76ZM65.4411 41.72C61.3787 41.72 57.7671 40.847 54.5633 39.1358L52.6789 42.6642C56.5151 44.713 60.7835 45.72 65.4411 45.72V41.72ZM54.5717 39.1404C51.3935 37.4234 48.9188 35.0873 47.1087 32.1188L43.6935 34.2012C45.8834 37.7927 48.8887 40.6166 52.6705 42.6596L54.5717 39.1404ZM47.1234 32.1432C45.3577 29.1524 44.4611 25.7878 44.4611 22H40.4611C40.4611 26.4522 41.5245 30.5276 43.6788 34.1768L47.1234 32.1432ZM44.4611 22C44.4611 18.212 45.3577 14.8716 47.1179 11.9259L43.6843 9.87409C41.5245 13.4884 40.4611 17.548 40.4611 22H44.4611ZM47.1143 11.932C48.9258 8.92491 51.3996 6.57331 54.5717 4.85964L52.6705 1.34036C48.8826 3.38669 45.8764 6.23508 43.6879 9.86797L47.1143 11.932ZM54.5633 4.86415C57.7671 3.15302 61.3787 2.28 65.4411 2.28V-1.72C60.7835 -1.72 56.5151 -0.713018 52.6789 1.33585L54.5633 4.86415ZM65.4411 2.28C69.5039 2.28 73.0916 3.15309 76.2505 4.85964L78.1517 1.34036C74.3506 -0.713093 70.0983 -1.72 65.4411 -1.72V2.28ZM76.2505 4.85964C79.4226 6.57331 81.8964 8.92491 83.7079 11.932L87.1343 9.86797C84.9458 6.23508 81.9396 3.38669 78.1517 1.34036L76.2505 4.85964ZM83.7135 11.9412C85.5084 14.8848 86.4211 18.2197 86.4211 22H90.4211C90.4211 17.5403 89.3338 13.4752 87.1287 9.85878L83.7135 11.9412ZM86.4211 22C86.4211 25.7802 85.5083 29.1393 83.7079 32.128L87.1343 34.192C89.3339 30.5407 90.4211 26.4598 90.4211 22H86.4211ZM83.7135 32.1188C81.9034 35.0873 79.4287 37.4234 76.2505 39.1404L78.1517 42.6596C81.9335 40.6166 84.9388 37.7927 87.1287 34.2012L83.7135 32.1188ZM76.2505 39.1404C73.0916 40.8469 69.5039 41.72 65.4411 41.72V45.72C70.0983 45.72 74.3506 44.7131 78.1517 42.6596L76.2505 39.1404ZM65.4411 37.44C68.2344 37.44 70.8155 36.8058 73.1383 35.505L71.1839 32.015C69.5066 32.9542 67.6078 33.44 65.4411 33.44V37.44ZM73.1645 35.4901C75.4819 34.146 77.3001 32.2797 78.5943 29.9225L75.0879 27.9975C74.1421 29.7203 72.8403 31.054 71.1577 32.0299L73.1645 35.4901ZM78.5797 29.9486C79.929 27.5757 80.5811 24.9083 80.5811 22H76.5811C76.5811 24.2917 76.0732 26.2643 75.1025 27.9714L78.5797 29.9486ZM80.5811 22C80.5811 19.0917 79.929 16.4243 78.5797 14.0514L75.1025 16.0286C76.0732 17.7357 76.5811 19.7083 76.5811 22H80.5811ZM78.5943 14.0775C77.2969 11.7144 75.4704 9.86094 73.1383 8.55499L71.1839 12.045C72.8518 12.9791 74.1453 14.2856 75.0879 16.0025L78.5943 14.0775ZM73.1645 8.56994C70.8376 7.22029 68.247 6.56 65.4411 6.56V10.56C67.5952 10.56 69.4846 11.0597 71.1577 12.0301L73.1645 8.56994ZM65.4411 6.56C62.6352 6.56 60.0446 7.22029 57.7177 8.56994L59.7245 12.0301C61.3976 11.0597 63.287 10.56 65.4411 10.56V6.56ZM57.7439 8.55499C55.4181 9.85745 53.5781 11.7025 52.2425 14.0514L55.7197 16.0286C56.704 14.2975 58.0241 12.9826 59.6983 12.045L57.7439 8.55499ZM52.2279 14.0775C50.9277 16.4458 50.3011 19.1037 50.3011 22H54.3011C54.3011 19.6963 54.7945 17.7142 55.7343 16.0025L52.2279 14.0775ZM50.3011 22C50.3011 24.8963 50.9277 27.5542 52.2279 29.9225L55.7343 27.9975C54.7945 26.2858 54.3011 24.3037 54.3011 22H50.3011ZM52.2425 29.9486C53.5748 32.2916 55.4065 34.1496 57.7177 35.4901L59.7245 32.0299C58.0357 31.0504 56.7074 29.7084 55.7197 27.9714L52.2425 29.9486ZM57.7439 35.505C60.0666 36.8058 62.6478 37.44 65.4411 37.44V33.44C63.2744 33.44 61.3755 32.9542 59.6983 32.015L57.7439 35.505ZM122.8 34L124.648 33.236L124.138 32H122.8V34ZM103.3 34V32H101.963L101.452 33.236L103.3 34ZM99.5802 43V45H100.918L101.428 43.764L99.5802 43ZM89.6202 43L87.7934 42.1858L86.5391 45H89.6202V43ZM108.34 0.999997V-1H107.042L106.513 0.185783L108.34 0.999997ZM117.94 0.999997L119.766 0.183608L119.237 -1H117.94V0.999997ZM136.72 43V45H139.805L138.546 42.1836L136.72 43ZM126.52 43L124.672 43.764L125.183 45H126.52V43ZM119.74 26.62V28.62H122.733L121.588 25.8547L119.74 26.62ZM113.08 10.54L114.928 9.77469L113.08 5.31338L111.232 9.77469L113.08 10.54ZM106.42 26.62L104.572 25.8547L103.427 28.62H106.42V26.62ZM122.8 32H103.3V36H122.8V32ZM101.452 33.236L97.7318 42.236L101.428 43.764L105.148 34.764L101.452 33.236ZM99.5802 41H89.6202V45H99.5802V41ZM91.4469 43.8142L110.167 1.81421L106.513 0.185783L87.7934 42.1858L91.4469 43.8142ZM108.34 3H117.94V-1H108.34V3ZM116.114 1.81639L134.894 43.8164L138.546 42.1836L119.766 0.183608L116.114 1.81639ZM136.72 41H126.52V45H136.72V41ZM128.368 42.236L124.648 33.236L120.952 34.764L124.672 43.764L128.368 42.236ZM121.588 25.8547L114.928 9.77469L111.232 11.3053L117.892 27.3853L121.588 25.8547ZM111.232 9.77469L104.572 25.8547L108.268 27.3853L114.928 11.3053L111.232 9.77469ZM106.42 28.62H119.74V24.62H106.42V28.62ZM141.078 0.999997V-1H139.078V0.999997H141.078ZM172.218 3.64L171.315 5.42473L171.327 5.43092L171.34 5.43695L172.218 3.64ZM180.378 10.96L178.668 11.9985L178.673 12.0064L178.678 12.0142L180.378 10.96ZM180.378 33.04L178.678 31.9858L178.673 31.9936L178.668 32.0015L180.378 33.04ZM172.218 40.42L173.104 42.213L173.112 42.2089L172.218 40.42ZM141.078 43H139.078V45H141.078V43ZM169.698 31.54L171.064 33.0005L171.065 32.9998L169.698 31.54ZM169.698 12.52L168.319 13.9688L168.331 13.9802L168.343 13.9914L169.698 12.52ZM150.798 8.98V6.98H148.798V8.98H150.798ZM150.798 35.02H148.798V37.02H150.798V35.02ZM141.078 3H160.158V-1H141.078V3ZM160.158 3C164.457 3 168.159 3.82838 171.315 5.42473L173.12 1.85527C169.317 -0.0683889 164.978 -1 160.158 -1V3ZM171.34 5.43695C174.537 6.99938 176.959 9.1855 178.668 11.9985L182.087 9.92148C179.956 6.4145 176.938 3.72062 173.096 1.84305L171.34 5.43695ZM178.678 12.0142C180.417 14.818 181.318 18.123 181.318 22H185.318C185.318 17.477 184.258 13.422 182.077 9.90581L178.678 12.0142ZM181.318 22C181.318 25.877 180.417 29.182 178.678 31.9858L182.077 34.0942C184.258 30.578 185.318 26.523 185.318 22H181.318ZM178.668 32.0015C176.957 34.8187 174.529 37.0282 171.323 38.6311L173.112 42.2089C176.946 40.2918 179.959 37.5813 182.087 34.0785L178.668 32.0015ZM171.331 38.627C168.171 40.189 164.464 41 160.158 41V45C164.972 45 169.304 44.091 173.104 42.213L171.331 38.627ZM160.158 41H141.078V45H160.158V41ZM143.078 43V0.999997H139.078V43H143.078ZM159.678 37.02C164.259 37.02 168.131 35.7446 171.064 33.0005L168.331 30.0795C166.305 31.9754 163.496 33.02 159.678 33.02V37.02ZM171.065 32.9998C174.054 30.2007 175.478 26.4573 175.478 22H171.478C171.478 25.5427 170.382 28.1593 168.331 30.0802L171.065 32.9998ZM175.478 22C175.478 17.5435 174.053 13.8116 171.052 11.0486L168.343 13.9914C170.382 15.8684 171.478 18.4565 171.478 22H175.478ZM171.076 11.0712C168.144 8.28088 164.268 6.98 159.678 6.98V10.98C163.487 10.98 166.291 12.0391 168.319 13.9688L171.076 11.0712ZM159.678 6.98H150.798V10.98H159.678V6.98ZM148.798 8.98V35.02H152.798V8.98H148.798ZM150.798 37.02H159.678V33.02H150.798V37.02ZM228.868 43L226.868 43.0048L226.873 45H228.868V43ZM228.808 17.8L230.808 17.7952L230.791 10.5602L227.089 16.7769L228.808 17.8ZM216.448 38.56V40.56H217.585L218.166 39.5831L216.448 38.56ZM212.068 38.56L210.359 39.5994L210.944 40.56H212.068V38.56ZM199.768 18.34L201.477 17.3006L197.768 11.2039V18.34H199.768ZM199.768 43V45H201.768V43H199.768ZM190.648 43H188.648V45H190.648V43ZM190.648 0.999997V-1H188.648V0.999997H190.648ZM198.688 0.999997L200.401 -0.031889L199.818 -1H198.688V0.999997ZM214.408 27.1L212.695 28.1319L214.421 30.9983L216.128 28.1203L214.408 27.1ZM229.888 0.999997V-1H228.749L228.168 -0.0202579L229.888 0.999997ZM237.868 0.999997L239.868 0.994283L239.862 -1H237.868V0.999997ZM237.988 43V45H239.994L239.988 42.9943L237.988 43ZM230.868 42.9952L230.808 17.7952L226.808 17.8048L226.868 43.0048L230.868 42.9952ZM227.089 16.7769L214.729 37.5369L218.166 39.5831L230.526 18.8231L227.089 16.7769ZM216.448 36.56H212.068V40.56H216.448V36.56ZM213.777 37.5206L201.477 17.3006L198.059 19.3794L210.359 39.5994L213.777 37.5206ZM197.768 18.34V43H201.768V18.34H197.768ZM199.768 41H190.648V45H199.768V41ZM192.648 43V0.999997H188.648V43H192.648ZM190.648 3H198.688V-1H190.648V3ZM196.975 2.03188L212.695 28.1319L216.121 26.0681L200.401 -0.031889L196.975 2.03188ZM216.128 28.1203L231.608 2.02025L228.168 -0.0202579L212.688 26.0797L216.128 28.1203ZM229.888 3H237.868V-1H229.888V3ZM235.868 1.00571L235.988 43.0057L239.988 42.9943L239.868 0.994283L235.868 1.00571ZM237.988 41H228.868V45H237.988V41ZM275.613 34L277.461 33.236L276.95 32H275.613V34ZM256.113 34V32H254.775L254.264 33.236L256.113 34ZM252.393 43V45H253.73L254.241 43.764L252.393 43ZM242.433 43L240.606 42.1858L239.352 45H242.433V43ZM261.153 0.999997V-1H259.854L259.326 0.185783L261.153 0.999997ZM270.753 0.999997L272.578 0.183608L272.049 -1H270.753V0.999997ZM289.533 43V45H292.618L291.358 42.1836L289.533 43ZM279.333 43L277.484 43.764L277.995 45H279.333V43ZM272.553 26.62V28.62H275.546L274.4 25.8547L272.553 26.62ZM265.893 10.54L267.74 9.77469L265.893 5.31338L264.045 9.77469L265.893 10.54ZM259.233 26.62L257.385 25.8547L256.24 28.62H259.233V26.62ZM275.613 32H256.113V36H275.613V32ZM254.264 33.236L250.544 42.236L254.241 43.764L257.961 34.764L254.264 33.236ZM252.393 41H242.433V45H252.393V41ZM244.259 43.8142L262.979 1.81421L259.326 0.185783L240.606 42.1858L244.259 43.8142ZM261.153 3H270.753V-1H261.153V3ZM268.927 1.81639L287.707 43.8164L291.358 42.1836L272.578 0.183608L268.927 1.81639ZM289.533 41H279.333V45H289.533V41ZM281.181 42.236L277.461 33.236L273.764 34.764L277.484 43.764L281.181 42.236ZM274.4 25.8547L267.74 9.77469L264.045 11.3053L270.705 27.3853L274.4 25.8547ZM264.045 9.77469L257.385 25.8547L261.08 27.3853L267.74 11.3053L264.045 9.77469ZM259.233 28.62H272.553V24.62H259.233V28.62ZM321.73 2.86L320.901 4.67984L320.911 4.68434L321.73 2.86ZM328.09 24.34L329.768 25.4289L329.772 25.4223L329.776 25.4156L328.09 24.34ZM321.73 29.62L322.537 31.4499L322.55 31.4443L321.73 29.62ZM303.61 31.42V29.42H301.61V31.42H303.61ZM303.61 43V45H305.61V43H303.61ZM293.89 43H291.89V45H293.89V43ZM293.89 0.999997V-1H291.89V0.999997H293.89ZM318.19 21.64L319.454 23.1897L319.466 23.1799L319.478 23.1698L318.19 21.64ZM318.19 10.84L316.902 12.3698L316.914 12.3799L316.926 12.3897L318.19 10.84ZM303.61 8.92V6.92H301.61V8.92H303.61ZM303.61 23.5H301.61V25.5H303.61V23.5ZM312.07 3C315.572 3 318.497 3.58386 320.901 4.67981L322.56 1.04018C319.524 -0.343866 316.008 -1 312.07 -1V3ZM320.911 4.68434C323.361 5.78521 325.165 7.30722 326.413 9.22894L329.768 7.05106C328.055 4.41278 325.619 2.41479 322.55 1.03566L320.911 4.68434ZM326.413 9.22894C327.652 11.1389 328.31 13.4479 328.31 16.24H332.31C332.31 12.7921 331.488 9.70114 329.768 7.05106L326.413 9.22894ZM328.31 16.24C328.31 18.9858 327.655 21.303 326.404 23.2644L329.776 25.4156C331.485 22.737 332.31 19.6542 332.31 16.24H328.31ZM326.413 23.2511C325.165 25.1728 323.361 26.6948 320.911 27.7957L322.55 31.4443C325.619 30.0652 328.055 28.0672 329.768 25.4289L326.413 23.2511ZM320.923 27.7902C318.513 28.8535 315.58 29.42 312.07 29.42V33.42C316 33.42 319.508 32.7865 322.537 31.4498L320.923 27.7902ZM312.07 29.42H303.61V33.42H312.07V29.42ZM301.61 31.42V43H305.61V31.42H301.61ZM303.61 41H293.89V45H303.61V41ZM295.89 43V0.999997H291.89V43H295.89ZM293.89 3H312.07V-1H293.89V3ZM311.53 25.5C314.694 25.5 317.439 24.8335 319.454 23.1897L316.926 20.0903C315.901 20.9265 314.206 21.5 311.53 21.5V25.5ZM319.478 23.1698C321.527 21.4444 322.47 19.0402 322.47 16.24H318.47C318.47 18.0798 317.893 19.2756 316.902 20.1102L319.478 23.1698ZM322.47 16.24C322.47 13.4141 321.535 10.9879 319.454 9.29027L316.926 12.3897C317.885 13.1721 318.47 14.3459 318.47 16.24H322.47ZM319.478 9.31018C317.462 7.61198 314.706 6.92 311.53 6.92V10.92C314.194 10.92 315.879 11.508 316.902 12.3698L319.478 9.31018ZM311.53 6.92H303.61V10.92H311.53V6.92ZM301.61 8.92V23.5H305.61V8.92H301.61ZM303.61 25.5H311.53V21.5H303.61V25.5Z" fill="url(#paint0_linear_32:254)"/>
<defs>
<linearGradient id="paint0_linear_32:254" x1="-4" y1="-15" x2="333" y2="-15" gradientUnits="userSpaceOnUse">
<stop stop-color="#7F00FF"/>
<stop offset="1" stop-color="#E100FF"/>
</linearGradient>
</defs>
</svg>
