<svg width="146" height="36" viewBox="0 0 146 36" fill="none" xmlns="http://www.w3.org/2000/svg">
<path d="M12.04 9.344C13.84 9.344 15.472 9.764 16.936 10.604C18.424 11.42 19.588 12.584 20.428 14.096C21.268 15.584 21.688 17.324 21.688 19.316C21.688 21.308 21.268 23.06 20.428 24.572C19.588 26.06 18.424 27.224 16.936 28.064C15.472 28.88 13.84 29.288 12.04 29.288C9.568 29.288 7.624 28.508 6.208 26.948V35.984H0.592V9.632H5.956V11.864C7.348 10.184 9.376 9.344 12.04 9.344ZM11.068 24.68C12.508 24.68 13.684 24.2 14.596 23.24C15.532 22.256 16 20.948 16 19.316C16 17.684 15.532 16.388 14.596 15.428C13.684 14.444 12.508 13.952 11.068 13.952C9.628 13.952 8.44 14.444 7.504 15.428C6.592 16.388 6.136 17.684 6.136 19.316C6.136 20.948 6.592 22.256 7.504 23.24C8.44 24.2 9.628 24.68 11.068 24.68ZM32.9431 9.344C35.9431 9.344 38.2471 10.064 39.8551 11.504C41.4631 12.92 42.2671 15.068 42.2671 17.948V29H37.0111V26.588C35.9551 28.388 33.9871 29.288 31.1071 29.288C29.6191 29.288 28.3231 29.036 27.2191 28.532C26.1391 28.028 25.3111 27.332 24.7351 26.444C24.1591 25.556 23.8711 24.548 23.8711 23.42C23.8711 21.62 24.5431 20.204 25.8871 19.172C27.2551 18.14 29.3551 17.624 32.1871 17.624H36.6511C36.6511 16.4 36.2791 15.464 35.5351 14.816C34.7911 14.144 33.6751 13.808 32.1871 13.808C31.1551 13.808 30.1351 13.976 29.1271 14.312C28.1431 14.624 27.3031 15.056 26.6071 15.608L24.5911 11.684C25.6471 10.94 26.9071 10.364 28.3711 9.956C29.8591 9.548 31.3831 9.344 32.9431 9.344ZM32.5111 25.508C33.4711 25.508 34.3231 25.292 35.0671 24.86C35.8111 24.404 36.3391 23.744 36.6511 22.88V20.9H32.7991C30.4951 20.9 29.3431 21.656 29.3431 23.168C29.3431 23.888 29.6191 24.464 30.1711 24.896C30.7471 25.304 31.5271 25.508 32.5111 25.508ZM53.8658 29.288C52.2578 29.288 50.6858 29.096 49.1498 28.712C47.6138 28.304 46.3898 27.8 45.4778 27.2L47.3498 23.168C48.2138 23.72 49.2578 24.176 50.4818 24.536C51.7058 24.872 52.9058 25.04 54.0818 25.04C56.4578 25.04 57.6458 24.452 57.6458 23.276C57.6458 22.724 57.3218 22.328 56.6738 22.088C56.0258 21.848 55.0298 21.644 53.6858 21.476C52.1018 21.236 50.7938 20.96 49.7618 20.648C48.7298 20.336 47.8298 19.784 47.0618 18.992C46.3178 18.2 45.9458 17.072 45.9458 15.608C45.9458 14.384 46.2938 13.304 46.9898 12.368C47.7098 11.408 48.7418 10.664 50.0858 10.136C51.4538 9.608 53.0618 9.344 54.9098 9.344C56.2778 9.344 57.6338 9.5 58.9778 9.812C60.3458 10.1 61.4738 10.508 62.3618 11.036L60.4898 15.032C58.7858 14.072 56.9258 13.592 54.9098 13.592C53.7098 13.592 52.8098 13.76 52.2098 14.096C51.6098 14.432 51.3098 14.864 51.3098 15.392C51.3098 15.992 51.6338 16.412 52.2818 16.652C52.9298 16.892 53.9618 17.12 55.3778 17.336C56.9618 17.6 58.2578 17.888 59.2658 18.2C60.2738 18.488 61.1498 19.028 61.8938 19.82C62.6378 20.612 63.0098 21.716 63.0098 23.132C63.0098 24.332 62.6498 25.4 61.9298 26.336C61.2098 27.272 60.1538 28.004 58.7618 28.532C57.3938 29.036 55.7618 29.288 53.8658 29.288ZM72.9908 29.288C71.3828 29.288 69.8108 29.096 68.2748 28.712C66.7388 28.304 65.5148 27.8 64.6028 27.2L66.4748 23.168C67.3388 23.72 68.3828 24.176 69.6068 24.536C70.8308 24.872 72.0308 25.04 73.2068 25.04C75.5828 25.04 76.7708 24.452 76.7708 23.276C76.7708 22.724 76.4468 22.328 75.7988 22.088C75.1508 21.848 74.1548 21.644 72.8108 21.476C71.2268 21.236 69.9188 20.96 68.8868 20.648C67.8548 20.336 66.9548 19.784 66.1868 18.992C65.4428 18.2 65.0708 17.072 65.0708 15.608C65.0708 14.384 65.4188 13.304 66.1148 12.368C66.8348 11.408 67.8668 10.664 69.2108 10.136C70.5788 9.608 72.1868 9.344 74.0348 9.344C75.4028 9.344 76.7588 9.5 78.1028 9.812C79.4708 10.1 80.5988 10.508 81.4868 11.036L79.6148 15.032C77.9108 14.072 76.0508 13.592 74.0348 13.592C72.8348 13.592 71.9348 13.76 71.3348 14.096C70.7348 14.432 70.4348 14.864 70.4348 15.392C70.4348 15.992 70.7588 16.412 71.4068 16.652C72.0548 16.892 73.0868 17.12 74.5028 17.336C76.0868 17.6 77.3828 17.888 78.3908 18.2C79.3988 18.488 80.2748 19.028 81.0188 19.82C81.7628 20.612 82.1348 21.716 82.1348 23.132C82.1348 24.332 81.7748 25.4 81.0548 26.336C80.3348 27.272 79.2788 28.004 77.8868 28.532C76.5188 29.036 74.8868 29.288 72.9908 29.288ZM85.5998 9.632H91.2158V29H85.5998V9.632ZM88.4078 6.932C87.3758 6.932 86.5358 6.632 85.8878 6.032C85.2398 5.432 84.9158 4.688 84.9158 3.8C84.9158 2.912 85.2398 2.168 85.8878 1.568C86.5358 0.967998 87.3758 0.667998 88.4078 0.667998C89.4398 0.667998 90.2798 0.955998 90.9278 1.532C91.5758 2.108 91.8998 2.828 91.8998 3.692C91.8998 4.628 91.5758 5.408 90.9278 6.032C90.2798 6.632 89.4398 6.932 88.4078 6.932ZM115.652 9.632L107.48 29H101.684L93.5479 9.632H99.3439L104.708 22.808L110.252 9.632H115.652ZM136.388 19.388C136.388 19.46 136.352 19.964 136.28 20.9H121.628C121.892 22.1 122.516 23.048 123.5 23.744C124.484 24.44 125.708 24.788 127.172 24.788C128.18 24.788 129.068 24.644 129.836 24.356C130.628 24.044 131.36 23.564 132.032 22.916L135.02 26.156C133.196 28.244 130.532 29.288 127.028 29.288C124.844 29.288 122.912 28.868 121.232 28.028C119.552 27.164 118.256 25.976 117.344 24.464C116.432 22.952 115.976 21.236 115.976 19.316C115.976 17.42 116.42 15.716 117.308 14.204C118.22 12.668 119.456 11.48 121.016 10.64C122.6 9.776 124.364 9.344 126.308 9.344C128.204 9.344 129.92 9.752 131.456 10.568C132.992 11.384 134.192 12.56 135.056 14.096C135.944 15.608 136.388 17.372 136.388 19.388ZM126.344 13.592C125.072 13.592 124.004 13.952 123.14 14.672C122.276 15.392 121.748 16.376 121.556 17.624H131.096C130.904 16.4 130.376 15.428 129.512 14.708C128.648 13.964 127.592 13.592 126.344 13.592ZM142.251 29.288C141.267 29.288 140.439 28.952 139.767 28.28C139.095 27.608 138.759 26.768 138.759 25.76C138.759 24.728 139.095 23.9 139.767 23.276C140.439 22.628 141.267 22.304 142.251 22.304C143.235 22.304 144.063 22.628 144.735 23.276C145.407 23.9 145.743 24.728 145.743 25.76C145.743 26.768 145.407 27.608 144.735 28.28C144.063 28.952 143.235 29.288 142.251 29.288Z" fill="white"/>
</svg>
